<svg width="15" height="15" viewBox="0 0 15 15" fill="none" xmlns="http://www.w3.org/2000/svg">
<g clip-path="url(#clip0_536_721)">
<path d="M7.5 0C6.37399 0 5.30878 0.255962 4.34912 0.703125C4.34283 0.701285 4.33637 0.69909 4.33008 0.697266L4.32422 0.716309C1.77493 1.91589 0 4.50274 0 7.5C0 11.6333 3.36675 15 7.5 15C11.6333 15 15 11.6333 15 7.5C15 3.36675 11.6333 0 7.5 0ZM7.5 1.5C8.78732 1.5 9.91129 1.99063 10.8867 2.67627C10.413 3.14699 9.86138 3.56333 9.25342 3.90234C8.45746 2.94242 7.48887 2.17808 6.47021 1.60547C6.80401 1.5434 7.14453 1.5 7.5 1.5ZM4.52637 2.3584C5.68859 2.7957 6.8562 3.51322 7.7959 4.52344C6.23575 4.9972 4.44849 4.96855 2.6543 4.14404C3.15232 3.42573 3.78901 2.81551 4.52637 2.3584ZM12.0103 3.64746C12.6534 4.40141 13.0575 5.31522 13.2642 6.3252C12.422 6.22154 11.563 6.27056 10.7212 6.44092C10.5502 5.97823 10.3421 5.54104 10.1045 5.12988C10.8121 4.71206 11.4561 4.21072 12.0103 3.64746ZM1.89697 5.52832C4.28174 6.66997 6.70016 6.58752 8.75391 5.78906C8.95576 6.12717 9.13266 6.48544 9.27979 6.86572C6.92956 7.78485 4.90775 9.71967 4.10596 12.3208C2.56707 11.2364 1.5 9.53272 1.5 7.5C1.5 6.79986 1.67822 6.15215 1.89697 5.52832ZM11.8945 7.79004C12.4087 7.78077 12.9102 7.86922 13.4077 7.95703C13.2576 9.86047 12.251 11.5162 10.7651 12.5112C11.1104 11.515 11.3765 10.204 11.2192 8.60596C11.1954 8.36388 11.1585 8.12874 11.1167 7.89697C11.2034 7.8794 11.2891 7.84962 11.376 7.83545C11.5505 7.80697 11.7231 7.79313 11.8945 7.79004ZM9.66797 8.35107C9.68862 8.4846 9.71301 8.61641 9.72656 8.75391C9.97982 11.3272 9.08541 12.868 8.73779 13.3667C8.33931 13.4514 7.92633 13.5 7.5 13.5C6.77026 13.5 6.09079 13.3237 5.44482 13.0869C6.01507 10.8788 7.70824 9.19467 9.66797 8.35107Z" fill="#515151"/>
</g>
<defs>
<clipPath id="clip0_536_721">
<rect width="15" height="15" fill="white"/>
</clipPath>
</defs>
</svg>
