<svg width="24" height="24" viewBox="0 0 24 24" fill="none" xmlns="http://www.w3.org/2000/svg">
<path d="M4.42683 4.4303V6.91802" stroke="#222222" stroke-width="1.71" stroke-linecap="round" stroke-linejoin="round"/>
<path d="M11.691 4.4303V6.91802" stroke="#222222" stroke-width="1.71" stroke-linecap="round" stroke-linejoin="round"/>
<path d="M8.0589 2.57849V5.06621" stroke="#222222" stroke-width="1.71" stroke-linecap="round" stroke-linejoin="round"/>
<path d="M19.179 8.182C19.179 8.38167 19.2183 8.57939 19.2947 8.76386C19.3711 8.94834 19.4831 9.11596 19.6243 9.25715C19.7655 9.39834 19.9331 9.51034 20.1176 9.58675C20.3021 9.66316 20.4998 9.70249 20.6995 9.70249C20.8991 9.70249 21.0969 9.66316 21.2813 9.58675C21.4658 9.51034 21.6334 9.39834 21.7746 9.25715C21.9158 9.11596 22.0278 8.94834 22.1042 8.76386C22.1806 8.57939 22.22 8.38167 22.22 8.182C22.22 7.98232 22.1806 7.7846 22.1042 7.60013C22.0278 7.41565 21.9158 7.24803 21.7746 7.10684C21.6334 6.96565 21.4658 6.85365 21.2813 6.77724C21.0969 6.70083 20.8991 6.6615 20.6995 6.6615C20.4998 6.6615 20.3021 6.70083 20.1176 6.77724C19.9331 6.85365 19.7655 6.96565 19.6243 7.10684C19.4831 7.24803 19.3711 7.41565 19.2947 7.60013C19.2183 7.7846 19.179 7.98232 19.179 8.182Z" stroke="#222222" stroke-width="1.71" stroke-linecap="round"/>
<path d="M18.1161 14.6698L18.4536 14.8176C20.8084 15.9338 21.4604 17.3744 21.4604 19.3568V19.8294C21.4604 20.7087 20.7476 21.4215 19.8682 21.4215H3.46592C2.94591 21.4215 2.45591 21.166 2.25675 20.6856C1.81489 19.62 1.30275 17.4797 2.6356 14.8177C4.56162 10.971 9.30199 10.1262 12.337 11.719L12.4816 11.7919" stroke="#222222" stroke-width="1.71" stroke-linecap="round" stroke-linejoin="round"/>
<path d="M17.0286 16.7861C18.5052 15.1646 18.5818 12.8299 17.1998 11.5717C15.8179 10.3134 13.5007 10.608 12.0242 12.2296C10.6838 13.7017 10.4971 15.7614 11.508 17.0701C11.6106 17.2029 11.7256 17.3281 11.853 17.444" stroke="#222222" stroke-width="1.71" stroke-linecap="round"/>
<path d="M19.6517 9.2876L17.2878 11.6515" stroke="#222222" stroke-width="1.71" stroke-linecap="round" stroke-linejoin="round"/>
</svg>
