<svg width="24" height="24" viewBox="0 0 24 24" fill="none" xmlns="http://www.w3.org/2000/svg">
<path d="M17.1111 22.3493C19.4414 20.0744 19.5991 17.1593 19.8852 15.4136C20.3787 12.4043 17.1109 11.169 13.4943 10.4681L13.9589 3.74529C14.0314 2.69648 13.2001 1.8058 12.1488 1.80579C11.2281 1.80577 10.4533 2.49535 10.3466 3.40984L9.59276 9.75412L7.93217 3.72289C7.63939 2.65953 6.5343 2.0052 5.46129 2.25987C4.39002 2.51412 3.75366 3.5789 4.03725 4.64257L6.34686 13.3052" stroke="black" stroke-width="1.71" stroke-linecap="round" stroke-linejoin="round"/>
<path d="M7.04118 22.3493C3.89432 21.0945 3.4028 17.9079 3.54649 15.6824C3.63681 14.2833 4.90726 13.3088 6.30925 13.3088H11.3908C12.308 13.3088 13.0515 14.0524 13.0515 14.9695C13.0515 15.7375 12.5249 16.4054 11.7781 16.5844L8.90152 17.2742C9.80784 17.1256 11.8781 18.0403 11.9544 20.0358" stroke="black" stroke-width="1.71" stroke-linecap="round" stroke-linejoin="round"/>
</svg>
