<svg width="15" height="16" viewBox="0 0 15 16" fill="none" xmlns="http://www.w3.org/2000/svg">
<g clip-path="url(#clip0_296_857)">
<path d="M11.2322 4.08455C11.0793 4.08455 10.9554 3.9606 10.9554 3.80772C10.9554 3.65483 11.0793 3.53088 11.2322 3.53088" stroke="#0A0A0A" stroke-width="1.5" stroke-linecap="round" stroke-linejoin="round"/>
<path d="M11.2325 4.08455C11.3854 4.08455 11.5093 3.9606 11.5093 3.80772C11.5093 3.65483 11.3854 3.53088 11.2325 3.53088" stroke="#0A0A0A" stroke-width="1.5" stroke-linecap="round" stroke-linejoin="round"/>
<path d="M0.740356 3.84917C0.740356 2.27562 2.01597 1 3.58952 1H11.1873C12.7609 1 14.0365 2.27562 14.0365 3.84917V11.447C14.0365 13.0205 12.7609 14.2961 11.1873 14.2961H3.58952C2.01597 14.2961 0.740356 13.0205 0.740356 11.447V3.84917Z" stroke="#0A0A0A" stroke-width="1.5" stroke-linecap="round" stroke-linejoin="round"/>
<path d="M4.56483 7.6479C4.56483 8.39679 4.86233 9.11501 5.39187 9.64455C5.92142 10.1741 6.63963 10.4716 7.38852 10.4716C8.13741 10.4716 8.85562 10.1741 9.38516 9.64455C9.91471 9.11501 10.2122 8.39679 10.2122 7.6479C10.2122 6.89902 9.91471 6.1808 9.38516 5.65126C8.85562 5.12171 8.13741 4.82422 7.38852 4.82422C6.63963 4.82422 5.92142 5.12171 5.39187 5.65126C4.86233 6.1808 4.56483 6.89902 4.56483 7.6479Z" stroke="#0A0A0A" stroke-width="1.5" stroke-linecap="round" stroke-linejoin="round"/>
</g>
<defs>
<clipPath id="clip0_296_857">
<rect width="15" height="15" fill="white" transform="translate(0 0.259521)"/>
</clipPath>
</defs>
</svg>
