<svg width="25" height="24" viewBox="0 0 25 24" fill="none" xmlns="http://www.w3.org/2000/svg">
<path d="M12.5905 22.349C18.3061 22.349 22.9394 17.7157 22.9394 12.0001C22.9394 6.2845 18.3061 1.65112 12.5905 1.65112C6.87491 1.65112 2.24153 6.2845 2.24153 12.0001C2.24153 17.7157 6.87491 22.349 12.5905 22.349Z" stroke="#222222" stroke-width="1.71" stroke-linecap="round" stroke-linejoin="round"/>
<path d="M10.2022 16.7765H14.9787" stroke="#222222" stroke-width="1.71" stroke-linecap="round" stroke-linejoin="round"/>
<path d="M12.5905 16.7765V11.204H10.9983" stroke="#222222" stroke-width="1.71" stroke-linecap="round" stroke-linejoin="round"/>
<path d="M12.5905 7.62163C12.3706 7.62163 12.1924 7.44342 12.1924 7.2236C12.1924 7.00377 12.3706 6.82556 12.5905 6.82556" stroke="#222222" stroke-width="1.71" stroke-linecap="round" stroke-linejoin="round"/>
<path d="M12.5905 7.62163C12.8103 7.62163 12.9885 7.44342 12.9885 7.2236C12.9885 7.00377 12.8103 6.82556 12.5905 6.82556" stroke="#222222" stroke-width="1.71" stroke-linecap="round" stroke-linejoin="round"/>
</svg>
