<svg width="24" height="24" viewBox="0 0 24 24" fill="none" xmlns="http://www.w3.org/2000/svg">
<g clip-path="url(#clip0_292_845)">
<path d="M11.8817 21.8741L7.10531 22.2881L7.51927 17.5117L17.4542 7.64041C17.6026 7.48877 17.7796 7.36828 17.9752 7.28601C18.1705 7.20374 18.3805 7.16138 18.5926 7.16138C18.8047 7.16138 19.0147 7.20374 19.2102 7.28601C19.4057 7.36828 19.5827 7.48877 19.731 7.64041L21.753 9.67835C21.9022 9.82637 22.0206 10.0025 22.1015 10.1965C22.1824 10.3905 22.2239 10.5986 22.2239 10.8088C22.2239 11.0189 22.1824 11.2271 22.1015 11.4211C22.0206 11.6151 21.9022 11.7912 21.753 11.9392L11.8817 21.8741Z" stroke="black" stroke-width="1.71" stroke-linecap="round" stroke-linejoin="round"/>
<path d="M2.19509 7.17902C1.63636 7.0818 1.63636 6.27973 2.19509 6.18253C4.21928 5.83036 5.82922 4.28859 6.26859 2.28153L6.30226 2.12768C6.42314 1.57548 7.20942 1.57204 7.33511 2.12317L7.376 2.30246C7.83162 4.30006 9.44201 5.8288 11.4606 6.17998C12.0222 6.27767 12.0222 7.08385 11.4606 7.18155C9.44201 7.53273 7.83162 9.06147 7.376 11.0591L7.33511 11.2384C7.20942 11.7895 6.42314 11.7861 6.30226 11.2338L6.26859 11.08C5.82922 9.07293 4.21928 7.53117 2.19509 7.17902Z" stroke="black" stroke-width="1.71" stroke-linecap="round" stroke-linejoin="round"/>
</g>
<defs>
<clipPath id="clip0_292_845">
<rect width="24" height="24" fill="white"/>
</clipPath>
</defs>
</svg>
