<svg width="700" height="379" viewBox="0 0 700 379" fill="none" xmlns="http://www.w3.org/2000/svg">
<rect width="338" height="379" rx="20" fill="#1F2426"/>
<rect x="29.5" y="83.5" width="277" height="213" rx="4.5" stroke="#9747FF" stroke-dasharray="10 5"/>
<g clip-path="url(#clip0_268_5192)">
<path d="M123.224 117.831L123.918 119.231C124.11 119.618 123.952 120.086 123.566 120.278L120.369 121.884C119.586 122.273 118.633 121.942 118.261 121.149L115.195 114.625H108.375C107.597 114.625 106.938 114.053 106.828 113.283C105.173 101.701 105.269 102.42 105.25 102.125C105.25 100.35 106.73 98.9202 108.524 99.0035C110.149 99.0789 111.456 100.415 111.499 102.041C111.541 103.649 110.368 104.991 108.832 105.216L109.06 106.813H115.406C115.838 106.813 116.188 107.162 116.188 107.594V109.156C116.188 109.588 115.838 109.938 115.406 109.938H109.507L109.73 111.5H116.188C116.484 111.5 116.775 111.585 117.025 111.744C117.276 111.903 117.476 112.13 117.602 112.398L120.41 118.375L122.177 117.479C122.563 117.287 123.032 117.445 123.224 117.831ZM114.203 116.187H113.006C112.626 118.834 110.344 120.875 107.594 120.875C104.578 120.875 102.125 118.422 102.125 115.406C102.125 113.38 103.233 111.607 104.875 110.662C104.694 109.394 104.541 108.325 104.412 107.423C101.244 108.691 99 111.791 99 115.406C99 120.145 102.855 124 107.594 124C111.103 124 114.127 121.885 115.46 118.864L114.203 116.187Z" fill="white"/>
</g>
<g clip-path="url(#clip1_268_5192)">
<path d="M47.3438 101.344C46.8802 101.344 46.4271 101.481 46.0416 101.739C45.6562 101.996 45.3558 102.362 45.1784 102.791C45.001 103.219 44.9546 103.69 45.045 104.145C45.1355 104.599 45.3587 105.017 45.6865 105.345C46.0142 105.673 46.4319 105.896 46.8865 105.986C47.3412 106.077 47.8124 106.03 48.2407 105.853C48.6689 105.675 49.035 105.375 49.2925 104.99C49.55 104.604 49.6875 104.151 49.6875 103.688C49.6875 103.066 49.4406 102.47 49.001 102.03C48.5615 101.591 47.9654 101.344 47.3438 101.344ZM47.3438 109.156C46.8802 109.156 46.4271 109.294 46.0416 109.551C45.6562 109.809 45.3558 110.175 45.1784 110.603C45.001 111.031 44.9546 111.503 45.045 111.957C45.1355 112.412 45.3587 112.83 45.6865 113.157C46.0142 113.485 46.4319 113.708 46.8865 113.799C47.3412 113.889 47.8124 113.843 48.2407 113.665C48.6689 113.488 49.035 113.188 49.2925 112.802C49.55 112.417 49.6875 111.964 49.6875 111.5C49.6875 110.878 49.4406 110.282 49.001 109.843C48.5615 109.403 47.9654 109.156 47.3438 109.156ZM47.3438 116.969C46.8802 116.969 46.4271 117.106 46.0416 117.364C45.6562 117.621 45.3558 117.987 45.1784 118.416C45.001 118.844 44.9546 119.315 45.045 119.77C45.1355 120.224 45.3587 120.642 45.6865 120.97C46.0142 121.298 46.4319 121.521 46.8865 121.611C47.3412 121.702 47.8124 121.655 48.2407 121.478C48.6689 121.3 49.035 121 49.2925 120.615C49.55 120.229 49.6875 119.776 49.6875 119.312C49.6875 118.691 49.4406 118.095 49.001 117.655C48.5615 117.216 47.9654 116.969 47.3438 116.969ZM69.2188 117.75H53.5938C53.3865 117.75 53.1878 117.832 53.0413 117.979C52.8948 118.125 52.8125 118.324 52.8125 118.531V120.094C52.8125 120.301 52.8948 120.5 53.0413 120.646C53.1878 120.793 53.3865 120.875 53.5938 120.875H69.2188C69.426 120.875 69.6247 120.793 69.7712 120.646C69.9177 120.5 70 120.301 70 120.094V118.531C70 118.324 69.9177 118.125 69.7712 117.979C69.6247 117.832 69.426 117.75 69.2188 117.75ZM69.2188 102.125H53.5938C53.3865 102.125 53.1878 102.207 53.0413 102.354C52.8948 102.5 52.8125 102.699 52.8125 102.906V104.469C52.8125 104.676 52.8948 104.875 53.0413 105.021C53.1878 105.168 53.3865 105.25 53.5938 105.25H69.2188C69.426 105.25 69.6247 105.168 69.7712 105.021C69.9177 104.875 70 104.676 70 104.469V102.906C70 102.699 69.9177 102.5 69.7712 102.354C69.6247 102.207 69.426 102.125 69.2188 102.125ZM69.2188 109.938H53.5938C53.3865 109.938 53.1878 110.02 53.0413 110.166C52.8948 110.313 52.8125 110.512 52.8125 110.719V112.281C52.8125 112.488 52.8948 112.687 53.0413 112.834C53.1878 112.98 53.3865 113.062 53.5938 113.062H69.2188C69.426 113.062 69.6247 112.98 69.7712 112.834C69.9177 112.687 70 112.488 70 112.281V110.719C70 110.512 69.9177 110.313 69.7712 110.166C69.6247 110.02 69.426 109.938 69.2188 109.938Z" fill="white"/>
</g>
<g clip-path="url(#clip2_268_5192)">
<path d="M165.5 99.3906C158.813 99.3906 153.391 104.815 153.391 111.5C153.391 118.189 158.813 123.609 165.5 123.609C172.187 123.609 177.609 118.189 177.609 111.5C177.609 104.815 172.187 99.3906 165.5 99.3906ZM165.5 104.762C166.633 104.762 167.551 105.68 167.551 106.812C167.551 107.945 166.633 108.863 165.5 108.863C164.367 108.863 163.449 107.945 163.449 106.812C163.449 105.68 164.367 104.762 165.5 104.762ZM168.234 117.164C168.234 117.488 167.972 117.75 167.648 117.75H163.352C163.028 117.75 162.766 117.488 162.766 117.164V115.992C162.766 115.669 163.028 115.406 163.352 115.406H163.938V112.281H163.352C163.028 112.281 162.766 112.019 162.766 111.695V110.523C162.766 110.2 163.028 109.938 163.352 109.938H166.477C166.8 109.938 167.062 110.2 167.062 110.523V115.406H167.648C167.972 115.406 168.234 115.669 168.234 115.992V117.164Z" fill="white"/>
</g>
<g clip-path="url(#clip3_268_5192)">
<path d="M218.537 123.496C211.442 113.21 210.125 112.155 210.125 108.375C210.125 103.197 214.322 99 219.5 99C224.678 99 228.875 103.197 228.875 108.375C228.875 112.155 227.558 113.21 220.463 123.496C219.998 124.168 219.002 124.168 218.537 123.496ZM219.5 112.281C221.657 112.281 223.406 110.532 223.406 108.375C223.406 106.218 221.657 104.469 219.5 104.469C217.343 104.469 215.594 106.218 215.594 108.375C215.594 110.532 217.343 112.281 219.5 112.281Z" fill="white"/>
</g>
<g clip-path="url(#clip4_268_5192)">
<path d="M153 210.496V225.527C153 226.018 153.496 226.354 153.952 226.172L159.944 223.444V206.778L153.873 209.206C153.616 209.309 153.395 209.487 153.239 209.717C153.083 209.947 153 210.218 153 210.496ZM161.333 223.444L169.667 226.222V209.556L161.333 206.778V223.444ZM177.048 206.828L171.056 209.556V226.222L177.127 223.794C177.385 223.691 177.605 223.513 177.761 223.283C177.917 223.053 178 222.782 178 222.504V207.473C178 206.982 177.504 206.646 177.048 206.828Z" fill="white"/>
</g>
<g clip-path="url(#clip5_268_5192)">
<path d="M230.828 210.25H230.438V207.906C230.438 205.719 225.594 204 219.5 204C213.406 204 208.562 205.719 208.562 207.906V210.25H208.172C207.525 210.25 207 210.774 207 211.422V215.328C207 215.975 207.525 216.5 208.172 216.5H208.562V224.312C208.562 225.175 209.262 225.875 210.125 225.875V227.438C210.125 228.3 210.825 229 211.688 229H213.25C214.113 229 214.812 228.3 214.812 227.438V225.875H224.188V227.438C224.188 228.3 224.887 229 225.75 229H227.312C228.175 229 228.875 228.3 228.875 227.438V225.875H229.188C229.969 225.875 230.438 225.25 230.438 224.625V216.5H230.828C231.475 216.5 232 215.975 232 215.328V211.422C232 210.774 231.475 210.25 230.828 210.25ZM212.469 223.531C211.606 223.531 210.906 222.832 210.906 221.969C210.906 221.106 211.606 220.406 212.469 220.406C213.332 220.406 214.031 221.106 214.031 221.969C214.031 222.832 213.332 223.531 212.469 223.531ZM213.25 218.062C212.387 218.062 211.688 217.363 211.688 216.5V210.25C211.688 209.387 212.387 208.688 213.25 208.688H225.75C226.613 208.688 227.312 209.387 227.312 210.25V216.5C227.312 217.363 226.613 218.062 225.75 218.062H213.25ZM226.531 223.531C225.668 223.531 224.969 222.832 224.969 221.969C224.969 221.106 225.668 220.406 226.531 220.406C227.394 220.406 228.094 221.106 228.094 221.969C228.094 222.832 227.394 223.531 226.531 223.531Z" fill="white"/>
</g>
<path d="M67.8516 175.438H66.875V153.172C66.875 152.525 66.3503 152 65.7031 152H49.2969C48.6497 152 48.125 152.525 48.125 153.172V175.438H47.1484C46.8249 175.438 46.5625 175.7 46.5625 176.023V177H68.4375V176.023C68.4375 175.7 68.1751 175.438 67.8516 175.438ZM52.8125 155.711C52.8125 155.387 53.0749 155.125 53.3984 155.125H55.3516C55.6751 155.125 55.9375 155.387 55.9375 155.711V157.664C55.9375 157.988 55.6751 158.25 55.3516 158.25H53.3984C53.0749 158.25 52.8125 157.988 52.8125 157.664V155.711ZM52.8125 160.398C52.8125 160.075 53.0749 159.812 53.3984 159.812H55.3516C55.6751 159.812 55.9375 160.075 55.9375 160.398V162.352C55.9375 162.675 55.6751 162.938 55.3516 162.938H53.3984C53.0749 162.938 52.8125 162.675 52.8125 162.352V160.398ZM55.3516 167.625H53.3984C53.0749 167.625 52.8125 167.363 52.8125 167.039V165.086C52.8125 164.762 53.0749 164.5 53.3984 164.5H55.3516C55.6751 164.5 55.9375 164.762 55.9375 165.086V167.039C55.9375 167.363 55.6751 167.625 55.3516 167.625ZM59.0625 175.438H55.9375V171.336C55.9375 171.012 56.1999 170.75 56.5234 170.75H58.4766C58.8001 170.75 59.0625 171.012 59.0625 171.336V175.438ZM62.1875 167.039C62.1875 167.363 61.9251 167.625 61.6016 167.625H59.6484C59.3249 167.625 59.0625 167.363 59.0625 167.039V165.086C59.0625 164.762 59.3249 164.5 59.6484 164.5H61.6016C61.9251 164.5 62.1875 164.762 62.1875 165.086V167.039ZM62.1875 162.352C62.1875 162.675 61.9251 162.938 61.6016 162.938H59.6484C59.3249 162.938 59.0625 162.675 59.0625 162.352V160.398C59.0625 160.075 59.3249 159.812 59.6484 159.812H61.6016C61.9251 159.812 62.1875 160.075 62.1875 160.398V162.352ZM62.1875 157.664C62.1875 157.988 61.9251 158.25 61.6016 158.25H59.6484C59.3249 158.25 59.0625 157.988 59.0625 157.664V155.711C59.0625 155.387 59.3249 155.125 59.6484 155.125H61.6016C61.9251 155.125 62.1875 155.387 62.1875 155.711V157.664Z" fill="white"/>
<path d="M55.1562 221.188H52.8124V206.344C52.8124 206.137 52.7301 205.938 52.5836 205.791C52.4371 205.645 52.2384 205.563 52.0312 205.563H50.4687C50.2615 205.563 50.0628 205.645 49.9163 205.791C49.7698 205.938 49.6874 206.137 49.6874 206.344V221.188H47.3437C46.6508 221.188 46.3007 222.029 46.7924 222.521L50.6987 227.208C50.8452 227.355 51.0438 227.437 51.2509 227.437C51.458 227.437 51.6567 227.355 51.8032 227.208L55.7094 222.521C56.1987 222.03 55.8505 221.188 55.1562 221.188ZM66.8749 218.062H60.6249C60.4177 218.062 60.219 218.145 60.0725 218.291C59.926 218.438 59.8437 218.637 59.8437 218.844V220.406C59.8437 220.613 59.926 220.812 60.0725 220.959C60.219 221.105 60.4177 221.188 60.6249 221.188H63.3593L60.3681 224.627C60.2032 224.774 60.0712 224.954 59.9808 225.155C59.8904 225.357 59.8437 225.575 59.8437 225.795V226.656C59.8437 226.863 59.926 227.062 60.0725 227.209C60.219 227.355 60.4177 227.438 60.6249 227.438H66.8749C67.0821 227.438 67.2809 227.355 67.4274 227.209C67.5739 227.062 67.6562 226.863 67.6562 226.656V225.094C67.6562 224.887 67.5739 224.688 67.4274 224.541C67.2809 224.395 67.0821 224.312 66.8749 224.312H64.1406L67.1318 220.873C67.2967 220.726 67.4287 220.546 67.5191 220.345C67.6095 220.143 67.6562 219.925 67.6562 219.705V218.844C67.6562 218.637 67.5739 218.438 67.4274 218.291C67.2809 218.145 67.0821 218.062 66.8749 218.062ZM68.3915 213.894L65.4975 206.081C65.4433 205.929 65.3435 205.798 65.2118 205.705C65.08 205.612 64.9228 205.562 64.7617 205.563H62.7382C62.5771 205.562 62.4198 205.612 62.2881 205.705C62.1564 205.798 62.0566 205.929 62.0024 206.081L59.1083 213.894C59.0663 214.011 59.0531 214.138 59.07 214.262C59.0869 214.386 59.1333 214.504 59.2054 214.606C59.2775 214.708 59.3731 214.792 59.4842 214.85C59.5952 214.907 59.7185 214.937 59.8437 214.938H61.0561C61.2213 214.938 61.3823 214.885 61.516 214.788C61.6496 214.691 61.7489 214.554 61.7997 214.396L62.0156 213.766H65.4824L65.6977 214.396C65.7486 214.554 65.8483 214.691 65.9823 214.789C66.1163 214.886 66.2777 214.938 66.4433 214.938H67.6562C67.7813 214.937 67.9047 214.907 68.0157 214.85C68.1268 214.792 68.2224 214.708 68.2945 214.606C68.3666 214.504 68.413 214.386 68.4299 214.262C68.4468 214.138 68.4336 214.011 68.3915 213.894ZM62.9496 211.031L63.7499 208.688L64.5502 211.031H62.9496Z" fill="white"/>
<g clip-path="url(#clip6_268_5192)">
<path d="M59.8438 276.312H56.7188C56.5116 276.312 56.3129 276.395 56.1664 276.541C56.0198 276.688 55.9375 276.887 55.9375 277.094V278.656C55.9375 278.863 56.0198 279.062 56.1664 279.209C56.3129 279.355 56.5116 279.438 56.7188 279.438H59.8438C60.051 279.438 60.2497 279.355 60.3962 279.209C60.5427 279.062 60.625 278.863 60.625 278.656V277.094C60.625 276.887 60.5427 276.688 60.3962 276.541C60.2497 276.395 60.051 276.312 59.8438 276.312ZM53.5938 273.188H51.25V258.344C51.25 258.137 51.1677 257.938 51.0212 257.791C50.8747 257.645 50.676 257.562 50.4688 257.562H48.9063C48.6991 257.562 48.5004 257.645 48.3539 257.791C48.2073 257.938 48.125 258.137 48.125 258.344V273.188H45.7813C45.0884 273.188 44.7378 274.029 45.23 274.521L49.1363 279.208C49.2828 279.355 49.4814 279.437 49.6885 279.437C49.8956 279.437 50.0943 279.355 50.2408 279.208L54.147 274.521C54.6363 274.03 54.2881 273.188 53.5938 273.188ZM66.0938 263.812H56.7188C56.5116 263.812 56.3129 263.895 56.1664 264.041C56.0198 264.188 55.9375 264.387 55.9375 264.594V266.156C55.9375 266.363 56.0198 266.562 56.1664 266.709C56.3129 266.855 56.5116 266.938 56.7188 266.938H66.0938C66.301 266.938 66.4997 266.855 66.6462 266.709C66.7927 266.562 66.875 266.363 66.875 266.156V264.594C66.875 264.387 66.7927 264.188 66.6462 264.041C66.4997 263.895 66.301 263.812 66.0938 263.812ZM62.9688 270.062H56.7188C56.5116 270.062 56.3129 270.145 56.1664 270.291C56.0198 270.438 55.9375 270.637 55.9375 270.844V272.406C55.9375 272.613 56.0198 272.812 56.1664 272.959C56.3129 273.105 56.5116 273.188 56.7188 273.188H62.9688C63.176 273.188 63.3747 273.105 63.5212 272.959C63.6677 272.812 63.75 272.613 63.75 272.406V270.844C63.75 270.637 63.6677 270.438 63.5212 270.291C63.3747 270.145 63.176 270.062 62.9688 270.062ZM69.2188 257.562H56.7188C56.5116 257.562 56.3129 257.645 56.1664 257.791C56.0198 257.938 55.9375 258.137 55.9375 258.344V259.906C55.9375 260.113 56.0198 260.312 56.1664 260.459C56.3129 260.605 56.5116 260.688 56.7188 260.688H69.2188C69.426 260.688 69.6247 260.605 69.7712 260.459C69.9177 260.312 70 260.113 70 259.906V258.344C70 258.137 69.9177 257.938 69.7712 257.791C69.6247 257.645 69.426 257.562 69.2188 257.562Z" fill="white"/>
</g>
<g clip-path="url(#clip7_268_5192)">
<path d="M121.778 156.087L112.403 152.181C112.118 152.062 111.812 152.001 111.502 152.001C111.193 152.001 110.887 152.062 110.602 152.181L101.227 156.087C100.353 156.448 99.7812 157.303 99.7812 158.25C99.7812 167.942 105.372 174.642 110.597 176.819C111.173 177.059 111.822 177.059 112.398 176.819C116.583 175.076 123.219 169.056 123.219 158.25C123.219 157.303 122.647 156.448 121.778 156.087ZM111.505 173.792L111.5 155.188L120.089 158.768C119.928 166.16 116.08 171.517 111.505 173.792Z" fill="white"/>
</g>
<g clip-path="url(#clip8_268_5192)">
<path d="M178 160.594C178 165.34 174.152 169.188 169.406 169.188C168.858 169.188 168.323 169.136 167.803 169.038L166.631 170.357C166.521 170.48 166.386 170.579 166.235 170.647C166.084 170.715 165.921 170.75 165.755 170.75H163.938V172.703C163.938 173.35 163.413 173.875 162.766 173.875H160.812V175.828C160.812 176.475 160.288 177 159.641 177H154.172C153.525 177 153 176.475 153 175.828V172.017C153 171.706 153.123 171.408 153.343 171.188L161.244 163.288C160.964 162.44 160.812 161.535 160.812 160.594C160.812 155.848 164.66 152 169.406 152C174.166 152 178 155.834 178 160.594ZM169.406 158.25C169.406 159.544 170.456 160.594 171.75 160.594C173.044 160.594 174.094 159.544 174.094 158.25C174.094 156.956 173.044 155.906 171.75 155.906C170.456 155.906 169.406 156.956 169.406 158.25Z" fill="white"/>
</g>
<path d="M115.98 209H112.625C112.312 209 112.012 209.117 111.781 209.328L107.941 212.844C107.938 212.848 107.934 212.855 107.93 212.859C107.281 213.469 107.293 214.441 107.848 215.047C108.344 215.59 109.387 215.734 110.039 215.152C110.043 215.148 110.051 215.148 110.055 215.145L113.176 212.285C113.43 212.055 113.828 212.07 114.059 212.324C114.293 212.578 114.273 212.973 114.02 213.207L113 214.141L118.688 218.758C118.801 218.852 118.902 218.953 118.996 219.059V211.5L116.863 209.367C116.633 209.133 116.312 209 115.98 209ZM120.25 211.508V220.254C120.25 220.945 120.809 221.504 121.5 221.504H124V211.508H120.25ZM122.125 220.254C121.781 220.254 121.5 219.973 121.5 219.629C121.5 219.285 121.781 219.004 122.125 219.004C122.469 219.004 122.75 219.285 122.75 219.629C122.75 219.973 122.469 220.254 122.125 220.254ZM99 221.5H101.5C102.191 221.5 102.75 220.941 102.75 220.25V211.508H99V221.5ZM100.875 219.004C101.219 219.004 101.5 219.285 101.5 219.629C101.5 219.973 101.219 220.254 100.875 220.254C100.531 220.254 100.25 219.973 100.25 219.629C100.25 219.281 100.531 219.004 100.875 219.004ZM117.902 219.73L112.07 214.996L110.898 216.07C109.738 217.129 107.961 217.027 106.926 215.898C105.875 214.75 105.957 212.973 107.098 211.926L110.293 209H107.02C106.688 209 106.371 209.133 106.137 209.367L104 211.5V220.246H104.715L108.25 223.445C109.32 224.316 110.895 224.152 111.766 223.082L111.773 223.074L112.473 223.68C113.094 224.188 114.012 224.09 114.516 223.469L115.742 221.961L115.953 222.133C116.488 222.566 117.277 222.488 117.711 221.949L118.082 221.492C118.52 220.953 118.438 220.168 117.902 219.73Z" fill="white"/>
<path d="M231.219 158.25V159.031C231.219 159.135 231.178 159.234 231.104 159.307C231.031 159.381 230.932 159.422 230.828 159.422H229.656V160.008C229.656 160.331 229.394 160.594 229.07 160.594H209.93C209.606 160.594 209.344 160.331 209.344 160.008V159.422H208.172C208.068 159.422 207.969 159.381 207.896 159.307C207.822 159.234 207.781 159.135 207.781 159.031V158.25C207.781 158.173 207.804 158.097 207.847 158.033C207.89 157.969 207.951 157.919 208.023 157.889L219.351 153.592C219.446 153.553 219.554 153.553 219.649 153.592L230.977 157.889C231.049 157.919 231.11 157.969 231.153 158.033C231.196 158.097 231.219 158.173 231.219 158.25ZM230.047 173.094H208.953C208.306 173.094 207.781 173.618 207.781 174.266V175.047C207.781 175.15 207.822 175.25 207.896 175.323C207.969 175.396 208.068 175.438 208.172 175.438H230.828C230.932 175.438 231.031 175.396 231.104 175.323C231.178 175.25 231.219 175.15 231.219 175.047V174.266C231.219 173.618 230.694 173.094 230.047 173.094ZM211.688 161.375V170.75H209.93C209.606 170.75 209.344 171.012 209.344 171.336V172.313H229.656V171.336C229.656 171.012 229.394 170.75 229.07 170.75H227.312V161.375H224.188V170.75H221.062V161.375H217.938V170.75H214.812V161.375H211.688Z" fill="white"/>
<g clip-path="url(#clip9_268_5192)">
<path d="M121.157 267.176C120.858 265.562 119.451 264.333 117.75 264.333C117.216 264.333 116.713 264.464 116.261 264.681C115.506 263.635 114.282 262.944 112.889 262.944C110.589 262.944 108.722 264.811 108.722 267.111C108.722 267.133 108.731 267.159 108.731 267.181C107.142 267.502 105.944 268.899 105.944 270.583C105.944 272.502 107.498 274.056 109.417 274.056H120.528C122.446 274.056 124 272.502 124 270.583C124 268.882 122.776 267.471 121.157 267.176ZM104.386 268.669C102.763 267.046 102.763 264.403 104.386 262.775C105.888 261.273 108.253 261.178 109.885 262.454C110.753 261.894 111.778 261.556 112.889 261.556C112.919 261.556 112.945 261.564 112.976 261.564L113.362 260.405C113.51 259.963 113.089 259.546 112.646 259.694L109.378 260.783L107.837 257.701C107.628 257.285 107.034 257.285 106.826 257.701L105.285 260.783L102.016 259.694C101.574 259.546 101.157 259.967 101.305 260.41L102.394 263.678L99.3125 265.219C98.8958 265.427 98.8958 266.022 99.3125 266.23L102.394 267.771L101.305 271.039C101.157 271.482 101.578 271.898 102.021 271.755L104.59 270.9C104.582 270.796 104.56 270.696 104.56 270.588C104.56 270.045 104.66 269.524 104.829 269.03C104.673 268.912 104.521 268.804 104.386 268.669ZM107.416 266.152C107.602 265.089 108.102 264.138 108.8 263.374C108.375 263.105 107.872 262.944 107.333 262.944C105.801 262.944 104.556 264.19 104.556 265.722C104.556 266.534 104.911 267.259 105.471 267.767C105.962 267.076 106.626 266.512 107.416 266.152ZM121.765 275.536C121.435 275.349 121.01 275.457 120.819 275.796L119.23 278.574C119.039 278.908 119.156 279.329 119.49 279.52C119.599 279.581 119.716 279.611 119.833 279.611C120.072 279.611 120.306 279.485 120.437 279.26L122.025 276.482C122.212 276.148 122.099 275.727 121.765 275.536ZM117.598 275.536C117.268 275.349 116.843 275.457 116.652 275.796L115.063 278.574C114.872 278.908 114.99 279.329 115.324 279.52C115.432 279.581 115.549 279.611 115.667 279.611C115.905 279.611 116.14 279.485 116.27 279.26L117.859 276.482C118.045 276.148 117.932 275.727 117.598 275.536ZM113.431 275.536C113.102 275.349 112.676 275.457 112.485 275.796L110.897 278.574C110.706 278.908 110.823 279.329 111.157 279.52C111.266 279.581 111.383 279.611 111.5 279.611C111.739 279.611 111.973 279.485 112.103 279.26L113.692 276.482C113.878 276.148 113.766 275.727 113.431 275.536ZM109.265 275.536C108.935 275.349 108.51 275.457 108.319 275.796L106.73 278.574C106.539 278.908 106.656 279.329 106.99 279.52C107.099 279.581 107.216 279.611 107.333 279.611C107.572 279.611 107.806 279.485 107.937 279.26L109.525 276.482C109.712 276.148 109.599 275.727 109.265 275.536Z" fill="white"/>
</g>
<g clip-path="url(#clip10_268_5192)">
<path d="M165.5 263.812C162.917 263.812 160.812 265.917 160.812 268.5C160.812 271.083 162.917 273.188 165.5 273.188C168.083 273.188 170.188 271.083 170.188 268.5C170.188 265.917 168.083 263.812 165.5 263.812ZM177.531 267.743L172.907 265.434L174.543 260.531C174.763 259.867 174.133 259.237 173.474 259.462L168.571 261.098L166.257 256.469C165.944 255.844 165.056 255.844 164.743 256.469L162.434 261.093L157.526 259.457C156.862 259.237 156.232 259.867 156.457 260.526L158.093 265.429L153.469 267.743C152.844 268.056 152.844 268.944 153.469 269.257L158.093 271.566L156.457 276.474C156.237 277.138 156.867 277.768 157.526 277.543L162.429 275.907L164.738 280.531C165.051 281.156 165.939 281.156 166.252 280.531L168.562 275.907L173.464 277.543C174.128 277.763 174.758 277.133 174.533 276.474L172.897 271.571L177.521 269.262C178.156 268.944 178.156 268.056 177.531 267.743ZM169.919 272.919C167.482 275.355 163.518 275.355 161.081 272.919C158.645 270.482 158.645 266.518 161.081 264.081C163.518 261.645 167.482 261.645 169.919 264.081C172.355 266.518 172.355 270.482 169.919 272.919Z" fill="white"/>
</g>
<path d="M229.469 271.223C229.477 271.148 229.5 271.078 229.5 271.004C229.5 269.625 228.379 268.504 227 268.504C226.508 268.504 226.055 268.652 225.668 268.895C224.98 267.379 223.461 266.316 221.688 266.316C219.273 266.316 217.312 268.273 217.312 270.691C217.312 270.809 217.34 270.918 217.348 271.031C215.41 271.176 213.875 272.777 213.875 274.754C213.875 276.824 215.555 278.504 217.625 278.504H228.25C230.32 278.504 232 276.824 232 274.754C232 273.109 230.938 271.73 229.469 271.223ZM212.656 270.34C210.949 268.633 210.949 265.859 212.656 264.156C214.363 262.449 217.137 262.449 218.844 264.156C219.223 264.535 219.504 264.973 219.715 265.434C220.098 265.289 220.5 265.199 220.914 265.141L222.078 261.668C222.234 261.203 221.793 260.766 221.328 260.918L217.898 262.062L216.277 258.828C216.062 258.391 215.438 258.391 215.219 258.828L213.602 262.062L210.168 260.918C209.707 260.766 209.266 261.207 209.418 261.668L210.562 265.098L207.328 266.719C206.891 266.938 206.891 267.559 207.328 267.777L210.562 269.395L209.418 272.824C209.262 273.289 209.703 273.727 210.168 273.574L213.141 272.586C213.379 272.102 213.688 271.66 214.062 271.277C213.551 271.066 213.07 270.754 212.656 270.34ZM212.469 267.246C212.469 268.84 213.613 270.168 215.121 270.461C215.434 270.277 215.758 270.117 216.105 270.004C216.316 268.273 217.316 266.781 218.738 265.902C218.223 264.766 217.078 263.969 215.75 263.969C213.941 263.969 212.469 265.438 212.469 267.246Z" fill="white"/>
<path d="M290.526 108.316C290.717 108.165 291 108.307 291 108.546V118.531C291 119.825 289.95 120.875 288.656 120.875H268.344C267.05 120.875 266 119.825 266 118.531V108.551C266 108.307 266.278 108.17 266.474 108.321C267.567 109.171 269.018 110.25 273.998 113.868C275.028 114.62 276.767 116.202 278.5 116.192C280.243 116.207 282.016 114.591 283.007 113.868C287.987 110.25 289.433 109.166 290.526 108.316ZM278.5 114.625C279.633 114.645 281.264 113.199 282.084 112.604C288.563 107.901 289.057 107.491 290.551 106.319C290.834 106.1 291 105.758 291 105.396V104.469C291 103.175 289.95 102.125 288.656 102.125H268.344C267.05 102.125 266 103.175 266 104.469V105.396C266 105.758 266.166 106.095 266.449 106.319C267.943 107.486 268.437 107.901 274.916 112.604C275.736 113.199 277.367 114.645 278.5 114.625Z" fill="white"/>
<g clip-path="url(#clip11_268_5192)">
<path d="M290.287 169.666L284.818 167.322C284.584 167.223 284.325 167.202 284.078 167.263C283.831 167.323 283.611 167.463 283.451 167.659L281.029 170.618C277.228 168.826 274.169 165.767 272.377 161.966L275.336 159.544C275.533 159.384 275.673 159.164 275.733 158.917C275.794 158.671 275.773 158.411 275.673 158.177L273.329 152.709C273.219 152.457 273.025 152.251 272.78 152.127C272.535 152.003 272.254 151.969 271.986 152.03L266.908 153.202C266.65 153.261 266.42 153.407 266.255 153.614C266.09 153.822 266 154.079 266 154.344C266 166.868 276.151 177 288.656 177C288.921 177 289.179 176.91 289.386 176.746C289.594 176.581 289.739 176.35 289.799 176.092L290.971 171.014C291.031 170.745 290.996 170.463 290.871 170.217C290.746 169.971 290.54 169.776 290.287 169.666Z" fill="white"/>
</g>
<rect x="362.5" y="0.5" width="337" height="378" rx="19.5" fill="white"/>
<rect x="362.5" y="0.5" width="337" height="378" rx="19.5" stroke="#969696"/>
<rect x="393.5" y="133.5" width="275" height="112" rx="4.5" stroke="#9747FF" stroke-dasharray="10 5"/>
<path d="M425.016 172.656H423.063V166.934C426.406 166.158 428.827 163.032 428.502 159.407L427.723 150.71C427.687 150.308 427.355 150 426.956 150H416.044C415.646 150 415.313 150.308 415.277 150.71L414.498 159.407C414.173 163.033 416.594 166.159 419.938 166.935V172.656H417.984C416.906 172.656 416.031 173.531 416.031 174.609C416.031 174.825 416.206 175 416.422 175H426.578C426.794 175 426.969 174.825 426.969 174.609C426.969 173.531 426.094 172.656 425.016 172.656ZM417.484 152.344H425.516L425.866 156.25H417.134L417.484 152.344Z" fill="#B1B1B1"/>
<g clip-path="url(#clip12_268_5192)">
<path d="M421.495 195.742C421.534 195.972 422.281 200.356 422.281 202.031C422.281 204.585 420.924 206.406 418.917 207.139L419.547 218.765C419.581 219.434 419.049 220 418.375 220H415.25C414.581 220 414.044 219.438 414.078 218.765L414.708 207.139C412.696 206.406 411.344 204.58 411.344 202.031C411.344 200.352 412.091 195.972 412.13 195.742C412.286 194.751 414.342 194.736 414.469 195.796V202.69C414.532 202.856 415.206 202.847 415.25 202.69C415.318 201.455 415.636 195.894 415.641 195.767C415.802 194.751 417.823 194.751 417.979 195.767C417.989 195.898 418.302 201.455 418.37 202.69C418.414 202.847 419.093 202.856 419.151 202.69V195.796C419.278 194.741 421.339 194.751 421.495 195.742ZM427.315 209.692L426.583 218.73C426.524 219.414 427.066 220 427.75 220H430.484C431.134 220 431.656 219.477 431.656 218.828V196.172C431.656 195.527 431.134 195 430.484 195C426.456 195 419.674 203.716 427.315 209.692Z" fill="#B1B1B1"/>
</g>
<path d="M649.094 159.938H647.922V156.422C647.922 152.33 644.592 149 640.5 149C636.408 149 633.078 152.33 633.078 156.422V159.938H631.906C630.612 159.938 629.562 160.987 629.562 162.281V171.656C629.562 172.95 630.612 174 631.906 174H649.094C650.388 174 651.438 172.95 651.438 171.656V162.281C651.438 160.987 650.388 159.938 649.094 159.938ZM644.016 159.938H636.984V156.422C636.984 154.483 638.562 152.906 640.5 152.906C642.438 152.906 644.016 154.483 644.016 156.422V159.938Z" fill="#B1B1B1"/>
<path d="M475.5 150C477.226 150 478.625 151.399 478.625 153.125C478.625 154.851 477.226 156.25 475.5 156.25C473.774 156.25 472.375 154.851 472.375 153.125C472.375 151.399 473.774 150 475.5 150ZM477.844 157.031H477.289C476.18 157.541 474.868 157.563 473.711 157.031H473.156C471.862 157.031 470.812 158.081 470.812 159.375V166.016C470.812 166.663 471.337 167.188 471.984 167.188H472.766V173.828C472.766 174.475 473.29 175 473.938 175H477.062C477.71 175 478.234 174.475 478.234 173.828V167.188H479.016C479.663 167.188 480.188 166.663 480.188 166.016V159.375C480.188 158.081 479.138 157.031 477.844 157.031Z" fill="#B1B1B1"/>
<g clip-path="url(#clip13_268_5192)">
<path d="M595.224 213.831L595.918 215.231C596.11 215.618 595.952 216.086 595.566 216.278L592.369 217.884C591.586 218.273 590.633 217.942 590.261 217.149L587.195 210.625H580.375C579.597 210.625 578.938 210.053 578.828 209.283C577.173 197.701 577.269 198.42 577.25 198.125C577.25 196.35 578.73 194.92 580.524 195.003C582.149 195.079 583.456 196.415 583.499 198.041C583.541 199.649 582.368 200.991 580.832 201.216L581.06 202.813H587.406C587.838 202.813 588.188 203.162 588.188 203.594V205.156C588.188 205.588 587.838 205.938 587.406 205.938H581.507L581.73 207.5H588.188C588.484 207.5 588.775 207.585 589.025 207.744C589.276 207.903 589.476 208.13 589.602 208.398L592.41 214.375L594.177 213.479C594.563 213.287 595.032 213.445 595.224 213.831ZM586.203 212.187H585.006C584.626 214.834 582.344 216.875 579.594 216.875C576.578 216.875 574.125 214.422 574.125 211.406C574.125 209.38 575.233 207.607 576.875 206.662C576.694 205.394 576.541 204.325 576.412 203.423C573.244 204.691 571 207.791 571 211.406C571 216.145 574.855 220 579.594 220C583.103 220 586.127 217.885 587.46 214.864L586.203 212.187Z" fill="#B1B1B1"/>
</g>
<g clip-path="url(#clip14_268_5192)">
<path d="M475.5 195.391C468.813 195.391 463.391 200.815 463.391 207.5C463.391 214.189 468.813 219.609 475.5 219.609C482.187 219.609 487.609 214.189 487.609 207.5C487.609 200.815 482.187 195.391 475.5 195.391ZM475.5 200.762C476.633 200.762 477.551 201.68 477.551 202.812C477.551 203.945 476.633 204.863 475.5 204.863C474.367 204.863 473.449 203.945 473.449 202.812C473.449 201.68 474.367 200.762 475.5 200.762ZM478.234 213.164C478.234 213.488 477.972 213.75 477.648 213.75H473.352C473.028 213.75 472.766 213.488 472.766 213.164V211.992C472.766 211.669 473.028 211.406 473.352 211.406H473.938V208.281H473.352C473.028 208.281 472.766 208.019 472.766 207.695V206.523C472.766 206.2 473.028 205.938 473.352 205.938H476.477C476.8 205.938 477.062 206.2 477.062 206.523V211.406H477.648C477.972 211.406 478.234 211.669 478.234 211.992V213.164Z" fill="#B1B1B1"/>
</g>
<path d="M541.526 204.316C541.717 204.165 542 204.307 542 204.546V214.531C542 215.825 540.95 216.875 539.656 216.875H519.344C518.05 216.875 517 215.825 517 214.531V204.551C517 204.307 517.278 204.17 517.474 204.321C518.567 205.171 520.018 206.25 524.998 209.868C526.028 210.62 527.767 212.202 529.5 212.192C531.243 212.207 533.016 210.591 534.007 209.868C538.987 206.25 540.433 205.166 541.526 204.316ZM529.5 210.625C530.633 210.645 532.264 209.199 533.084 208.604C539.563 203.901 540.057 203.491 541.551 202.319C541.834 202.1 542 201.758 542 201.396V200.469C542 199.175 540.95 198.125 539.656 198.125H519.344C518.05 198.125 517 199.175 517 200.469V201.396C517 201.758 517.166 202.095 517.449 202.319C518.943 203.486 519.437 203.901 525.916 208.604C526.736 209.199 528.367 210.645 529.5 210.625Z" fill="#B1B1B1"/>
<path d="M573.25 154.75H578.75V159.75H584.25V165.25H589.25V170.25H593.75" stroke="#B1B1B1" stroke-width="3"/>
<g clip-path="url(#clip15_268_5192)">
<path d="M537.59 173.146V162.035C537.59 160.914 536.701 160.006 535.567 160.006H524.431C523.258 160.006 522.406 160.927 522.406 162.035L522.403 162.035V173.146C522.403 174.28 523.321 175.162 524.43 175.162H535.579C536.687 175.162 537.592 174.331 537.59 173.15V173.147V173.146ZM535.491 173.056H524.502V162.131H535.491V173.056ZM532.744 151.408C532.732 149.954 534.835 149.938 534.846 151.408L534.814 155.817L535.945 154.432C536.726 153.575 538.098 154.77 537.251 155.738L534.508 159.003C534.075 159.436 533.512 159.434 533.082 159.003L530.352 155.725C529.504 154.757 530.89 153.55 531.658 154.419L532.776 155.817L532.744 151.408ZM525.112 158.24C525.1 159.694 527.202 159.71 527.214 158.24L527.183 153.83L528.313 155.215C529.094 156.073 530.467 154.878 529.619 153.91L526.877 150.645C526.444 150.212 525.88 150.215 525.45 150.645L522.72 153.923C521.872 154.891 523.258 156.098 524.026 155.229L525.144 153.83L525.112 158.24H525.112Z" fill="#B1B1B1"/>
<path d="M534.971 168.389C534.971 168.438 534.961 168.487 534.943 168.533C534.924 168.578 534.897 168.62 534.862 168.654C534.827 168.689 534.786 168.717 534.74 168.736C534.695 168.755 534.646 168.764 534.597 168.764H532.136C532.037 168.764 531.942 168.724 531.872 168.654C531.801 168.583 531.762 168.488 531.762 168.389V165.715C531.761 165.647 531.774 165.58 531.799 165.517C531.825 165.454 531.863 165.397 531.91 165.349C531.958 165.3 532.015 165.262 532.078 165.236C532.141 165.211 532.208 165.197 532.276 165.198H534.454C534.522 165.197 534.59 165.21 534.653 165.236C534.715 165.262 534.772 165.3 534.82 165.348C534.868 165.396 534.906 165.453 534.932 165.516C534.958 165.579 534.971 165.647 534.97 165.715V168.389H534.971Z" fill="#B1B1B1"/>
<path d="M534.369 168.666H533.433V172.283C533.433 172.924 534.369 172.924 534.369 172.283V168.666ZM533.29 168.666H532.354V172.283C532.354 172.919 533.29 172.919 533.29 172.283V168.666ZM534.078 164.278C534.078 164.464 534.004 164.643 533.872 164.775C533.74 164.906 533.561 164.981 533.375 164.981C533.189 164.981 533.01 164.906 532.878 164.775C532.746 164.643 532.672 164.464 532.672 164.278C532.672 164.091 532.746 163.913 532.878 163.781C533.01 163.649 533.189 163.575 533.375 163.575C533.561 163.575 533.74 163.649 533.872 163.781C534.004 163.913 534.078 164.091 534.078 164.278ZM531.606 168.389C531.607 168.438 531.598 168.487 531.579 168.533C531.56 168.578 531.533 168.62 531.498 168.655C531.463 168.69 531.422 168.717 531.376 168.736C531.331 168.755 531.282 168.765 531.233 168.764H528.772C528.672 168.764 528.577 168.724 528.507 168.654C528.437 168.583 528.397 168.488 528.397 168.389V165.715C528.397 165.408 528.643 165.198 528.911 165.198H531.09C531.384 165.198 531.606 165.431 531.606 165.715V168.389H531.606Z" fill="#B1B1B1"/>
<path d="M531.005 168.666H530.068V172.283C530.068 172.924 531.005 172.924 531.005 172.283V168.666ZM529.927 168.666H528.99V172.283C528.99 172.919 529.927 172.919 529.927 172.283V168.666ZM530.714 164.278C530.714 164.464 530.64 164.643 530.508 164.775C530.376 164.906 530.197 164.981 530.011 164.981C529.825 164.981 529.646 164.906 529.514 164.775C529.382 164.643 529.308 164.464 529.308 164.278C529.308 164.091 529.382 163.913 529.514 163.781C529.646 163.649 529.825 163.575 530.011 163.575C530.197 163.575 530.376 163.649 530.508 163.781C530.64 163.913 530.714 164.091 530.714 164.278ZM528.243 168.389C528.243 168.611 528.064 168.764 527.869 168.764H525.408C525.309 168.764 525.214 168.724 525.143 168.654C525.073 168.583 525.034 168.488 525.033 168.389V165.715C525.033 165.408 525.279 165.198 525.548 165.198H527.727C527.795 165.197 527.862 165.21 527.925 165.236C527.988 165.262 528.045 165.3 528.093 165.348C528.141 165.396 528.179 165.453 528.204 165.516C528.23 165.579 528.243 165.647 528.242 165.715V168.389H528.243Z" fill="#B1B1B1"/>
<path d="M527.641 168.666H526.705V172.283C526.705 172.924 527.641 172.924 527.641 172.283V168.666ZM526.562 168.666H525.626V172.283C525.626 172.919 526.562 172.919 526.562 172.283V168.666ZM527.35 164.278C527.35 164.464 527.276 164.643 527.145 164.775C527.013 164.906 526.834 164.981 526.648 164.981C526.461 164.981 526.283 164.906 526.151 164.775C526.019 164.643 525.945 164.464 525.945 164.278C525.945 164.091 526.019 163.913 526.151 163.781C526.283 163.649 526.461 163.575 526.648 163.575C526.834 163.575 527.013 163.649 527.145 163.781C527.276 163.913 527.35 164.091 527.35 164.278Z" fill="#B1B1B1"/>
</g>
<defs>
<clipPath id="clip0_268_5192">
<rect width="25" height="25" fill="white" transform="translate(99 99)"/>
</clipPath>
<clipPath id="clip1_268_5192">
<rect width="25" height="25" fill="white" transform="translate(45 99)"/>
</clipPath>
<clipPath id="clip2_268_5192">
<rect width="25" height="25" fill="white" transform="translate(153 99)"/>
</clipPath>
<clipPath id="clip3_268_5192">
<rect width="25" height="25" fill="white" transform="translate(207 99)"/>
</clipPath>
<clipPath id="clip4_268_5192">
<rect width="25" height="25" fill="white" transform="translate(153 204)"/>
</clipPath>
<clipPath id="clip5_268_5192">
<rect width="25" height="25" fill="white" transform="translate(207 204)"/>
</clipPath>
<clipPath id="clip6_268_5192">
<rect width="25" height="25" fill="white" transform="translate(45 256)"/>
</clipPath>
<clipPath id="clip7_268_5192">
<rect width="25" height="25" fill="white" transform="translate(99 152)"/>
</clipPath>
<clipPath id="clip8_268_5192">
<rect width="25" height="25" fill="white" transform="translate(153 152)"/>
</clipPath>
<clipPath id="clip9_268_5192">
<rect width="25" height="25" fill="white" transform="translate(99 256)"/>
</clipPath>
<clipPath id="clip10_268_5192">
<rect width="25" height="25" fill="white" transform="translate(153 256)"/>
</clipPath>
<clipPath id="clip11_268_5192">
<rect width="25" height="25" fill="white" transform="translate(266 152)"/>
</clipPath>
<clipPath id="clip12_268_5192">
<rect width="25" height="25" fill="white" transform="translate(409 195)"/>
</clipPath>
<clipPath id="clip13_268_5192">
<rect width="25" height="25" fill="white" transform="translate(571 195)"/>
</clipPath>
<clipPath id="clip14_268_5192">
<rect width="25" height="25" fill="white" transform="translate(463 195)"/>
</clipPath>
<clipPath id="clip15_268_5192">
<rect width="25" height="25.3968" fill="white" transform="translate(517 150)"/>
</clipPath>
</defs>
</svg>
