<svg width="20" height="20" viewBox="0 0 20 20" fill="none" xmlns="http://www.w3.org/2000/svg">
<circle cx="10" cy="10" r="9.5" fill="#F3F3F3" stroke="#1E1E1E"/>
<path d="M10.0059 13.2939C10.0452 13.4491 10.1828 13.5461 10.4187 13.5849C10.4777 13.5914 10.5072 13.6238 10.5072 13.682C10.5072 13.7143 10.4908 13.7434 10.458 13.7693C10.4253 13.7952 10.3827 13.8081 10.3303 13.8081C10.232 13.8081 10.1009 13.8016 9.93705 13.7887C9.77321 13.7758 9.54056 13.7693 9.2391 13.7693C8.99662 13.7693 8.78363 13.7758 8.60013 13.7887C8.41663 13.8081 8.30522 13.8211 8.2659 13.8275C8.23314 13.8275 8.2102 13.8178 8.19709 13.7984C8.18398 13.779 8.17743 13.7564 8.17743 13.7305C8.17743 13.7046 8.18071 13.6787 8.18726 13.6529C8.20037 13.627 8.21675 13.6141 8.23641 13.6141C8.28229 13.6076 8.32816 13.5946 8.37404 13.5752C8.41991 13.5558 8.46251 13.53 8.50183 13.4976C8.52149 13.4782 8.54443 13.3747 8.57064 13.1871C8.60341 12.9995 8.62962 12.7537 8.64928 12.4497C8.6755 12.1392 8.69516 11.7834 8.70826 11.3823C8.72793 10.9813 8.73776 10.5576 8.73776 10.1112C8.73776 9.73604 8.73776 9.38673 8.73776 9.06329C8.73776 8.73986 8.72137 8.47787 8.6886 8.27734C8.62962 7.85041 8.492 7.52373 8.27573 7.29733C8.05947 7.06445 7.80716 6.94802 7.5188 6.94802C7.26322 6.94802 7.01091 7.01917 6.76187 7.16148C6.51284 7.29733 6.29002 7.50109 6.09342 7.77278C5.89681 8.038 5.73625 8.37114 5.61173 8.7722C5.49377 9.16679 5.43479 9.61961 5.43479 10.1306C5.43479 10.6934 5.49705 11.185 5.62156 11.6055C5.75263 12.0195 5.92303 12.3688 6.13274 12.6534C6.34245 12.9316 6.58165 13.1418 6.85035 13.2841C7.12559 13.42 7.41067 13.4879 7.70558 13.4879C7.71869 13.4879 7.73507 13.4879 7.75473 13.4879C7.78094 13.4879 7.8006 13.4847 7.81371 13.4782C7.83993 13.4653 7.85631 13.4653 7.86286 13.4782C7.86942 13.4911 7.86942 13.5106 7.86286 13.5364C7.85631 13.5558 7.84648 13.5785 7.83337 13.6043C7.82682 13.6238 7.81699 13.6367 7.80388 13.6432C7.73835 13.6884 7.6466 13.7305 7.52863 13.7693C7.41067 13.8016 7.24683 13.8178 7.03712 13.8178C6.68979 13.8178 6.34245 13.7402 5.99511 13.5849C5.65433 13.4232 5.34632 13.2001 5.07107 12.9154C4.80238 12.6308 4.58283 12.288 4.41244 11.8869C4.24861 11.4794 4.16669 11.033 4.16669 10.5479C4.16669 9.85571 4.26827 9.26383 4.47142 8.7722C4.67458 8.28058 4.94983 7.87951 5.29717 7.56902C5.65106 7.25852 6.05737 7.03211 6.51612 6.8898C6.98142 6.74102 7.47621 6.66663 8.00049 6.66663C8.19054 6.66663 8.36421 6.68603 8.52149 6.72485C8.67877 6.76366 8.8164 6.81217 8.93436 6.87039C9.05232 6.92214 9.14735 6.97389 9.21944 7.02564C9.29808 7.07739 9.35051 7.1162 9.37672 7.14208C9.42915 7.10327 9.53401 7.05799 9.69129 7.00624C9.85513 6.94802 10.0386 6.89627 10.2418 6.85098C10.4515 6.79924 10.6678 6.75719 10.8906 6.72485C11.1134 6.68603 11.3166 6.66663 11.5001 6.66663C11.9981 6.67956 12.4339 6.76042 12.8075 6.9092C13.1876 7.05799 13.5022 7.25852 13.7512 7.5108C14.0068 7.75661 14.1968 8.04447 14.3213 8.37437C14.4524 8.69781 14.5179 9.04389 14.5179 9.41261C14.5179 10.1048 14.4229 10.7225 14.2329 11.2659C14.0494 11.8028 13.8003 12.2589 13.4858 12.634C13.1712 13.0092 12.8075 13.2971 12.3946 13.4976C11.9817 13.6917 11.5492 13.7887 11.097 13.7887C11.0577 13.7887 11.0315 13.7758 11.0184 13.7499C11.0053 13.7176 10.9987 13.6852 10.9987 13.6529C11.0053 13.6205 11.0184 13.5946 11.038 13.5752C11.0577 13.5494 11.0774 13.5397 11.097 13.5461C11.1298 13.5591 11.156 13.5655 11.1757 13.5655C11.1953 13.5655 11.2215 13.5655 11.2543 13.5655C11.523 13.5655 11.7753 13.475 12.0112 13.2939C12.2472 13.1127 12.4536 12.8637 12.6305 12.5467C12.8075 12.2233 12.9451 11.8449 13.0434 11.4114C13.1483 10.9716 13.2007 10.4929 13.2007 9.97539C13.2007 9.01154 13.05 8.26117 12.7485 7.72427C12.4536 7.18736 11.9948 6.91891 11.3723 6.91891C11.1822 6.91891 11.0053 6.95772 10.8414 7.03534C10.6776 7.11297 10.5334 7.21647 10.4089 7.34584C10.2909 7.46875 10.1926 7.61106 10.114 7.77278C10.0419 7.9345 9.99603 8.09945 9.97637 8.26764C9.9436 8.49405 9.92394 8.85629 9.91739 9.35439C9.91083 9.85248 9.90428 10.4541 9.89772 11.1592C9.89117 11.6767 9.89445 12.1295 9.90756 12.5176C9.92722 12.8993 9.95998 13.158 10.0059 13.2939Z" fill="#1E1E1E"/>
<path d="M15.1452 12.8863C15.178 12.8928 15.2304 12.9284 15.3025 12.9931C15.3812 13.0577 15.4598 13.1321 15.5384 13.2162C15.6171 13.3003 15.6859 13.3812 15.7449 13.4588C15.8039 13.5364 15.8334 13.5882 15.8334 13.6141C15.8334 13.6464 15.794 13.6949 15.7154 13.7596C15.6367 13.8243 15.545 13.889 15.4401 13.9537C15.3418 14.0248 15.2435 14.0863 15.1452 14.138C15.0535 14.1898 14.988 14.2156 14.9486 14.2156C14.929 14.2156 14.8798 14.1833 14.8012 14.1186C14.7291 14.0604 14.6537 13.9925 14.5751 13.9148C14.4964 13.8372 14.4244 13.7628 14.3588 13.6917C14.2998 13.6141 14.2703 13.5623 14.2703 13.5364C14.2703 13.5041 14.3129 13.4556 14.3981 13.3909C14.4833 13.3197 14.5751 13.2486 14.6734 13.1774C14.7782 13.0998 14.8765 13.0351 14.9683 12.9834C15.0666 12.9251 15.1256 12.8928 15.1452 12.8863Z" fill="#1E1E1E"/>
</svg>
