<svg width="956" height="240" viewBox="0 0 956 240" fill="none" xmlns="http://www.w3.org/2000/svg">
<g clip-path="url(#clip0_302_1428)">
<rect width="956" height="240" fill="#EEEEEE"/>
<g clip-path="url(#clip1_302_1428)">
<rect width="956" height="4811" fill="#FEFDEF"/>
<rect x="133" y="65" width="150.667" height="118" rx="9" fill="#EBF1DF"/>
<rect x="133" y="65" width="150.667" height="118" rx="9" stroke="#305529" stroke-width="2"/>
<path d="M217.758 86.0525L215.541 99.7733C215.166 102.083 214.98 103.239 214.137 103.927C212.337 105.397 205.079 105.317 203.379 103.927C202.536 103.239 202.349 102.083 201.975 99.7718L199.758 86.0525M199.833 86.0525L200.604 84.022C201.262 82.2904 202.397 80.8061 203.864 79.7604C205.331 78.7148 207.062 78.1559 208.833 78.1559C210.605 78.1559 212.336 78.7148 213.803 79.7604C215.27 80.8061 216.405 82.2904 217.062 84.022L217.833 86.0525M198.333 86.0525H219.333M208.833 86.0525L214.833 75M205.848 93.9471H205.863M207.363 100.263H207.378M210.363 97.105H210.378" stroke="#305529" stroke-width="2" stroke-linecap="round" stroke-linejoin="round"/>
<path d="M162.254 136.24C161.161 136.24 160.168 135.98 159.274 135.46C158.381 134.94 157.668 134.18 157.134 133.18C156.614 132.167 156.354 130.94 156.354 129.5C156.354 128.073 156.621 126.853 157.154 125.84C157.701 124.813 158.428 124.033 159.334 123.5C160.241 122.953 161.241 122.68 162.334 122.68C163.161 122.68 163.894 122.847 164.534 123.18C165.174 123.513 165.701 123.9 166.114 124.34L164.874 125.84C164.541 125.493 164.168 125.22 163.754 125.02C163.354 124.807 162.901 124.7 162.394 124.7C161.688 124.7 161.054 124.893 160.494 125.28C159.948 125.653 159.514 126.193 159.194 126.9C158.888 127.607 158.734 128.453 158.734 129.44C158.734 130.933 159.061 132.107 159.714 132.96C160.368 133.8 161.241 134.22 162.334 134.22C162.921 134.22 163.441 134.1 163.894 133.86C164.348 133.607 164.761 133.28 165.134 132.88L166.374 134.34C165.841 134.953 165.228 135.427 164.534 135.76C163.854 136.08 163.094 136.24 162.254 136.24ZM168.358 136V121.88H170.658V125.52L170.578 127.42C170.991 127.033 171.451 126.693 171.958 126.4C172.464 126.093 173.051 125.94 173.718 125.94C174.771 125.94 175.538 126.28 176.018 126.96C176.498 127.64 176.738 128.6 176.738 129.84V136H174.438V130.14C174.438 129.327 174.318 128.753 174.078 128.42C173.838 128.087 173.444 127.92 172.898 127.92C172.471 127.92 172.091 128.027 171.758 128.24C171.438 128.44 171.071 128.74 170.658 129.14V136H168.358ZM183.53 136.24C182.717 136.24 181.957 136.04 181.25 135.64C180.543 135.227 179.97 134.64 179.53 133.88C179.09 133.107 178.87 132.18 178.87 131.1C178.87 130.007 179.09 129.08 179.53 128.32C179.97 127.547 180.543 126.96 181.25 126.56C181.957 126.147 182.717 125.94 183.53 125.94C184.357 125.94 185.123 126.147 185.83 126.56C186.537 126.96 187.11 127.547 187.55 128.32C187.99 129.08 188.21 130.007 188.21 131.1C188.21 132.18 187.99 133.107 187.55 133.88C187.11 134.64 186.537 135.227 185.83 135.64C185.123 136.04 184.357 136.24 183.53 136.24ZM183.53 134.36C184.25 134.36 184.817 134.06 185.23 133.46C185.643 132.86 185.85 132.073 185.85 131.1C185.85 130.113 185.643 129.32 185.23 128.72C184.817 128.12 184.25 127.82 183.53 127.82C182.81 127.82 182.243 128.12 181.83 128.72C181.43 129.32 181.23 130.113 181.23 131.1C181.23 132.073 181.43 132.86 181.83 133.46C182.243 134.06 182.81 134.36 183.53 134.36ZM194.507 136.24C193.693 136.24 192.933 136.04 192.227 135.64C191.52 135.227 190.947 134.64 190.507 133.88C190.067 133.107 189.847 132.18 189.847 131.1C189.847 130.007 190.067 129.08 190.507 128.32C190.947 127.547 191.52 126.96 192.227 126.56C192.933 126.147 193.693 125.94 194.507 125.94C195.333 125.94 196.1 126.147 196.807 126.56C197.513 126.96 198.087 127.547 198.527 128.32C198.967 129.08 199.187 130.007 199.187 131.1C199.187 132.18 198.967 133.107 198.527 133.88C198.087 134.64 197.513 135.227 196.807 135.64C196.1 136.04 195.333 136.24 194.507 136.24ZM194.507 134.36C195.227 134.36 195.793 134.06 196.207 133.46C196.62 132.86 196.827 132.073 196.827 131.1C196.827 130.113 196.62 129.32 196.207 128.72C195.793 128.12 195.227 127.82 194.507 127.82C193.787 127.82 193.22 128.12 192.807 128.72C192.407 129.32 192.207 130.113 192.207 131.1C192.207 132.073 192.407 132.86 192.807 133.46C193.22 134.06 193.787 134.36 194.507 134.36ZM204.125 136.24C203.458 136.24 202.792 136.113 202.125 135.86C201.458 135.593 200.885 135.267 200.405 134.88L201.485 133.4C201.925 133.733 202.365 134 202.805 134.2C203.245 134.4 203.712 134.5 204.205 134.5C204.738 134.5 205.132 134.387 205.385 134.16C205.638 133.933 205.765 133.653 205.765 133.32C205.765 133.04 205.658 132.813 205.445 132.64C205.245 132.453 204.985 132.293 204.665 132.16C204.345 132.013 204.012 131.873 203.665 131.74C203.238 131.58 202.812 131.387 202.385 131.16C201.972 130.92 201.632 130.62 201.365 130.26C201.098 129.887 200.965 129.427 200.965 128.88C200.965 128.013 201.285 127.307 201.925 126.76C202.565 126.213 203.432 125.94 204.525 125.94C205.218 125.94 205.838 126.06 206.385 126.3C206.932 126.54 207.405 126.813 207.805 127.12L206.745 128.52C206.398 128.267 206.045 128.067 205.685 127.92C205.338 127.76 204.972 127.68 204.585 127.68C204.092 127.68 203.725 127.787 203.485 128C203.245 128.2 203.125 128.453 203.125 128.76C203.125 129.147 203.325 129.44 203.725 129.64C204.125 129.84 204.592 130.033 205.125 130.22C205.578 130.38 206.018 130.58 206.445 130.82C206.872 131.047 207.225 131.347 207.505 131.72C207.798 132.093 207.945 132.587 207.945 133.2C207.945 134.04 207.618 134.76 206.965 135.36C206.312 135.947 205.365 136.24 204.125 136.24ZM214.198 136.24C213.292 136.24 212.472 136.04 211.738 135.64C211.005 135.227 210.425 134.64 209.998 133.88C209.572 133.107 209.358 132.18 209.358 131.1C209.358 130.033 209.572 129.113 209.998 128.34C210.438 127.567 211.005 126.973 211.698 126.56C212.392 126.147 213.118 125.94 213.878 125.94C214.772 125.94 215.518 126.14 216.118 126.54C216.718 126.927 217.172 127.473 217.478 128.18C217.785 128.873 217.938 129.68 217.938 130.6C217.938 131.08 217.905 131.453 217.838 131.72H211.598C211.705 132.587 212.018 133.26 212.538 133.74C213.058 134.22 213.712 134.46 214.498 134.46C214.925 134.46 215.318 134.4 215.678 134.28C216.052 134.147 216.418 133.967 216.778 133.74L217.558 135.18C217.092 135.487 216.572 135.74 215.998 135.94C215.425 136.14 214.825 136.24 214.198 136.24ZM211.578 130.16H215.938C215.938 129.4 215.772 128.807 215.438 128.38C215.105 127.94 214.605 127.72 213.938 127.72C213.365 127.72 212.852 127.933 212.398 128.36C211.958 128.773 211.685 129.373 211.578 130.16ZM226.519 136V131.14L222.599 122.92H225.079L226.499 126.26C226.686 126.753 226.872 127.233 227.059 127.7C227.246 128.153 227.446 128.633 227.659 129.14H227.739C227.952 128.633 228.159 128.153 228.359 127.7C228.559 127.233 228.752 126.753 228.939 126.26L230.359 122.92H232.779L228.839 131.14V136H226.519ZM237.222 136.24C236.408 136.24 235.648 136.04 234.942 135.64C234.235 135.227 233.662 134.64 233.222 133.88C232.782 133.107 232.562 132.18 232.562 131.1C232.562 130.007 232.782 129.08 233.222 128.32C233.662 127.547 234.235 126.96 234.942 126.56C235.648 126.147 236.408 125.94 237.222 125.94C238.048 125.94 238.815 126.147 239.522 126.56C240.228 126.96 240.802 127.547 241.242 128.32C241.682 129.08 241.902 130.007 241.902 131.1C241.902 132.18 241.682 133.107 241.242 133.88C240.802 134.64 240.228 135.227 239.522 135.64C238.815 136.04 238.048 136.24 237.222 136.24ZM237.222 134.36C237.942 134.36 238.508 134.06 238.922 133.46C239.335 132.86 239.542 132.073 239.542 131.1C239.542 130.113 239.335 129.32 238.922 128.72C238.508 128.12 237.942 127.82 237.222 127.82C236.502 127.82 235.935 128.12 235.522 128.72C235.122 129.32 234.922 130.113 234.922 131.1C234.922 132.073 235.122 132.86 235.522 133.46C235.935 134.06 236.502 134.36 237.222 134.36ZM247.098 136.24C246.045 136.24 245.278 135.9 244.798 135.22C244.318 134.54 244.078 133.58 244.078 132.34V126.18H246.378V132.04C246.378 132.853 246.498 133.427 246.738 133.76C246.978 134.093 247.365 134.26 247.898 134.26C248.325 134.26 248.698 134.153 249.018 133.94C249.351 133.727 249.705 133.38 250.078 132.9V126.18H252.378V136H250.498L250.318 134.56H250.258C249.831 135.067 249.365 135.473 248.858 135.78C248.351 136.087 247.765 136.24 247.098 136.24ZM255.291 136V126.18H257.191L257.351 127.92H257.431C257.778 127.28 258.198 126.793 258.691 126.46C259.185 126.113 259.691 125.94 260.211 125.94C260.678 125.94 261.051 126.007 261.331 126.14L260.931 128.14C260.758 128.087 260.598 128.047 260.451 128.02C260.305 127.993 260.125 127.98 259.911 127.98C259.525 127.98 259.118 128.133 258.691 128.44C258.265 128.733 257.898 129.253 257.591 130V136H255.291ZM186.575 166V152.92H190.075C192.075 152.92 193.635 153.46 194.755 154.54C195.875 155.62 196.435 157.24 196.435 159.4C196.435 161.573 195.882 163.22 194.775 164.34C193.669 165.447 192.142 166 190.195 166H186.575ZM188.895 164.12H189.915C191.235 164.12 192.255 163.74 192.975 162.98C193.695 162.207 194.055 161.013 194.055 159.4C194.055 157.8 193.695 156.633 192.975 155.9C192.255 155.167 191.235 154.8 189.915 154.8H188.895V164.12ZM198.875 166V156.18H200.775L200.935 157.92H201.015C201.362 157.28 201.782 156.793 202.275 156.46C202.769 156.113 203.275 155.94 203.795 155.94C204.262 155.94 204.635 156.007 204.915 156.14L204.515 158.14C204.342 158.087 204.182 158.047 204.035 158.02C203.889 157.993 203.709 157.98 203.495 157.98C203.109 157.98 202.702 158.133 202.275 158.44C201.849 158.733 201.482 159.253 201.175 160V166H198.875ZM206.336 166V156.18H208.636V166H206.336ZM207.496 154.46C207.083 154.46 206.75 154.34 206.496 154.1C206.243 153.86 206.116 153.54 206.116 153.14C206.116 152.753 206.243 152.44 206.496 152.2C206.75 151.96 207.083 151.84 207.496 151.84C207.91 151.84 208.243 151.96 208.496 152.2C208.75 152.44 208.876 152.753 208.876 153.14C208.876 153.54 208.75 153.86 208.496 154.1C208.243 154.34 207.91 154.46 207.496 154.46ZM211.571 166V156.18H213.471L213.631 157.5H213.711C214.151 157.073 214.631 156.707 215.151 156.4C215.671 156.093 216.264 155.94 216.931 155.94C217.984 155.94 218.751 156.28 219.231 156.96C219.711 157.64 219.951 158.6 219.951 159.84V166H217.651V160.14C217.651 159.327 217.531 158.753 217.291 158.42C217.051 158.087 216.657 157.92 216.111 157.92C215.684 157.92 215.304 158.027 214.971 158.24C214.651 158.44 214.284 158.74 213.871 159.14V166H211.571ZM222.762 166V151.88H225.022V160.7H225.082L228.722 156.18H231.242L227.882 160.18L231.582 166H229.082L226.562 161.74L225.022 163.5V166H222.762Z" fill="#305529"/>
<path d="M291.333 124C291.333 126.946 293.721 129.333 296.667 129.333C299.612 129.333 302 126.946 302 124C302 121.054 299.612 118.667 296.667 118.667C293.721 118.667 291.333 121.054 291.333 124ZM390.374 124.707C390.764 124.317 390.764 123.683 390.374 123.293L384.01 116.929C383.619 116.538 382.986 116.538 382.595 116.929C382.205 117.319 382.205 117.953 382.595 118.343L388.252 124L382.595 129.657C382.205 130.047 382.205 130.681 382.595 131.071C382.986 131.462 383.619 131.462 384.01 131.071L390.374 124.707ZM296.667 125H389.667V123H296.667V125Z" fill="#305529"/>
<path d="M402.667 74C402.667 69.0294 406.696 65 411.667 65H544.333C549.304 65 553.333 69.0294 553.333 74V174C553.333 178.971 549.304 183 544.333 183H411.667C406.696 183 402.667 178.971 402.667 174V74Z" fill="#EBF1DF"/>
<path d="M402.667 74C402.667 69.0294 406.696 65 411.667 65H544.333C549.304 65 553.333 69.0294 553.333 74V174C553.333 178.971 549.304 183 544.333 183H411.667C406.696 183 402.667 178.971 402.667 174V74Z" stroke="#305529" stroke-width="2"/>
<path d="M466 83.9998V95.3683L478 103.579M466 83.9998L478 92.2104M466 83.9998L478 76.4209L490 83.9998M478 103.579V92.2104M478 103.579L490 95.3683V83.9998M478 92.2104L490 83.9998" stroke="#305529" stroke-width="2" stroke-linejoin="round"/>
<path d="M426.091 136.24C424.997 136.24 424.004 135.98 423.111 135.46C422.217 134.94 421.504 134.18 420.971 133.18C420.451 132.167 420.191 130.94 420.191 129.5C420.191 128.073 420.457 126.853 420.991 125.84C421.537 124.813 422.264 124.033 423.171 123.5C424.077 122.953 425.077 122.68 426.171 122.68C426.997 122.68 427.731 122.847 428.371 123.18C429.011 123.513 429.537 123.9 429.951 124.34L428.711 125.84C428.377 125.493 428.004 125.22 427.591 125.02C427.191 124.807 426.737 124.7 426.231 124.7C425.524 124.7 424.891 124.893 424.331 125.28C423.784 125.653 423.351 126.193 423.031 126.9C422.724 127.607 422.571 128.453 422.571 129.44C422.571 130.933 422.897 132.107 423.551 132.96C424.204 133.8 425.077 134.22 426.171 134.22C426.757 134.22 427.277 134.1 427.731 133.86C428.184 133.607 428.597 133.28 428.971 132.88L430.211 134.34C429.677 134.953 429.064 135.427 428.371 135.76C427.691 136.08 426.931 136.24 426.091 136.24ZM434.919 136.24C433.866 136.24 433.099 135.9 432.619 135.22C432.139 134.54 431.899 133.58 431.899 132.34V126.18H434.199V132.04C434.199 132.853 434.319 133.427 434.559 133.76C434.799 134.093 435.186 134.26 435.719 134.26C436.146 134.26 436.519 134.153 436.839 133.94C437.172 133.727 437.526 133.38 437.899 132.9V126.18H440.199V136H438.319L438.139 134.56H438.079C437.652 135.067 437.186 135.473 436.679 135.78C436.172 136.087 435.586 136.24 434.919 136.24ZM445.852 136.24C445.186 136.24 444.519 136.113 443.852 135.86C443.186 135.593 442.612 135.267 442.132 134.88L443.212 133.4C443.652 133.733 444.092 134 444.532 134.2C444.972 134.4 445.439 134.5 445.932 134.5C446.466 134.5 446.859 134.387 447.112 134.16C447.366 133.933 447.492 133.653 447.492 133.32C447.492 133.04 447.386 132.813 447.172 132.64C446.972 132.453 446.712 132.293 446.392 132.16C446.072 132.013 445.739 131.873 445.392 131.74C444.966 131.58 444.539 131.387 444.112 131.16C443.699 130.92 443.359 130.62 443.092 130.26C442.826 129.887 442.692 129.427 442.692 128.88C442.692 128.013 443.012 127.307 443.652 126.76C444.292 126.213 445.159 125.94 446.252 125.94C446.946 125.94 447.566 126.06 448.112 126.3C448.659 126.54 449.132 126.813 449.532 127.12L448.472 128.52C448.126 128.267 447.772 128.067 447.412 127.92C447.066 127.76 446.699 127.68 446.312 127.68C445.819 127.68 445.452 127.787 445.212 128C444.972 128.2 444.852 128.453 444.852 128.76C444.852 129.147 445.052 129.44 445.452 129.64C445.852 129.84 446.319 130.033 446.852 130.22C447.306 130.38 447.746 130.58 448.172 130.82C448.599 131.047 448.952 131.347 449.232 131.72C449.526 132.093 449.672 132.587 449.672 133.2C449.672 134.04 449.346 134.76 448.692 135.36C448.039 135.947 447.092 136.24 445.852 136.24ZM454.795 136.24C453.661 136.24 452.855 135.913 452.375 135.26C451.908 134.593 451.675 133.733 451.675 132.68V128H450.275V126.28L451.795 126.18L452.075 123.5H453.995V126.18H456.495V128H453.995V132.68C453.995 133.827 454.455 134.4 455.375 134.4C455.548 134.4 455.728 134.38 455.915 134.34C456.101 134.287 456.261 134.233 456.395 134.18L456.795 135.88C456.528 135.973 456.221 136.053 455.875 136.12C455.541 136.2 455.181 136.24 454.795 136.24ZM462.269 136.24C461.456 136.24 460.696 136.04 459.989 135.64C459.282 135.227 458.709 134.64 458.269 133.88C457.829 133.107 457.609 132.18 457.609 131.1C457.609 130.007 457.829 129.08 458.269 128.32C458.709 127.547 459.282 126.96 459.989 126.56C460.696 126.147 461.456 125.94 462.269 125.94C463.096 125.94 463.862 126.147 464.569 126.56C465.276 126.96 465.849 127.547 466.289 128.32C466.729 129.08 466.949 130.007 466.949 131.1C466.949 132.18 466.729 133.107 466.289 133.88C465.849 134.64 465.276 135.227 464.569 135.64C463.862 136.04 463.096 136.24 462.269 136.24ZM462.269 134.36C462.989 134.36 463.556 134.06 463.969 133.46C464.382 132.86 464.589 132.073 464.589 131.1C464.589 130.113 464.382 129.32 463.969 128.72C463.556 128.12 462.989 127.82 462.269 127.82C461.549 127.82 460.982 128.12 460.569 128.72C460.169 129.32 459.969 130.113 459.969 131.1C459.969 132.073 460.169 132.86 460.569 133.46C460.982 134.06 461.549 134.36 462.269 134.36ZM469.225 136V126.18H471.125L471.285 127.52H471.365C471.779 127.08 472.225 126.707 472.705 126.4C473.199 126.093 473.752 125.94 474.365 125.94C475.085 125.94 475.659 126.1 476.085 126.42C476.525 126.727 476.859 127.153 477.085 127.7C477.552 127.193 478.039 126.773 478.545 126.44C479.065 126.107 479.632 125.94 480.245 125.94C481.285 125.94 482.052 126.28 482.545 126.96C483.039 127.64 483.285 128.6 483.285 129.84V136H480.965V130.14C480.965 129.327 480.839 128.753 480.585 128.42C480.345 128.087 479.972 127.92 479.465 127.92C478.852 127.92 478.165 128.327 477.405 129.14V136H475.105V130.14C475.105 129.327 474.979 128.753 474.725 128.42C474.485 128.087 474.105 127.92 473.585 127.92C472.972 127.92 472.285 128.327 471.525 129.14V136H469.225ZM486.081 136V126.18H488.381V136H486.081ZM487.241 124.46C486.828 124.46 486.494 124.34 486.241 124.1C485.988 123.86 485.861 123.54 485.861 123.14C485.861 122.753 485.988 122.44 486.241 122.2C486.494 121.96 486.828 121.84 487.241 121.84C487.654 121.84 487.988 121.96 488.241 122.2C488.494 122.44 488.621 122.753 488.621 123.14C488.621 123.54 488.494 123.86 488.241 124.1C487.988 124.34 487.654 124.46 487.241 124.46ZM490.535 136V134.76L495.175 128H491.055V126.18H498.055V127.4L493.435 134.16H498.215V136H490.535ZM504.187 136.24C503.281 136.24 502.461 136.04 501.727 135.64C500.994 135.227 500.414 134.64 499.987 133.88C499.561 133.107 499.347 132.18 499.347 131.1C499.347 130.033 499.561 129.113 499.987 128.34C500.427 127.567 500.994 126.973 501.687 126.56C502.381 126.147 503.107 125.94 503.867 125.94C504.761 125.94 505.507 126.14 506.107 126.54C506.707 126.927 507.161 127.473 507.467 128.18C507.774 128.873 507.927 129.68 507.927 130.6C507.927 131.08 507.894 131.453 507.827 131.72H501.587C501.694 132.587 502.007 133.26 502.527 133.74C503.047 134.22 503.701 134.46 504.487 134.46C504.914 134.46 505.307 134.4 505.667 134.28C506.041 134.147 506.407 133.967 506.767 133.74L507.547 135.18C507.081 135.487 506.561 135.74 505.987 135.94C505.414 136.14 504.814 136.24 504.187 136.24ZM501.567 130.16H505.927C505.927 129.4 505.761 128.807 505.427 128.38C505.094 127.94 504.594 127.72 503.927 127.72C503.354 127.72 502.841 127.933 502.387 128.36C501.947 128.773 501.674 129.373 501.567 130.16ZM514.128 136V126.18H516.428V136H514.128ZM515.288 124.46C514.874 124.46 514.541 124.34 514.288 124.1C514.034 123.86 513.908 123.54 513.908 123.14C513.908 122.753 514.034 122.44 514.288 122.2C514.541 121.96 514.874 121.84 515.288 121.84C515.701 121.84 516.034 121.96 516.288 122.2C516.541 122.44 516.668 122.753 516.668 123.14C516.668 123.54 516.541 123.86 516.288 124.1C516.034 124.34 515.701 124.46 515.288 124.46ZM523.462 136.24C522.569 136.24 521.762 136.04 521.042 135.64C520.336 135.227 519.769 134.64 519.342 133.88C518.929 133.107 518.722 132.18 518.722 131.1C518.722 130.007 518.949 129.08 519.402 128.32C519.856 127.547 520.456 126.96 521.202 126.56C521.962 126.147 522.776 125.94 523.642 125.94C524.269 125.94 524.816 126.047 525.282 126.26C525.749 126.473 526.162 126.733 526.522 127.04L525.402 128.54C525.149 128.313 524.889 128.14 524.622 128.02C524.356 127.887 524.069 127.82 523.762 127.82C522.976 127.82 522.329 128.12 521.822 128.72C521.329 129.32 521.082 130.113 521.082 131.1C521.082 132.073 521.322 132.86 521.802 133.46C522.296 134.06 522.929 134.36 523.702 134.36C524.089 134.36 524.449 134.28 524.782 134.12C525.129 133.947 525.442 133.747 525.722 133.52L526.662 135.04C526.209 135.44 525.702 135.74 525.142 135.94C524.582 136.14 524.022 136.24 523.462 136.24ZM532.312 136.24C531.406 136.24 530.586 136.04 529.852 135.64C529.119 135.227 528.539 134.64 528.112 133.88C527.686 133.107 527.472 132.18 527.472 131.1C527.472 130.033 527.686 129.113 528.112 128.34C528.552 127.567 529.119 126.973 529.812 126.56C530.506 126.147 531.232 125.94 531.992 125.94C532.886 125.94 533.632 126.14 534.232 126.54C534.832 126.927 535.286 127.473 535.592 128.18C535.899 128.873 536.052 129.68 536.052 130.6C536.052 131.08 536.019 131.453 535.952 131.72H529.712C529.819 132.587 530.132 133.26 530.652 133.74C531.172 134.22 531.826 134.46 532.612 134.46C533.039 134.46 533.432 134.4 533.792 134.28C534.166 134.147 534.532 133.967 534.892 133.74L535.672 135.18C535.206 135.487 534.686 135.74 534.112 135.94C533.539 136.14 532.939 136.24 532.312 136.24ZM529.692 130.16H534.052C534.052 129.4 533.886 128.807 533.552 128.38C533.219 127.94 532.719 127.72 532.052 127.72C531.479 127.72 530.966 127.933 530.512 128.36C530.072 128.773 529.799 129.373 529.692 130.16ZM427.521 155.92C427.521 156.213 427.567 156.52 427.661 156.84C427.754 157.16 427.881 157.493 428.041 157.84C428.587 157.493 429.047 157.14 429.421 156.78C429.794 156.42 429.981 155.987 429.981 155.48C429.981 155.133 429.901 154.84 429.741 154.6C429.581 154.36 429.307 154.24 428.921 154.24C428.507 154.24 428.167 154.393 427.901 154.7C427.647 155.007 427.521 155.413 427.521 155.92ZM428.121 166.24C427.254 166.24 426.507 166.08 425.881 165.76C425.254 165.427 424.774 164.987 424.441 164.44C424.107 163.88 423.941 163.253 423.941 162.56C423.941 161.96 424.054 161.433 424.281 160.98C424.521 160.527 424.827 160.127 425.201 159.78C425.587 159.433 426.001 159.113 426.441 158.82C426.174 158.313 425.967 157.82 425.821 157.34C425.674 156.86 425.601 156.393 425.601 155.94C425.601 155.34 425.734 154.793 426.001 154.3C426.281 153.807 426.667 153.413 427.161 153.12C427.654 152.827 428.234 152.68 428.901 152.68C429.794 152.68 430.494 152.94 431.001 153.46C431.521 153.967 431.781 154.633 431.781 155.46C431.781 156.033 431.641 156.547 431.361 157C431.094 157.44 430.741 157.847 430.301 158.22C429.874 158.58 429.421 158.927 428.941 159.26C429.341 159.793 429.794 160.32 430.301 160.84C430.821 161.36 431.361 161.833 431.921 162.26C432.281 161.78 432.601 161.253 432.881 160.68C433.174 160.093 433.407 159.46 433.581 158.78H435.701C435.461 159.593 435.154 160.387 434.781 161.16C434.407 161.92 433.967 162.64 433.461 163.32C433.887 163.573 434.301 163.793 434.701 163.98C435.101 164.167 435.474 164.293 435.821 164.36L435.241 166.24C434.747 166.12 434.227 165.947 433.681 165.72C433.147 165.48 432.607 165.187 432.061 164.84C431.541 165.267 430.954 165.607 430.301 165.86C429.647 166.113 428.921 166.24 428.121 166.24ZM426.141 162.42C426.141 163.033 426.354 163.527 426.781 163.9C427.207 164.273 427.747 164.46 428.401 164.46C428.761 164.46 429.114 164.393 429.461 164.26C429.821 164.113 430.167 163.92 430.501 163.68C429.927 163.187 429.374 162.66 428.841 162.1C428.307 161.54 427.827 160.967 427.401 160.38C427.027 160.673 426.721 160.987 426.481 161.32C426.254 161.653 426.141 162.02 426.141 162.42ZM444.358 166.24C443.691 166.24 443.025 166.113 442.358 165.86C441.691 165.593 441.118 165.267 440.638 164.88L441.718 163.4C442.158 163.733 442.598 164 443.038 164.2C443.478 164.4 443.945 164.5 444.438 164.5C444.971 164.5 445.365 164.387 445.618 164.16C445.871 163.933 445.998 163.653 445.998 163.32C445.998 163.04 445.891 162.813 445.678 162.64C445.478 162.453 445.218 162.293 444.898 162.16C444.578 162.013 444.245 161.873 443.898 161.74C443.471 161.58 443.045 161.387 442.618 161.16C442.205 160.92 441.865 160.62 441.598 160.26C441.331 159.887 441.198 159.427 441.198 158.88C441.198 158.013 441.518 157.307 442.158 156.76C442.798 156.213 443.665 155.94 444.758 155.94C445.451 155.94 446.071 156.06 446.618 156.3C447.165 156.54 447.638 156.813 448.038 157.12L446.978 158.52C446.631 158.267 446.278 158.067 445.918 157.92C445.571 157.76 445.205 157.68 444.818 157.68C444.325 157.68 443.958 157.787 443.718 158C443.478 158.2 443.358 158.453 443.358 158.76C443.358 159.147 443.558 159.44 443.958 159.64C444.358 159.84 444.825 160.033 445.358 160.22C445.811 160.38 446.251 160.58 446.678 160.82C447.105 161.047 447.458 161.347 447.738 161.72C448.031 162.093 448.178 162.587 448.178 163.2C448.178 164.04 447.851 164.76 447.198 165.36C446.545 165.947 445.598 166.24 444.358 166.24ZM453.151 166.24C452.098 166.24 451.331 165.9 450.851 165.22C450.371 164.54 450.131 163.58 450.131 162.34V156.18H452.431V162.04C452.431 162.853 452.551 163.427 452.791 163.76C453.031 164.093 453.418 164.26 453.951 164.26C454.378 164.26 454.751 164.153 455.071 163.94C455.405 163.727 455.758 163.38 456.131 162.9V156.18H458.431V166H456.551L456.371 164.56H456.311C455.885 165.067 455.418 165.473 454.911 165.78C454.405 166.087 453.818 166.24 453.151 166.24ZM464.765 170.34C463.991 170.34 463.291 170.247 462.665 170.06C462.051 169.873 461.565 169.587 461.205 169.2C460.858 168.827 460.685 168.353 460.685 167.78C460.685 166.967 461.151 166.267 462.085 165.68V165.6C461.831 165.44 461.618 165.227 461.445 164.96C461.285 164.693 461.205 164.36 461.205 163.96C461.205 163.573 461.311 163.227 461.525 162.92C461.751 162.6 462.005 162.34 462.285 162.14V162.06C461.951 161.807 461.651 161.453 461.385 161C461.131 160.547 461.005 160.033 461.005 159.46C461.005 158.7 461.185 158.06 461.545 157.54C461.905 157.02 462.378 156.627 462.965 156.36C463.565 156.08 464.205 155.94 464.885 155.94C465.151 155.94 465.405 155.967 465.645 156.02C465.898 156.06 466.125 156.113 466.325 156.18H469.845V157.88H468.045C468.205 158.067 468.338 158.307 468.445 158.6C468.551 158.88 468.605 159.193 468.605 159.54C468.605 160.26 468.438 160.873 468.105 161.38C467.771 161.873 467.325 162.247 466.765 162.5C466.205 162.753 465.578 162.88 464.885 162.88C464.671 162.88 464.451 162.86 464.225 162.82C463.998 162.78 463.771 162.713 463.545 162.62C463.398 162.753 463.278 162.887 463.185 163.02C463.105 163.153 463.065 163.333 463.065 163.56C463.065 163.84 463.178 164.06 463.405 164.22C463.645 164.38 464.065 164.46 464.665 164.46H466.405C467.591 164.46 468.485 164.653 469.085 165.04C469.698 165.413 470.005 166.027 470.005 166.88C470.005 167.52 469.791 168.1 469.365 168.62C468.938 169.153 468.331 169.573 467.545 169.88C466.758 170.187 465.831 170.34 464.765 170.34ZM464.885 161.44C465.351 161.44 465.751 161.267 466.085 160.92C466.418 160.573 466.585 160.087 466.585 159.46C466.585 158.847 466.418 158.373 466.085 158.04C465.765 157.693 465.365 157.52 464.885 157.52C464.405 157.52 463.998 157.687 463.665 158.02C463.331 158.353 463.165 158.833 463.165 159.46C463.165 160.087 463.331 160.573 463.665 160.92C463.998 161.267 464.405 161.44 464.885 161.44ZM465.125 168.84C465.911 168.84 466.551 168.68 467.045 168.36C467.538 168.04 467.785 167.673 467.785 167.26C467.785 166.873 467.631 166.613 467.325 166.48C467.031 166.347 466.605 166.28 466.045 166.28H464.705C464.171 166.28 463.725 166.233 463.365 166.14C462.858 166.527 462.605 166.96 462.605 167.44C462.605 167.88 462.831 168.22 463.285 168.46C463.738 168.713 464.351 168.84 465.125 168.84ZM473.764 166.24C472.91 166.24 472.21 165.973 471.664 165.44C471.13 164.907 470.864 164.213 470.864 163.36C470.864 162.307 471.324 161.493 472.244 160.92C473.164 160.333 474.63 159.933 476.644 159.72C476.63 159.2 476.49 158.753 476.224 158.38C475.97 157.993 475.51 157.8 474.844 157.8C474.364 157.8 473.89 157.893 473.424 158.08C472.97 158.267 472.524 158.493 472.084 158.76L471.244 157.22C471.79 156.873 472.404 156.573 473.084 156.32C473.777 156.067 474.51 155.94 475.284 155.94C476.51 155.94 477.424 156.307 478.024 157.04C478.637 157.76 478.944 158.807 478.944 160.18V166H477.044L476.884 164.92H476.804C476.364 165.293 475.89 165.607 475.384 165.86C474.89 166.113 474.35 166.24 473.764 166.24ZM474.504 164.44C474.904 164.44 475.264 164.347 475.584 164.16C475.917 163.96 476.27 163.693 476.644 163.36V161.16C475.31 161.333 474.384 161.593 473.864 161.94C473.344 162.273 473.084 162.687 473.084 163.18C473.084 163.62 473.217 163.94 473.484 164.14C473.75 164.34 474.09 164.44 474.504 164.44ZM481.696 166V156.18H483.596L483.756 157.92H483.836C484.183 157.28 484.603 156.793 485.096 156.46C485.589 156.113 486.096 155.94 486.616 155.94C487.083 155.94 487.456 156.007 487.736 156.14L487.336 158.14C487.163 158.087 487.003 158.047 486.856 158.02C486.709 157.993 486.529 157.98 486.316 157.98C485.929 157.98 485.523 158.133 485.096 158.44C484.669 158.733 484.303 159.253 483.996 160V166H481.696ZM495.401 166.24C494.588 166.24 494.008 165.993 493.661 165.5C493.328 165.007 493.161 164.333 493.161 163.48V151.88H495.461V163.6C495.461 163.88 495.514 164.08 495.621 164.2C495.728 164.307 495.841 164.36 495.961 164.36C496.014 164.36 496.061 164.36 496.101 164.36C496.154 164.347 496.228 164.333 496.321 164.32L496.621 166.04C496.488 166.093 496.314 166.14 496.101 166.18C495.901 166.22 495.668 166.24 495.401 166.24ZM502.791 166.24C501.884 166.24 501.064 166.04 500.331 165.64C499.597 165.227 499.017 164.64 498.591 163.88C498.164 163.107 497.951 162.18 497.951 161.1C497.951 160.033 498.164 159.113 498.591 158.34C499.031 157.567 499.597 156.973 500.291 156.56C500.984 156.147 501.711 155.94 502.471 155.94C503.364 155.94 504.111 156.14 504.711 156.54C505.311 156.927 505.764 157.473 506.071 158.18C506.377 158.873 506.531 159.68 506.531 160.6C506.531 161.08 506.497 161.453 506.431 161.72H500.191C500.297 162.587 500.611 163.26 501.131 163.74C501.651 164.22 502.304 164.46 503.091 164.46C503.517 164.46 503.911 164.4 504.271 164.28C504.644 164.147 505.011 163.967 505.371 163.74L506.151 165.18C505.684 165.487 505.164 165.74 504.591 165.94C504.017 166.14 503.417 166.24 502.791 166.24ZM500.171 160.16H504.531C504.531 159.4 504.364 158.807 504.031 158.38C503.697 157.94 503.197 157.72 502.531 157.72C501.957 157.72 501.444 157.933 500.991 158.36C500.551 158.773 500.277 159.373 500.171 160.16ZM510.927 166L507.507 156.18H509.847L511.407 161.28C511.541 161.76 511.674 162.247 511.807 162.74C511.954 163.233 512.094 163.733 512.227 164.24H512.307C512.454 163.733 512.594 163.233 512.727 162.74C512.874 162.247 513.014 161.76 513.147 161.28L514.707 156.18H516.927L513.587 166H510.927ZM522.713 166.24C521.806 166.24 520.986 166.04 520.253 165.64C519.519 165.227 518.939 164.64 518.513 163.88C518.086 163.107 517.873 162.18 517.873 161.1C517.873 160.033 518.086 159.113 518.513 158.34C518.953 157.567 519.519 156.973 520.213 156.56C520.906 156.147 521.633 155.94 522.393 155.94C523.286 155.94 524.033 156.14 524.633 156.54C525.233 156.927 525.686 157.473 525.993 158.18C526.299 158.873 526.453 159.68 526.453 160.6C526.453 161.08 526.419 161.453 526.353 161.72H520.113C520.219 162.587 520.533 163.26 521.053 163.74C521.573 164.22 522.226 164.46 523.013 164.46C523.439 164.46 523.833 164.4 524.193 164.28C524.566 164.147 524.933 163.967 525.293 163.74L526.073 165.18C525.606 165.487 525.086 165.74 524.513 165.94C523.939 166.14 523.339 166.24 522.713 166.24ZM520.093 160.16H524.453C524.453 159.4 524.286 158.807 523.953 158.38C523.619 157.94 523.119 157.72 522.453 157.72C521.879 157.72 521.366 157.933 520.913 158.36C520.473 158.773 520.199 159.373 520.093 160.16ZM530.889 166.24C530.076 166.24 529.496 165.993 529.149 165.5C528.816 165.007 528.649 164.333 528.649 163.48V151.88H530.949V163.6C530.949 163.88 531.003 164.08 531.109 164.2C531.216 164.307 531.329 164.36 531.449 164.36C531.503 164.36 531.549 164.36 531.589 164.36C531.643 164.347 531.716 164.333 531.809 164.32L532.109 166.04C531.976 166.093 531.803 166.14 531.589 166.18C531.389 166.22 531.156 166.24 530.889 166.24Z" fill="#305529"/>
<path d="M561 124C561 126.946 563.388 129.333 566.333 129.333C569.279 129.333 571.667 126.946 571.667 124C571.667 121.054 569.279 118.667 566.333 118.667C563.388 118.667 561 121.054 561 124ZM660.041 124.707C660.431 124.317 660.431 123.683 660.041 123.293L653.677 116.929C653.286 116.538 652.653 116.538 652.262 116.929C651.872 117.319 651.872 117.953 652.262 118.343L657.919 124L652.262 129.657C651.872 130.047 651.872 130.681 652.262 131.071C652.653 131.462 653.286 131.462 653.677 131.071L660.041 124.707ZM566.333 125H659.333V123H566.333V125Z" fill="#305529"/>
<path d="M672.333 74C672.333 69.0294 676.363 65 681.333 65H814C818.971 65 823 69.0294 823 74V174C823 178.971 818.971 183 814 183H681.334C676.363 183 672.333 178.971 672.333 174V74Z" fill="#EBF1DF"/>
<path d="M672.333 74C672.333 69.0294 676.363 65 681.333 65H814C818.971 65 823 69.0294 823 74V174C823 178.971 818.971 183 814 183H681.334C676.363 183 672.333 178.971 672.333 174V74Z" stroke="#305529" stroke-width="2"/>
<circle cx="747.667" cy="90" r="12" stroke="#305529" stroke-width="2"/>
<path d="M741.437 87.1642C742.52 85.9374 743.117 85.7559 744.008 86.0693C744.67 86.3022 745.276 86.6032 745.721 87.2631" stroke="#305529" stroke-width="2" stroke-linecap="round"/>
<path d="M749.667 87.1642C750.75 85.9374 751.347 85.7559 752.238 86.0693C752.9 86.3022 753.506 86.6032 753.951 87.2631" stroke="#305529" stroke-width="2" stroke-linecap="round"/>
<path d="M742.549 94.4731C743.409 96.3796 745.717 96.9965 747.296 97.0099C748.817 97.0229 752.765 96.3166 752.505 93.54" stroke="#305529" stroke-width="2" stroke-linecap="round"/>
<path d="M705.623 133.82V136H695.123V122H705.343V124.18H697.723V127.82H704.483V129.96H697.723V133.82H705.623ZM714.341 125.2C715.688 125.2 716.768 125.593 717.581 126.38C718.395 127.167 718.801 128.333 718.801 129.88V136H716.301V130.2C716.301 129.267 716.081 128.567 715.641 128.1C715.201 127.62 714.575 127.38 713.761 127.38C712.841 127.38 712.115 127.66 711.581 128.22C711.048 128.767 710.781 129.56 710.781 130.6V136H708.281V125.32H710.661V126.7C711.075 126.207 711.595 125.833 712.221 125.58C712.848 125.327 713.555 125.2 714.341 125.2ZM720.873 140.02C719.82 140.02 719.02 139.813 718.473 139.4L719.193 137.54C719.566 137.82 720.053 137.96 720.653 137.96C721.12 137.96 721.473 137.813 721.713 137.52C721.966 137.24 722.093 136.82 722.093 136.26V125.32H724.593V136.2C724.593 137.387 724.266 138.32 723.613 139C722.96 139.68 722.046 140.02 720.873 140.02ZM723.333 123.56C722.88 123.56 722.5 123.42 722.193 123.14C721.886 122.847 721.733 122.487 721.733 122.06C721.733 121.633 721.886 121.28 722.193 121C722.5 120.707 722.88 120.56 723.333 120.56C723.786 120.56 724.166 120.7 724.473 120.98C724.78 121.247 724.933 121.587 724.933 122C724.933 122.44 724.78 122.813 724.473 123.12C724.18 123.413 723.8 123.56 723.333 123.56ZM732.671 136.14C731.591 136.14 730.618 135.907 729.751 135.44C728.885 134.973 728.205 134.327 727.711 133.5C727.231 132.66 726.991 131.713 726.991 130.66C726.991 129.607 727.231 128.667 727.711 127.84C728.205 127.013 728.885 126.367 729.751 125.9C730.618 125.433 731.591 125.2 732.671 125.2C733.765 125.2 734.745 125.433 735.611 125.9C736.478 126.367 737.151 127.013 737.631 127.84C738.125 128.667 738.371 129.607 738.371 130.66C738.371 131.713 738.125 132.66 737.631 133.5C737.151 134.327 736.478 134.973 735.611 135.44C734.745 135.907 733.765 136.14 732.671 136.14ZM732.671 134C733.591 134 734.351 133.693 734.951 133.08C735.551 132.467 735.851 131.66 735.851 130.66C735.851 129.66 735.551 128.853 734.951 128.24C734.351 127.627 733.591 127.32 732.671 127.32C731.751 127.32 730.991 127.627 730.391 128.24C729.805 128.853 729.511 129.66 729.511 130.66C729.511 131.66 729.805 132.467 730.391 133.08C730.991 133.693 731.751 134 732.671 134ZM750.469 125.32L745.469 136.86C745.002 138.02 744.436 138.833 743.769 139.3C743.102 139.78 742.296 140.02 741.349 140.02C740.816 140.02 740.289 139.933 739.769 139.76C739.249 139.587 738.822 139.347 738.489 139.04L739.489 137.2C739.729 137.427 740.009 137.607 740.329 137.74C740.662 137.873 740.996 137.94 741.329 137.94C741.769 137.94 742.129 137.827 742.409 137.6C742.702 137.373 742.969 136.993 743.209 136.46L743.389 136.04L738.729 125.32H741.329L744.689 133.22L748.069 125.32H750.469ZM767.559 125.32L762.559 136.86C762.092 138.02 761.525 138.833 760.859 139.3C760.192 139.78 759.385 140.02 758.439 140.02C757.905 140.02 757.379 139.933 756.859 139.76C756.339 139.587 755.912 139.347 755.579 139.04L756.579 137.2C756.819 137.427 757.099 137.607 757.419 137.74C757.752 137.873 758.085 137.94 758.419 137.94C758.859 137.94 759.219 137.827 759.499 137.6C759.792 137.373 760.059 136.993 760.299 136.46L760.479 136.04L755.819 125.32H758.419L761.779 133.22L765.159 125.32H767.559ZM773.628 136.14C772.548 136.14 771.575 135.907 770.708 135.44C769.842 134.973 769.162 134.327 768.668 133.5C768.188 132.66 767.948 131.713 767.948 130.66C767.948 129.607 768.188 128.667 768.668 127.84C769.162 127.013 769.842 126.367 770.708 125.9C771.575 125.433 772.548 125.2 773.628 125.2C774.722 125.2 775.702 125.433 776.568 125.9C777.435 126.367 778.108 127.013 778.588 127.84C779.082 128.667 779.328 129.607 779.328 130.66C779.328 131.713 779.082 132.66 778.588 133.5C778.108 134.327 777.435 134.973 776.568 135.44C775.702 135.907 774.722 136.14 773.628 136.14ZM773.628 134C774.548 134 775.308 133.693 775.908 133.08C776.508 132.467 776.808 131.66 776.808 130.66C776.808 129.66 776.508 128.853 775.908 128.24C775.308 127.627 774.548 127.32 773.628 127.32C772.708 127.32 771.948 127.627 771.348 128.24C770.762 128.853 770.468 129.66 770.468 130.66C770.468 131.66 770.762 132.467 771.348 133.08C771.948 133.693 772.708 134 773.628 134ZM792.059 125.32V136H789.679V134.64C789.279 135.12 788.779 135.493 788.179 135.76C787.579 136.013 786.932 136.14 786.239 136.14C784.812 136.14 783.686 135.747 782.859 134.96C782.046 134.16 781.639 132.98 781.639 131.42V125.32H784.139V131.08C784.139 132.04 784.352 132.76 784.779 133.24C785.219 133.707 785.839 133.94 786.639 133.94C787.532 133.94 788.239 133.667 788.759 133.12C789.292 132.56 789.559 131.76 789.559 130.72V125.32H792.059ZM797.712 126.88C798.432 125.76 799.699 125.2 801.512 125.2V127.58C801.299 127.54 801.106 127.52 800.932 127.52C799.959 127.52 799.199 127.807 798.652 128.38C798.106 128.94 797.832 129.753 797.832 130.82V136H795.332V125.32H797.712V126.88ZM724.308 151.16V166H721.908V164.62C721.495 165.127 720.981 165.507 720.368 165.76C719.768 166.013 719.101 166.14 718.368 166.14C717.341 166.14 716.415 165.913 715.588 165.46C714.775 165.007 714.135 164.367 713.668 163.54C713.201 162.7 712.968 161.74 712.968 160.66C712.968 159.58 713.201 158.627 713.668 157.8C714.135 156.973 714.775 156.333 715.588 155.88C716.415 155.427 717.341 155.2 718.368 155.2C719.075 155.2 719.721 155.32 720.308 155.56C720.895 155.8 721.395 156.16 721.808 156.64V151.16H724.308ZM718.668 164C719.268 164 719.808 163.867 720.288 163.6C720.768 163.32 721.148 162.927 721.428 162.42C721.708 161.913 721.848 161.327 721.848 160.66C721.848 159.993 721.708 159.407 721.428 158.9C721.148 158.393 720.768 158.007 720.288 157.74C719.808 157.46 719.268 157.32 718.668 157.32C718.068 157.32 717.528 157.46 717.048 157.74C716.568 158.007 716.188 158.393 715.908 158.9C715.628 159.407 715.488 159.993 715.488 160.66C715.488 161.327 715.628 161.913 715.908 162.42C716.188 162.927 716.568 163.32 717.048 163.6C717.528 163.867 718.068 164 718.668 164ZM729.958 156.88C730.678 155.76 731.945 155.2 733.758 155.2V157.58C733.545 157.54 733.352 157.52 733.178 157.52C732.205 157.52 731.445 157.807 730.898 158.38C730.352 158.94 730.078 159.753 730.078 160.82V166H727.578V155.32H729.958V156.88ZM735.879 155.32H738.379V166H735.879V155.32ZM737.139 153.56C736.686 153.56 736.306 153.42 735.999 153.14C735.692 152.847 735.539 152.487 735.539 152.06C735.539 151.633 735.692 151.28 735.999 151C736.306 150.707 736.686 150.56 737.139 150.56C737.592 150.56 737.972 150.7 738.279 150.98C738.586 151.247 738.739 151.587 738.739 152C738.739 152.44 738.586 152.813 738.279 153.12C737.986 153.413 737.606 153.56 737.139 153.56ZM747.72 155.2C749.067 155.2 750.147 155.593 750.96 156.38C751.774 157.167 752.18 158.333 752.18 159.88V166H749.68V160.2C749.68 159.267 749.46 158.567 749.02 158.1C748.58 157.62 747.954 157.38 747.14 157.38C746.22 157.38 745.494 157.66 744.96 158.22C744.427 158.767 744.16 159.56 744.16 160.6V166H741.66V155.32H744.04V156.7C744.454 156.207 744.974 155.833 745.6 155.58C746.227 155.327 746.934 155.2 747.72 155.2ZM759.712 161.42L757.852 163.18V166H755.352V151.16H757.852V160.12L763.032 155.32H766.032L761.572 159.8L766.452 166H763.412L759.712 161.42ZM767.747 152H770.707L770.207 161.36H768.227L767.747 152ZM769.227 166.14C768.76 166.14 768.373 165.993 768.067 165.7C767.76 165.393 767.607 165.02 767.607 164.58C767.607 164.14 767.76 163.773 768.067 163.48C768.373 163.187 768.76 163.04 769.227 163.04C769.68 163.04 770.053 163.187 770.347 163.48C770.653 163.773 770.807 164.14 770.807 164.58C770.807 165.02 770.653 165.393 770.347 165.7C770.053 165.993 769.68 166.14 769.227 166.14ZM773.313 152H776.273L775.773 161.36H773.793L773.313 152ZM774.793 166.14C774.326 166.14 773.94 165.993 773.633 165.7C773.326 165.393 773.173 165.02 773.173 164.58C773.173 164.14 773.326 163.773 773.633 163.48C773.94 163.187 774.326 163.04 774.793 163.04C775.246 163.04 775.62 163.187 775.913 163.48C776.22 163.773 776.373 164.14 776.373 164.58C776.373 165.02 776.22 165.393 775.913 165.7C775.62 165.993 775.246 166.14 774.793 166.14ZM778.879 152H781.839L781.339 161.36H779.359L778.879 152ZM780.359 166.14C779.893 166.14 779.506 165.993 779.199 165.7C778.893 165.393 778.739 165.02 778.739 164.58C778.739 164.14 778.893 163.773 779.199 163.48C779.506 163.187 779.893 163.04 780.359 163.04C780.813 163.04 781.186 163.187 781.479 163.48C781.786 163.773 781.939 164.14 781.939 164.58C781.939 165.02 781.786 165.393 781.479 165.7C781.186 165.993 780.813 166.14 780.359 166.14Z" fill="#305529"/>
</g>
</g>
<defs>
<clipPath id="clip0_302_1428">
<rect width="956" height="240" fill="white"/>
</clipPath>
<clipPath id="clip1_302_1428">
<rect width="956" height="4811" fill="white"/>
</clipPath>
</defs>
</svg>
