<svg width="38" height="32" viewBox="0 0 38 32" fill="none" xmlns="http://www.w3.org/2000/svg">
<path d="M0 32V21.4815C0 17.4321 0.674075 13.679 2.02222 10.2222C3.47407 6.76543 5.91111 3.35802 9.33333 0L15.4 4.29629C12.7037 7.16049 10.837 9.77778 9.8 12.1482C8.86667 14.4198 8.4 16.8395 8.4 19.4074L4.66667 16.8889H15.8667V32H0ZM22.1333 32V21.4815C22.1333 17.4321 22.8074 13.679 24.1556 10.2222C25.6074 6.76543 28.0444 3.35802 31.4667 0L37.5333 4.29629C34.837 7.16049 32.9704 9.77778 31.9333 12.1482C31 14.4198 30.5333 16.8395 30.5333 19.4074L26.8 16.8889H38V32H22.1333Z" fill="#DDDDDD"/>
</svg>
