<svg width="200" height="172" viewBox="0 0 200 172" fill="none" xmlns="http://www.w3.org/2000/svg">
<g filter="url(#filter0_dd_230_2993)">
<rect x="12" width="180" height="150" fill="#FFF3C8"/>
</g>
<rect x="12" width="180" height="26.3415" fill="#FFF1BD"/>
<path d="M33.5185 60.0088C33.2586 60.0145 33.0112 59.8639 32.7765 59.557C32.5586 59.2324 32.39 58.8201 32.2708 58.3199C32.1684 57.8021 32.1261 57.2655 32.144 56.7104C32.1272 56.156 32.1398 55.7136 32.1818 55.3833C32.2406 55.0352 32.2997 54.6959 32.359 54.3651C32.4078 54.26 32.4312 54.1729 32.4291 54.1036C32.4443 54.0339 32.4582 53.9209 32.4708 53.7646C32.5008 53.6079 32.5535 53.3467 32.6292 52.9809C32.6896 52.6849 32.7515 52.4408 32.8151 52.2487C32.8786 52.0566 32.944 51.9251 33.0112 51.8543C33.0947 51.7484 33.2055 51.6853 33.3436 51.6649C33.4812 51.6272 33.6201 51.6328 33.7603 51.6818C33.9005 51.7307 34.016 51.8235 34.1069 51.9602C34.2135 52.0445 34.2715 52.2426 34.2809 52.5545C34.3072 52.8486 34.2993 53.1609 34.2573 53.4912C34.2148 53.8042 34.1436 54.0312 34.0439 54.172C34.0118 54.2594 33.9753 54.4856 33.9344 54.8506C33.9107 55.2152 33.879 55.5973 33.8391 55.9969C33.8165 56.3962 33.7829 56.7176 33.7383 56.9613C33.6957 57.2743 33.7293 57.525 33.8391 57.7133C33.9662 57.9012 34.183 57.9051 34.4897 57.725C34.8132 57.5271 35.2317 57.0325 35.7453 56.241C36.0934 55.7133 36.3578 55.2827 36.5385 54.9493C36.7191 54.6159 36.8572 54.3095 36.9528 54.03C37.0652 53.7328 37.177 53.4183 37.2883 53.0864C37.3666 52.8073 37.4377 52.5804 37.5018 52.4056C37.5827 52.2131 37.657 52.0901 37.7247 52.0366C37.8434 51.9473 37.981 51.9096 38.1375 51.9235C38.3113 51.937 38.5043 52.0108 38.7164 52.1448C38.9307 52.3482 39.0423 52.5971 39.0512 52.8916C39.0596 53.1688 38.9661 53.5176 38.7708 53.938C38.6405 54.2183 38.5127 54.5765 38.3872 55.0127C38.279 55.4485 38.1884 55.8926 38.1154 56.3449C38.0592 56.7796 38.0354 57.1355 38.0438 57.4127C38.0543 57.7592 38.1039 57.9662 38.1926 58.0336C38.2982 58.0833 38.4203 58.1066 38.5589 58.1035C38.7669 58.099 39.0158 58.0155 39.3056 57.8531C39.5955 57.6906 39.9166 57.4149 40.269 57.0257C40.4202 56.8663 40.604 56.6369 40.8204 56.3374C41.0362 56.0206 41.2431 55.6953 41.441 55.3616C41.6558 55.0101 41.8286 54.7029 41.9593 54.44C42.1074 54.1767 42.1804 54.0104 42.1783 53.941C42.1752 53.8371 42.2487 53.6881 42.3989 53.4941C42.4986 53.3532 42.5735 53.2475 42.6234 53.1771C42.69 53.0889 42.8087 52.9997 42.9794 52.9092C43.1159 52.8369 43.237 52.8255 43.3425 52.8752C43.4475 52.9076 43.5628 52.9917 43.6883 53.1277C43.7771 53.1951 43.8235 53.2981 43.8277 53.4367C43.8493 53.5749 43.8632 53.7479 43.8695 53.9559C43.8233 54.1476 43.7442 54.4007 43.6324 54.7152C43.5373 55.012 43.4247 55.3006 43.2945 55.5808C43.1811 55.8434 43.0826 56.0276 42.9991 56.1334C42.9319 56.2043 42.8145 56.3369 42.647 56.5313C42.479 56.7083 42.3288 56.9024 42.1964 57.1133C41.779 57.6426 41.4773 57.9873 41.2914 58.1474C41.1055 58.3076 40.9453 58.4584 40.8109 58.6001C40.458 58.9719 40.0852 59.2575 39.6924 59.4569C39.2991 59.6389 38.9205 59.7339 38.5566 59.7419C38.21 59.7496 37.9128 59.6694 37.6649 59.5015C37.1193 59.2361 36.8365 58.7742 36.8165 58.1159C36.8123 57.9773 36.7827 57.8566 36.7275 57.7537C36.6892 57.6332 36.67 57.573 36.67 57.573C36.6007 57.5745 36.5059 57.5939 36.3857 57.6312C36.2828 57.6682 36.1738 57.7919 36.0588 58.0025C35.9118 58.3005 35.6697 58.6092 35.3325 58.9287C35.0122 59.2305 34.6819 59.4891 34.3416 59.7046C34.0008 59.9028 33.7265 60.0042 33.5185 60.0088ZM45.4954 60.0834C45.3526 59.9478 45.2433 59.7768 45.1677 59.5705C45.1094 59.3637 45.0858 59.1562 45.0968 58.9479C45.1078 58.7396 45.1459 58.5654 45.211 58.4253C45.2068 58.2867 45.221 58.1823 45.2536 58.1123C45.3029 58.0245 45.3179 57.9461 45.2985 57.8772C45.279 57.8083 45.2927 57.6866 45.3394 57.5123C45.3862 57.3379 45.4332 57.1721 45.4804 57.015C45.5933 56.7352 45.7133 56.4031 45.8404 56.0189C45.9669 55.6174 46.0851 55.2247 46.1948 54.8409C46.3046 54.4571 46.3986 54.1256 46.4768 53.8465C46.5551 53.5674 46.6018 53.393 46.617 53.3233C46.6107 53.1154 46.7459 52.9997 47.0227 52.9763C47.2285 52.9024 47.3845 52.899 47.4906 52.966C47.5961 53.0157 47.7397 53.1772 47.9214 53.4506C48.0643 53.5862 48.1226 53.7929 48.0963 54.0709C48.0701 54.3489 47.9679 54.6978 47.7899 55.1178C47.7248 55.258 47.6442 55.4591 47.5481 55.7213C47.4693 55.9831 47.4158 56.2183 47.3874 56.427C47.3223 56.5671 47.2417 56.7683 47.1456 57.0304C47.0663 57.2749 46.9954 57.5105 46.9329 57.7372C46.9009 57.8246 46.8702 57.9553 46.8408 58.1294C46.8108 58.286 46.7728 58.4603 46.7265 58.652C46.6798 58.8264 46.6152 58.9838 46.5328 59.1243C46.3983 59.8381 46.2637 60.2572 46.1287 60.3815C46.0111 60.5054 45.8 60.4061 45.4954 60.0834ZM47.6969 49.4767C47.6076 49.392 47.526 49.2724 47.4519 49.118C47.3774 48.9463 47.3293 48.7913 47.3078 48.6531C47.2857 48.4976 47.3007 48.4192 47.3527 48.4181C47.4908 48.3977 47.651 48.2468 47.8332 47.9654C48.0154 47.684 48.086 47.4397 48.0451 47.2326C48.043 47.1633 48.0671 47.1021 48.1175 47.049C48.1674 46.9785 48.2268 46.9339 48.2955 46.915C48.4993 46.7718 48.6981 46.7501 48.8918 46.8499C49.1024 46.9319 49.2985 47.1097 49.4802 47.3831C49.6462 47.7088 49.6979 47.9851 49.6354 48.2118C49.5724 48.4212 49.3907 48.72 49.0903 49.108C48.8409 49.4602 48.6041 49.6561 48.3798 49.6957C48.1729 49.735 47.9453 49.662 47.6969 49.4767ZM53.3308 60.6911C53.086 60.6272 52.8844 60.5536 52.7258 60.4704C52.5667 60.3699 52.3538 60.2098 52.087 59.9903C51.8706 59.7177 51.6981 59.4614 51.5695 59.2216C51.4581 58.9813 51.3804 58.7056 51.3363 58.3945C51.2917 58.0661 51.2617 57.6507 51.2465 57.1482C51.2402 56.9403 51.2654 56.6277 51.3221 56.2104C51.3962 55.7927 51.4783 55.3574 51.5687 54.9047C51.6758 54.4342 51.7671 54.0161 51.8428 53.6504C51.9357 53.2843 51.9893 53.049 52.0034 52.9447C52.0486 52.7183 51.958 52.5903 51.7317 52.5606C51.5054 52.5309 51.2538 52.5278 50.9771 52.5512C50.7172 52.5569 50.5431 52.5347 50.4549 52.4847C50.385 52.4689 50.3496 52.4437 50.3485 52.409C50.3469 52.357 50.3461 52.331 50.3461 52.331C50.344 52.2617 50.3341 52.2186 50.3162 52.2017C50.3152 52.167 50.2873 52.107 50.2327 52.0215C50.196 51.9529 50.2104 51.8573 50.276 51.7345C50.3585 51.5939 50.4945 51.5043 50.6841 51.4654C50.839 51.4273 51.0461 51.3968 51.3055 51.3737C51.5818 51.333 51.8572 51.2662 52.1318 51.1735C52.4059 51.0635 52.6265 50.9026 52.7935 50.6909C52.9379 50.3063 53.107 49.8778 53.3008 49.4054C53.4945 48.9331 53.6812 48.5129 53.8608 48.1449C54.0572 47.7591 54.1887 47.5222 54.2554 47.434C54.5453 47.2716 54.7601 47.2062 54.8997 47.2378C55.0389 47.2521 55.1993 47.3959 55.381 47.6693C55.4713 47.7887 55.5349 47.8826 55.5716 47.9512C55.6257 48.0193 55.6376 48.1231 55.6071 48.2625C55.5766 48.4018 55.4879 48.6205 55.3409 48.9185C55.2112 49.216 55.0074 49.6453 54.7296 50.2062C54.6482 50.3813 54.575 50.539 54.5099 50.6791C54.4442 50.8019 54.4114 50.8633 54.4114 50.8633C54.4812 50.8791 54.5855 50.8855 54.7241 50.8824C54.8627 50.8794 55.0358 50.8669 55.2432 50.845C55.4328 50.8062 55.6746 50.7748 55.9687 50.751C56.2622 50.7099 56.4961 50.7047 56.6705 50.7356C57.0691 50.7268 57.366 50.7983 57.5614 50.95C57.7562 51.0844 57.8675 51.3247 57.8953 51.6708C57.9358 51.8606 57.8959 51.9742 57.7756 52.0115C57.6727 52.0485 57.3873 52.0721 56.9194 52.0824C56.7634 52.0858 56.5211 52.0998 56.1924 52.1244C55.8636 52.149 55.5176 52.1739 55.1542 52.1992C54.8081 52.2242 54.5057 52.2569 54.2468 52.2972C54.0047 52.3199 53.8842 52.3485 53.8852 52.3832C53.8343 52.419 53.7526 52.5855 53.6403 52.8827C53.5452 53.1795 53.4428 53.5198 53.3331 53.9037C53.2401 54.2698 53.1548 54.6011 53.0771 54.8975C52.9736 55.4892 52.8962 56.0804 52.8447 56.671C52.8106 57.2612 52.8174 57.7725 52.8652 58.2048C52.913 58.6372 53.0175 58.9383 53.1787 59.1081C53.3394 59.2606 53.6437 59.2886 54.0916 59.1921C54.5391 59.0782 54.898 58.9056 55.1684 58.6743C55.4725 58.4075 55.7198 58.2721 55.9104 58.2679C56.1184 58.2633 56.2339 58.3561 56.257 58.5463C56.2969 58.7188 56.2092 58.9721 55.9939 59.3062C55.7954 59.6227 55.5439 59.9056 55.2393 60.155C54.9342 60.3871 54.61 60.5589 54.2665 60.6705C53.9399 60.7644 53.628 60.7713 53.3308 60.6911ZM67.7169 59.8545C67.3903 59.9483 67.1487 59.9883 66.9923 59.9744C66.8352 59.9432 66.6228 59.8005 66.355 59.5464C66.1917 59.3072 66.0465 59.0937 65.9194 58.9058C65.7923 58.7179 65.7041 58.3818 65.6547 57.8974C65.6274 57.5686 65.634 57.2131 65.6744 56.8308C65.7317 56.4308 65.749 56.1443 65.7264 55.9715C65.8456 55.3274 65.8821 54.8151 65.8359 54.4347C65.8065 54.0366 65.7485 53.8385 65.6618 53.8404C65.4701 53.81 65.1293 54.0082 64.6394 54.435C64.1663 54.8442 63.6191 55.385 62.9979 56.0575C62.3935 56.7123 61.7901 57.4017 61.1878 58.1257C60.8722 58.5834 60.6485 58.9264 60.5167 59.1547C60.3843 59.3657 60.2835 59.4719 60.2142 59.4734C60.0929 59.4761 59.927 59.4364 59.7164 59.3544C59.5058 59.2723 59.3207 59.1724 59.1611 59.0545C59.0009 58.9193 58.9106 58.8 58.8901 58.6964C58.888 58.6271 58.9258 58.4442 59.0035 58.1478C59.0807 57.834 59.1739 57.4766 59.2831 57.0754C59.4097 56.6739 59.5197 56.2987 59.6132 55.9499C59.7066 55.6011 59.7773 55.3569 59.8251 55.2171C59.9674 54.7632 60.1328 54.2135 60.3213 53.5679C60.5266 52.9045 60.7083 52.3198 60.8664 51.8135C60.9288 51.5867 61.0404 51.2636 61.2011 50.8439C61.3613 50.407 61.5214 49.97 61.6816 49.5331C61.8418 49.0961 61.9533 48.773 62.0164 48.5635C62.0641 48.4238 62.1521 48.1791 62.2802 47.8296C62.4078 47.4627 62.5431 47.061 62.6859 46.6244C62.846 46.1875 62.9899 45.7855 63.1175 45.4187C63.2619 45.0341 63.3575 44.7546 63.4042 44.5802C63.3822 44.4246 63.3867 44.2858 63.4176 44.1638C63.4654 44.024 63.5143 43.919 63.5641 43.8485C63.6335 43.847 63.7114 43.8453 63.7981 43.8434C63.8842 43.8241 63.9273 43.8145 63.9273 43.8145C63.9262 43.7799 63.9966 43.813 64.1384 43.9139C64.2801 44.0148 64.4141 44.1419 64.5401 44.2951C64.6829 44.4307 64.7559 44.5504 64.7591 44.6544C64.8525 44.8777 64.8701 45.172 64.8118 45.5374C64.753 45.8854 64.5871 46.4179 64.314 47.1347C64.1318 47.4161 63.9538 47.8361 63.78 48.3947C63.6235 48.9529 63.4644 49.4245 63.3027 49.8095C63.237 49.9323 63.1149 50.195 62.9364 50.5977C62.7752 51 62.5814 51.4724 62.3551 52.0148C62.1461 52.5568 61.946 53.1074 61.7549 53.6663C61.5632 54.208 61.4133 54.6967 61.3051 55.1325C61.1444 55.5522 61.0922 55.8307 61.1484 55.9682C61.2046 56.1056 61.4078 55.9451 61.758 55.4867C62.2275 54.9562 62.7227 54.4165 63.2436 53.8676C63.7645 53.3187 64.2534 52.8572 64.7103 52.4831C65.1839 52.0912 65.5686 51.9094 65.8642 51.9376C66.0213 51.9688 66.189 52.0691 66.3676 52.2386C66.5634 52.4076 66.7514 52.6029 66.9316 52.8243C67.1117 53.0457 67.2396 53.2596 67.3152 53.466C67.3924 53.7243 67.4425 53.9486 67.4656 54.1388C67.5061 54.3286 67.5234 54.6143 67.5176 54.9958C67.5113 55.3601 67.4856 55.9414 67.4404 56.7399C67.3543 57.3313 67.2979 57.7573 67.2711 58.0179C67.2438 58.2612 67.2577 58.4343 67.3128 58.5371C67.3853 58.6395 67.4927 58.7498 67.635 58.8681C67.9012 59.0703 68.0367 59.2493 68.0415 59.4052C68.0635 59.5608 67.9553 59.7105 67.7169 59.8545ZM79.2853 60.2501C78.5229 60.2668 77.8903 59.9947 77.3878 59.4336C76.8847 58.8553 76.6287 58.1327 76.6198 57.2661C76.6355 56.6416 76.7366 55.9719 76.923 55.257C77.1263 54.5244 77.3998 53.8249 77.7438 53.1585C78.0872 52.4748 78.4679 51.877 78.8859 51.365C79.3039 50.853 79.7437 50.488 80.2053 50.2698C80.376 50.1793 80.5558 50.106 80.7449 50.0498C80.9512 49.9933 81.1584 49.9627 81.3664 49.9582C81.557 49.954 81.7573 49.9842 81.9674 50.049C82.1769 50.0964 82.352 50.1532 82.4928 50.2194C82.791 50.3342 83.0208 50.4765 83.182 50.6464C83.3432 50.8162 83.49 51.0817 83.6223 51.4428C83.6843 51.7709 83.7174 52.0042 83.7216 52.1428C83.7258 52.2814 83.6887 52.4903 83.6105 52.7694C83.4215 53.3977 83.1691 53.9407 82.8535 54.3984C82.5379 54.8561 82.1076 55.2469 81.5625 55.571C81.4265 55.6607 81.264 55.7336 81.0749 55.7898C80.9027 55.8282 80.7213 55.8496 80.5307 55.8538C80.1841 55.8614 79.8443 55.8082 79.5114 55.6942C79.1953 55.5624 78.9379 55.3687 78.7394 55.113L78.5512 54.9091L78.4795 55.1187C78.3204 55.5903 78.1949 56.0265 78.103 56.4273C78.0284 56.8277 77.9961 57.1925 78.0061 57.5216C78.0124 57.7295 78.0358 57.9284 78.0762 58.1182C78.134 58.3077 78.2083 58.4707 78.2991 58.6074C78.3716 58.7098 78.4866 58.7853 78.6442 58.8339C78.8185 58.8647 79.001 58.878 79.1916 58.8738C79.3129 58.8712 79.4342 58.8685 79.5555 58.8658C79.6936 58.8455 79.8225 58.808 79.9423 58.7533C80.2337 58.6429 80.4642 58.5251 80.6339 58.4C80.8208 58.2745 81.0075 58.1404 81.1939 57.9976L81.2963 57.9434L81.2703 57.9439C81.4751 57.8354 81.6539 57.7274 81.8067 57.6201C81.9769 57.5123 82.0619 57.4584 82.0619 57.4584C82.1312 57.4569 82.1992 57.412 82.2659 57.3239C82.4025 57.2515 82.5766 57.2737 82.7882 57.3904C83.0171 57.5067 83.1345 57.6602 83.1403 57.8508C83.1256 57.9378 83.0518 58.0781 82.9189 58.2717C82.7856 58.448 82.6346 58.6161 82.466 58.7758C82.3148 58.9352 82.1874 59.0246 82.084 59.0443C82.0672 59.062 82.0076 59.0979 81.9052 59.1522C81.8023 59.1891 81.734 59.2253 81.7004 59.2607L81.7264 59.2602C81.5767 59.4715 81.4239 59.5789 81.268 59.5823L81.06 59.5869C80.9944 59.7097 80.7733 59.8533 80.3968 60.0176C80.0197 60.1646 79.6493 60.2421 79.2853 60.2501ZM80.2817 54.507C80.5937 54.5001 80.8596 54.4076 81.0797 54.2293C81.3165 54.0334 81.5181 53.8209 81.6846 53.5919C82.017 53.1165 82.2026 52.6617 82.2415 52.2274C82.2972 51.7754 82.2357 51.4647 82.0572 51.2952C81.9516 51.2455 81.8555 51.2217 81.7689 51.2236C81.699 51.2078 81.5525 51.237 81.3293 51.3112C81.1744 51.3493 80.9618 51.484 80.6913 51.7154C80.4209 51.9467 80.1512 52.204 79.8824 52.4873C79.6308 52.7702 79.4386 53.0085 79.3058 53.2022L78.9844 53.7553C79.1215 53.7003 79.2506 53.6715 79.372 53.6688C79.5101 53.6484 79.5883 53.6554 79.6067 53.6896C79.6114 53.8456 79.6419 53.9923 79.6981 54.1297C79.771 54.2495 79.8519 54.343 79.9407 54.4104C80.0467 54.4775 80.1604 54.5096 80.2817 54.507ZM96.9307 58.6916C96.843 58.6588 96.7104 58.5751 96.5329 58.4403C96.3554 58.3055 96.201 58.0748 96.0697 57.7483C95.9379 57.4045 95.8628 56.9294 95.8445 56.323C95.846 55.8028 95.8423 55.3955 95.8334 55.101C95.8418 54.8061 95.7767 54.6601 95.6381 54.6632C95.4994 54.6662 95.235 54.8107 94.8449 55.0967C94.4715 55.365 94.0404 55.7299 93.5515 56.1914C93.0626 56.6529 92.5666 57.1666 92.0636 57.7324C91.896 57.9268 91.7283 58.1126 91.5602 58.2896C91.409 58.449 91.2562 58.5564 91.1018 58.6118C90.9469 58.6499 90.7631 58.5932 90.5504 58.4419L90.2574 58.2143C90.1681 58.1296 90.1135 58.0441 90.0936 57.9578C90.0731 57.8543 90.0783 57.7415 90.1093 57.6194L90.6552 55.891C90.9135 55.2612 91.0905 54.8066 91.1861 54.5271C91.2811 54.2303 91.3276 54.0472 91.3255 53.9779C91.3228 53.8913 91.2958 53.8572 91.2443 53.8757C91.1062 53.896 90.9009 53.9872 90.6284 54.1493C90.3553 54.294 90.1775 54.4366 90.0951 54.5771C90.0258 54.5786 89.9242 54.6589 89.7903 54.8179C89.6564 54.9768 89.4875 55.1279 89.2838 55.2711C89.1688 55.4817 88.9343 55.7555 88.5804 56.0927C88.2438 56.4295 87.9074 56.775 87.5714 57.1291C87.3519 57.3247 87.1337 57.5635 86.9168 57.8457C86.7173 58.1275 86.5427 58.374 86.393 58.5854C86.2607 58.7963 86.1685 58.9024 86.1165 58.9035C85.8912 58.9085 85.6815 58.8524 85.4872 58.7353C85.3102 58.6179 85.1742 58.4215 85.0791 58.1462C84.9316 57.8547 84.9192 57.4476 85.0421 56.9247C85.1645 56.3846 85.2994 55.6882 85.447 54.8354C85.5084 54.574 85.5459 54.3825 85.5596 54.2608C85.5732 54.1391 85.5956 54.0173 85.6265 53.8953C85.6743 53.7555 85.746 53.5459 85.8416 53.2664C85.9545 52.9865 86.1238 52.5667 86.3496 52.007C86.461 51.6751 86.5229 51.431 86.5355 51.2747C86.5649 51.1007 86.5786 50.979 86.5765 50.9097C86.5712 50.7365 86.6101 50.5883 86.6931 50.4651C86.7934 50.3415 86.912 50.2522 87.0491 50.1972C87.1861 50.1422 87.3159 50.1306 87.4382 50.1626C87.6299 50.1931 87.7974 50.2847 87.9408 50.4376C88.1014 50.5901 88.1947 50.8048 88.2204 51.0816C88.244 51.2891 88.2325 51.4801 88.1857 51.6545C88.1385 51.8116 88.0909 51.96 88.0432 52.0997L87.7785 52.8077C87.6976 53.0002 87.5934 53.2799 87.4658 53.6467C87.3382 54.0136 87.2271 54.3541 87.1326 54.6683C87.0376 54.9651 86.9908 55.1395 86.9924 55.1915C87.0113 55.2431 87.0717 55.2331 87.1736 55.1615C87.2749 55.0726 87.4015 54.9571 87.5532 54.8151C87.7218 54.6553 87.8906 54.5042 88.0597 54.3618C88.4131 54.0073 88.8104 53.6692 89.2515 53.3474C89.7094 53.0079 90.1429 52.721 90.552 52.4866C90.961 52.2522 91.2771 52.0979 91.5003 52.0237C91.7949 52.0172 91.9958 52.0648 92.1029 52.1664C92.2274 52.2677 92.4324 52.4539 92.7181 52.725C92.8431 52.8436 92.9171 52.998 92.9402 53.1882C92.9633 53.3784 92.9602 53.5605 92.9308 53.7345C92.9156 53.8042 92.8688 53.9786 92.7906 54.2577C92.7118 54.5195 92.6328 54.7726 92.5535 55.0171C92.4915 55.2612 92.4605 55.3832 92.4605 55.3832C92.4605 55.3832 92.5532 55.2945 92.7386 55.1171C92.9413 54.9392 93.1611 54.7524 93.3979 54.5564C93.6342 54.3432 93.8114 54.1833 93.9296 54.0766C94.5896 53.542 95.1689 53.1999 95.6672 53.0502C96.1655 52.9005 96.5783 53.0735 96.9055 53.5691C97.1192 53.7551 97.2295 53.9607 97.2363 54.1859C97.2604 54.4108 97.2809 54.8004 97.2977 55.3548C97.3219 55.5797 97.3474 55.8478 97.3741 56.1593C97.4009 56.4708 97.4269 56.7563 97.4521 57.0158C97.4941 57.2576 97.5333 57.4041 97.5695 57.4553C97.6236 57.5234 97.7207 57.582 97.8609 57.6309C98.018 57.6621 98.2183 57.6924 98.4619 57.7217C98.7229 57.7506 98.8823 57.8598 98.9401 58.0492C98.9978 58.2387 98.8907 58.4231 98.6187 58.6024C98.3635 58.7641 98.0797 58.8397 97.7672 58.8292C97.4548 58.8187 97.1759 58.7729 96.9307 58.6916ZM100.028 64.2666C99.824 64.4098 99.6071 64.4059 99.3771 64.2549C99.1645 64.1036 99.0014 63.8731 98.888 63.5635C98.7746 63.254 98.7732 62.9246 98.884 62.5754C98.9155 62.4707 98.9623 62.2963 99.0242 62.0522C99.0867 61.8255 99.124 61.6253 99.1361 61.4516C99.1497 61.33 99.1954 61.1209 99.2731 60.8245C99.3514 60.5454 99.4383 60.2661 99.5339 59.9866C99.6468 59.7067 99.736 59.5054 99.8017 59.3826C99.9004 59.207 99.9637 59.0063 99.9915 58.7803C100.037 58.5539 100.057 58.3801 100.054 58.2588C100.085 58.1367 100.124 57.9972 100.171 57.8401C100.236 57.6827 100.301 57.5599 100.368 57.4717C100.398 57.3323 100.446 57.1839 100.511 57.0265C100.575 56.8517 100.648 56.7027 100.731 56.5795C100.762 56.4575 100.784 56.3097 100.796 56.136C100.825 55.962 100.874 55.8656 100.943 55.8467C100.958 55.777 100.965 55.7075 100.963 55.6382C100.978 55.5686 101.01 55.4725 101.058 55.3501C101.087 55.1587 101.156 54.8798 101.267 54.5133C101.377 54.1468 101.512 53.7451 101.672 53.3082C101.848 52.8015 101.92 52.3232 101.889 51.8731C101.875 51.4053 101.736 51.1223 101.473 51.0241C101.332 50.9578 101.243 50.8644 101.204 50.7439C101.166 50.6061 101.179 50.4671 101.244 50.327C101.309 50.1868 101.41 50.0893 101.547 50.0342C101.701 49.9615 101.865 49.9319 102.039 49.9454C102.23 49.9585 102.395 49.9896 102.536 50.0385C102.675 50.0701 102.737 50.1034 102.721 50.1384C102.723 50.2251 102.768 50.2761 102.855 50.2915C102.889 50.2388 102.96 50.2979 103.069 50.4688C103.195 50.6221 103.313 50.8015 103.423 51.0072C103.534 51.2128 103.59 51.3589 103.593 51.4455C103.56 51.5156 103.544 51.5593 103.545 51.5766C103.545 51.5766 103.579 51.5758 103.649 51.5743C103.649 51.5743 103.743 51.5289 103.931 51.4381C104.118 51.3299 104.314 51.2129 104.518 51.0871C104.739 50.9435 104.884 50.8363 104.951 50.7655C104.951 50.7655 104.994 50.7472 105.079 50.7107C105.182 50.6564 105.266 50.5939 105.334 50.523C105.676 50.3768 106.048 50.3426 106.449 50.4205C106.867 50.498 107.201 50.6466 107.451 50.8665C107.811 51.292 107.996 51.704 108.009 52.1025C108.038 52.5006 107.941 53.0055 107.716 53.6173C107.684 53.7046 107.611 53.8536 107.496 54.0642C107.398 54.2571 107.299 54.4413 107.2 54.6168C107.101 54.775 107.052 54.8541 107.052 54.8541C106.672 55.4866 106.22 56.0167 105.695 56.4443C105.171 56.8719 104.636 57.2478 104.091 57.5718C103.921 57.6969 103.742 57.7962 103.553 57.8697C103.382 57.9255 103.227 57.9636 103.089 57.984C102.95 57.987 102.854 57.9718 102.801 57.9383C102.606 57.8039 102.424 57.5132 102.255 57.0661C102.175 57.2933 102.095 57.5204 102.015 57.7475C101.952 57.957 101.913 58.0965 101.898 58.1662C101.884 58.2879 101.87 58.3922 101.855 58.4792C101.84 58.5489 101.798 58.6105 101.731 58.664C101.731 58.664 101.723 58.6988 101.708 58.7685C101.693 58.8382 101.635 58.9435 101.535 59.0844C101.377 59.5906 101.234 60.0272 101.107 60.3941C100.98 60.7783 100.877 61.1013 100.798 61.3631C100.72 61.6422 100.658 61.8862 100.612 62.0953C100.592 62.5638 100.51 63.0251 100.368 63.479C100.226 63.9502 100.113 64.2127 100.028 64.2666ZM102.896 56.7919C102.965 56.7558 103.109 56.6572 103.33 56.4964C103.567 56.3178 103.83 56.1126 104.117 55.8809C104.405 55.6319 104.666 55.4007 104.903 55.1875C105.156 54.9739 105.325 54.8141 105.408 54.7083C105.542 54.5493 105.667 54.3818 105.783 54.2059C105.899 54.0127 105.988 53.8027 106.05 53.5759C106.098 53.4362 106.154 53.2789 106.218 53.1041C106.282 52.9293 106.338 52.7634 106.385 52.6063C106.45 52.4662 106.472 52.327 106.451 52.1888C106.446 52.0329 106.39 51.9041 106.283 51.8024C106.213 51.7866 106.007 51.8432 105.664 51.9721C105.32 52.0837 104.944 52.274 104.536 52.543C104.128 52.7947 103.774 53.1232 103.474 53.5286C103.124 54.0044 102.87 54.4954 102.712 55.0016C102.571 55.5075 102.515 55.9335 102.543 56.2796C102.588 56.6254 102.706 56.7961 102.896 56.7919ZM111.195 58.6118C110.988 58.651 110.762 58.6213 110.516 58.5227C110.271 58.4241 110.05 58.2816 109.853 58.0952C109.674 57.9084 109.555 57.7117 109.497 57.5049C109.417 57.1426 109.446 56.6912 109.586 56.1507C109.743 55.5924 109.968 55.0067 110.261 54.3934C110.571 53.7625 110.917 53.1567 111.298 52.5762C111.697 51.9954 112.107 51.4922 112.527 51.0669C112.965 50.6238 113.372 50.3202 113.748 50.1559C113.935 50.0304 114.08 49.9492 114.183 49.9122C114.303 49.8576 114.424 49.8463 114.546 49.8782C114.686 49.9098 114.888 49.9921 115.152 50.125C115.397 50.1889 115.581 50.2629 115.705 50.3468C115.829 50.4308 115.99 50.6006 116.188 50.8563C116.335 51.1131 116.447 51.3707 116.524 51.6291C116.601 51.8874 116.671 52.1806 116.733 52.5087C116.885 52.9388 116.945 53.2235 116.915 53.3629C116.884 53.4849 116.835 53.5813 116.767 53.6522C116.634 53.8285 116.602 53.9159 116.671 53.9143C116.671 53.9143 116.664 53.9492 116.648 54.0189C116.65 54.0708 116.618 54.1582 116.552 54.281C116.443 54.6648 116.359 55.0654 116.303 55.4828C116.263 55.8824 116.281 56.2114 116.359 56.4697C116.509 56.8478 116.767 57.0675 117.133 57.1288C117.499 57.1901 117.867 57.026 118.236 56.6365C118.423 56.4937 118.601 56.3684 118.771 56.2606C118.941 56.1355 119.028 56.1423 119.032 56.2809C119.032 56.2809 119.059 56.3063 119.112 56.3571C119.165 56.3906 119.227 56.4066 119.296 56.4051C119.383 56.4032 119.436 56.4367 119.455 56.5056C119.492 56.5742 119.495 56.6695 119.464 56.7915C119.45 56.8958 119.401 57.0183 119.319 57.1588C119.067 57.4244 118.942 57.6005 118.945 57.6871C118.945 57.6871 118.911 57.7225 118.844 57.7933C118.793 57.8465 118.701 57.9352 118.566 58.0595C118.26 58.257 117.864 58.361 117.379 58.3717C116.911 58.382 116.544 58.2947 116.278 58.1098C116.013 57.925 115.762 57.6704 115.527 57.3462C115.309 57.0216 115.162 56.7388 115.085 56.4978L114.947 56.2407L114.208 56.7511C114.023 56.9459 113.821 57.1324 113.601 57.3106C113.398 57.4884 113.263 57.6127 113.196 57.6836C113.146 57.754 113.087 57.816 113.02 57.8695C112.969 57.9226 112.909 57.9499 112.84 57.9514C112.771 57.953 112.71 57.9543 112.658 57.9554C112.606 57.9566 112.58 57.9572 112.58 57.9572C112.582 58.0265 112.498 58.115 112.328 58.2228C112.175 58.3301 111.987 58.421 111.764 58.4952C111.558 58.5691 111.369 58.608 111.195 58.6118ZM110.893 57.2141C110.997 57.2118 111.176 57.1299 111.432 56.9682C111.704 56.7889 112.001 56.583 112.323 56.3505C112.663 56.1176 112.959 55.8857 113.213 55.6548C113.483 55.4234 113.668 55.246 113.769 55.1224C113.836 55.0516 113.945 54.9365 114.096 54.7771C114.247 54.6005 114.381 54.4501 114.499 54.3262C114.884 53.867 115.146 53.3671 115.286 52.8266C115.425 52.2687 115.394 51.836 115.194 51.5283C115.119 51.3393 115.029 51.2372 114.925 51.2222C114.82 51.2071 114.606 51.2726 114.281 51.4184C114.076 51.5443 113.824 51.7839 113.522 52.1372C113.238 52.4729 112.929 52.8698 112.596 53.3279C112.28 53.7682 111.981 54.2256 111.701 54.6998C111.421 55.1741 111.191 55.6126 111.013 56.0152C110.834 56.4179 110.748 56.7319 110.755 56.9571C110.757 57.0264 110.776 57.0867 110.813 57.1379C110.866 57.1887 110.893 57.2141 110.893 57.2141ZM122.65 60.5182C122.076 60.4441 121.679 60.2361 121.461 59.8942C121.26 59.5692 121.201 59.0591 121.284 58.3638C121.378 58.0323 121.43 57.7364 121.439 57.4762C121.466 57.1982 121.538 57.0232 121.658 56.9513C121.658 56.9513 121.665 56.9251 121.681 56.8727C121.714 56.82 121.704 56.7682 121.65 56.7174C121.644 56.4921 121.712 56.1786 121.856 55.7767C121.888 55.6719 121.927 55.5497 121.975 55.41C122.04 55.2525 122.072 55.1738 122.072 55.1738C121.981 55.0371 121.978 54.9245 122.062 54.8359C122.146 54.7474 122.23 54.6675 122.314 54.5963C122.416 54.5074 122.422 54.4119 122.332 54.3099C122.295 54.2413 122.334 54.0845 122.448 53.8392C122.561 53.5767 122.691 53.3051 122.839 53.0245C122.987 52.7438 123.084 52.525 123.131 52.3679C123.13 52.3332 123.17 52.211 123.25 52.0012C123.331 51.7914 123.427 51.5466 123.54 51.2667C123.653 50.9868 123.758 50.7331 123.855 50.5056C123.97 50.2777 124.043 50.1287 124.076 50.0586C124.246 49.9682 124.175 49.9091 123.862 49.8813C123.549 49.8535 123.22 49.8521 122.874 49.877C122.336 49.8715 121.902 49.8551 121.572 49.8277C121.259 49.7999 120.996 49.7276 120.785 49.6109C120.569 49.373 120.486 49.2014 120.535 49.0963C120.601 48.9735 120.807 48.8997 121.153 48.8747C121.377 48.8524 121.55 48.8399 121.672 48.8373C121.81 48.8342 121.983 48.8217 122.191 48.7998C122.415 48.7602 122.76 48.7093 123.227 48.647L124.549 48.5139L124.614 48.0704C124.745 47.8421 124.852 47.6404 124.933 47.4652C125.032 47.2724 125.113 47.0799 125.176 46.8878C125.24 46.6957 125.286 46.4953 125.314 46.2866C125.314 46.2866 125.388 46.1463 125.535 45.8657C125.682 45.5677 125.768 45.2624 125.794 44.9498C125.991 44.5987 126.164 44.2828 126.311 44.0022C126.458 43.7042 126.548 43.5202 126.58 43.4502C126.766 43.29 126.894 43.2092 126.963 43.2077C127.05 43.2058 127.226 43.2886 127.491 43.4561C127.65 43.5393 127.791 43.6402 127.916 43.7588C128.041 43.8775 128.123 44.0057 128.162 44.1435C128.201 44.264 128.152 44.3865 128.017 44.5108C127.985 44.5808 127.937 44.7119 127.873 44.904C127.809 45.0788 127.762 45.2272 127.731 45.3493C127.63 45.4728 127.506 45.6749 127.359 45.9556C127.228 46.2185 127.141 46.4891 127.097 46.7675C126.968 47.0651 126.846 47.3365 126.732 47.5817C126.617 47.8096 126.525 47.9243 126.456 47.9258C126.496 48.0983 126.603 48.1827 126.776 48.1789C126.949 48.1577 127.234 48.1341 127.632 48.108C127.96 48.0661 128.185 48.0265 128.305 47.9892C128.442 47.9342 128.598 47.948 128.774 48.0309C128.865 48.1502 128.938 48.2873 128.995 48.4421C129.051 48.5969 129.065 48.744 129.034 48.8833C129.021 49.005 128.954 49.0931 128.834 49.1478C128.747 49.1497 128.567 49.2057 128.293 49.3157C128.036 49.4081 127.708 49.4673 127.31 49.4934L125.936 49.6536L125.521 50.5469C125.407 50.7748 125.309 50.985 125.228 51.1775C125.147 51.3527 125.089 51.458 125.056 51.4934C125.059 51.5973 125.003 51.7546 124.888 51.9652C124.79 52.1754 124.684 52.4031 124.57 52.6483C124.475 52.9451 124.362 53.2163 124.231 53.4619C124.117 53.7072 124.06 53.8298 124.06 53.8298C123.991 53.8313 123.958 53.884 123.961 53.988C124.054 54.194 124.032 54.3505 123.897 54.4575C123.812 54.5114 123.736 54.5911 123.67 54.6965C123.621 54.7843 123.596 54.8282 123.596 54.8282C123.667 54.896 123.679 54.9824 123.63 55.0875C123.598 55.1922 123.55 55.306 123.484 55.4288C123.488 55.5674 123.451 55.7676 123.372 56.0294C123.311 56.2908 123.24 56.535 123.16 56.7622C123.187 57.0736 123.211 57.2725 123.231 57.3587C123.25 57.445 123.295 57.4787 123.364 57.4598C123.451 57.4753 123.529 57.4735 123.598 57.4547C123.666 57.4358 123.735 57.4257 123.805 57.4241C124.044 57.3148 123.933 57.9241 123.47 59.2519C123.206 59.6911 123.025 60.0072 122.927 60.2C122.829 60.4102 122.737 60.5163 122.65 60.5182ZM129.77 57.657C129.649 57.677 129.519 57.6798 129.38 57.6655C129.258 57.6336 129.134 57.5756 129.01 57.4916C128.868 57.3561 128.769 57.2542 128.715 57.1861C128.66 57.1006 128.639 56.971 128.651 56.7974C128.681 56.6234 128.733 56.3535 128.809 55.9878C128.887 55.7086 128.979 55.3252 129.086 54.8374C129.192 54.3323 129.307 53.8357 129.431 53.3475C129.475 53.0692 129.535 52.7818 129.613 52.4853C129.708 52.1885 129.804 51.9177 129.9 51.6728C129.997 51.4107 130.069 51.2097 130.116 51.07C130.24 50.5818 130.357 50.1545 130.468 49.788C130.595 49.4211 130.747 49.0017 130.924 48.5297C131.1 48.0404 131.314 47.3942 131.567 46.5911C131.917 45.5432 132.179 44.7486 132.353 44.2073C132.544 43.6483 132.68 43.2466 132.759 43.0022C132.855 42.74 132.918 42.5392 132.949 42.3999C132.945 42.2613 132.976 42.1565 133.043 42.0857C133.128 42.0145 133.231 41.9776 133.352 41.9749C133.595 41.9696 133.789 42.0866 133.935 42.3262C134.098 42.5479 134.201 42.8231 134.246 43.1515C134.29 43.4626 134.247 43.7582 134.117 44.0385C133.859 44.6683 133.587 45.4198 133.301 46.2929C133.015 47.1487 132.737 47.9957 132.468 48.8338C132.198 49.6546 131.941 50.3537 131.699 50.9311C131.701 51.0004 131.679 51.1223 131.632 51.2967C131.585 51.4711 131.529 51.6283 131.464 51.7685C131.399 51.9086 131.334 52.0401 131.268 52.1629C131.22 52.2853 131.195 52.3465 131.195 52.3465C131.198 52.4158 131.175 52.5463 131.129 52.738C131.083 52.9298 131.021 53.1652 130.943 53.4443C130.88 53.6537 130.801 53.9242 130.707 54.2556C130.63 54.5867 130.578 54.8653 130.55 55.0913C130.632 54.9334 130.807 54.6955 131.075 54.3776C131.343 54.0596 131.595 53.7853 131.83 53.5548C132.1 53.3061 132.404 53.0307 132.742 52.7286C133.079 52.4264 133.35 52.2037 133.554 52.0606C133.758 51.9174 133.936 51.7921 134.089 51.6847C134.258 51.5596 134.343 51.4971 134.343 51.4971C134.341 51.4278 134.366 51.3926 134.418 51.3914C134.487 51.3726 134.556 51.3624 134.625 51.3608C134.694 51.3593 134.729 51.3499 134.728 51.3326C134.745 51.3149 134.752 51.2714 134.75 51.2021C134.748 51.1154 134.841 51.0354 135.029 50.9619C135.235 50.888 135.467 50.8309 135.726 50.7905C136.002 50.7324 136.226 50.7015 136.4 50.6977C136.608 50.6931 136.774 50.7328 136.898 50.8167C137.021 50.9007 137.183 51.0878 137.383 51.3782C137.599 51.6508 137.739 51.9858 137.803 52.3831C137.884 52.7628 137.862 53.162 137.736 53.5809C137.74 53.7195 137.72 53.9193 137.676 54.1803C137.648 54.4236 137.639 54.6839 137.647 54.9611L137.517 55.7962L137.933 55.787C138.071 55.784 138.202 55.8071 138.325 55.8564C138.447 55.8884 138.508 55.9044 138.508 55.9044C138.58 55.9721 138.651 56.0399 138.723 56.1077C138.794 56.1581 138.864 56.1826 138.933 56.1811C139.141 56.1765 139.221 56.2614 139.175 56.4358C139.127 56.5929 139.002 56.743 138.798 56.8862C138.391 57.1725 138.014 57.3195 137.667 57.3272C137.338 57.3344 137.03 57.2025 136.745 56.9314C136.459 56.6429 136.275 56.3176 136.195 55.9553C136.115 55.593 136.135 55.1331 136.257 54.5756C136.303 53.8118 136.321 53.2566 136.311 52.9101C136.317 52.5459 136.225 52.3659 136.034 52.3701C135.861 52.3739 135.561 52.5018 135.135 52.7539C134.709 52.9887 134.233 53.3112 133.708 53.7215C133.183 54.1318 132.668 54.5852 132.163 55.0818C131.658 55.5783 131.24 56.0903 130.909 56.6177C130.709 56.8821 130.516 57.1204 130.332 57.3325C130.147 57.5273 129.96 57.6354 129.77 57.657ZM140.708 65.0879C140.329 65.1656 140.069 65.1799 139.929 65.131C139.789 65.0821 139.596 64.9997 139.349 64.8837C139.155 64.7493 139.004 64.6486 138.898 64.5816C138.792 64.5146 138.738 64.4464 138.736 64.3771C138.734 64.3251 138.75 64.2641 138.782 64.1941C138.815 64.1413 138.874 64.088 138.959 64.0341C139.062 63.9972 139.2 63.9768 139.374 63.973C139.497 64.0396 139.698 64.0699 139.975 64.0638C140.269 64.0573 140.45 64.0187 140.518 63.9478C140.518 63.9478 140.594 63.8941 140.747 63.7868C140.917 63.6963 141.141 63.6221 141.416 63.564C141.946 63.2923 142.412 62.9526 142.816 62.545C143.22 62.1373 143.603 61.6088 143.964 60.9594C144.113 60.7134 144.269 60.4239 144.432 60.0909C144.596 59.7752 144.708 59.4607 144.768 59.1473C144.896 58.7978 145.038 58.3266 145.193 57.7337C145.366 57.1404 145.513 56.5564 145.634 55.9816C145.755 55.3895 145.82 54.946 145.828 54.6511C145.903 53.6786 146.04 52.7827 146.241 51.9634C146.458 51.1265 146.638 50.195 146.78 49.169C146.877 48.9242 146.951 48.7838 147.002 48.748C147.052 48.6949 147.164 48.6665 147.337 48.6626C147.528 48.6584 147.667 48.6727 147.755 48.7055C147.859 48.7205 147.975 48.822 148.102 49.0099C148.285 49.3353 148.358 49.7237 148.319 50.1753C148.298 50.6092 148.18 50.9933 147.964 51.3274C147.798 51.5738 147.654 51.9584 147.531 52.4812C147.425 52.9863 147.323 53.6213 147.225 54.3863C147.15 54.7694 147.068 55.2219 146.98 55.744C146.908 56.2483 146.83 56.8135 146.745 57.4395C146.681 57.6143 146.594 57.8849 146.483 58.2514C146.373 58.6006 146.303 58.8795 146.275 59.0882C146.259 59.1579 146.212 59.2976 146.131 59.5074C146.051 59.7172 145.97 59.9184 145.89 60.1109C145.809 60.3207 145.753 60.4606 145.72 60.5307C145.087 61.9489 144.348 63.04 143.504 63.8041C142.661 64.5682 141.728 64.9961 140.708 65.0879ZM142.455 57.5079C142.265 57.5121 142.062 57.4125 141.848 57.2092C141.651 57.0055 141.516 56.8437 141.443 56.724C141.368 56.5522 141.277 56.3896 141.168 56.2359C141.059 56.0823 140.976 55.8934 140.917 55.6693C140.875 55.4449 140.884 55.1673 140.944 54.8366C141.006 54.6098 141.092 54.2872 141.2 53.8687C141.326 53.4325 141.459 52.9615 141.6 52.4556C141.758 51.9494 141.916 51.4518 142.075 50.9629C142.25 50.4563 142.41 50.0106 142.554 49.6261C142.698 49.2241 142.828 48.9352 142.944 48.7593C143.044 48.6184 143.154 48.5293 143.274 48.492C143.412 48.4543 143.551 48.4686 143.692 48.5348C143.832 48.5837 143.957 48.6937 144.066 48.8646C144.264 49.103 144.348 49.3092 144.319 49.4832C144.289 49.6572 144.144 49.9985 143.882 50.507C143.818 50.6991 143.738 50.909 143.641 51.1365C143.543 51.3467 143.495 51.4864 143.497 51.5557C143.481 51.5907 143.45 51.7128 143.404 51.9218C143.375 52.1132 143.338 52.296 143.291 52.4704C143.244 52.6448 143.195 52.7326 143.143 52.7338C143.076 52.8046 143.004 53.0055 142.927 53.3366C142.85 53.6504 142.783 54.0073 142.725 54.4073C142.668 54.79 142.634 55.1288 142.626 55.4237C142.617 55.7013 142.647 55.8393 142.717 55.8378C143.254 55.826 143.802 55.6058 144.361 55.1775C144.938 54.7487 145.509 54.1293 146.074 53.3194L146.572 55.1548C146.333 55.2814 146.111 55.4163 145.908 55.5595C145.703 55.6854 145.517 55.8368 145.349 56.0139C145.299 56.0843 145.181 56.1823 144.994 56.3078C144.807 56.4332 144.62 56.5501 144.432 56.6582C144.262 56.7486 144.15 56.7944 144.098 56.7956C144.098 56.7956 144.073 56.8048 144.021 56.8233C143.986 56.824 143.97 56.8591 143.972 56.9284C143.973 56.963 143.863 57.0348 143.641 57.1437C143.418 57.2353 143.186 57.3184 142.946 57.3931C142.705 57.4677 142.542 57.506 142.455 57.5079ZM32.6454 91.2685C32.5719 91.1314 32.4821 91.0294 32.376 90.9624C32.2694 90.878 32.215 90.8012 32.2129 90.7319C32.2108 90.6626 32.2001 90.5935 32.1807 90.5246C32.178 90.4379 32.141 90.3607 32.0696 90.293C31.9798 90.1909 31.9814 89.9568 32.0743 89.5907C32.1667 89.2073 32.3261 88.7443 32.5524 88.2019C32.7782 87.6422 33.0466 87.0555 33.3574 86.4418C33.4919 86.3002 33.625 86.1152 33.7568 85.8869C33.8886 85.6587 33.9881 85.5091 34.0553 85.4383C34.0532 85.369 34.0774 85.3078 34.1278 85.2546C34.1777 85.1842 34.2373 85.1482 34.3066 85.1467L34.3019 84.9908C34.2992 84.9041 34.3728 84.7552 34.5224 84.5438C34.6894 84.3321 34.8905 84.1023 35.1258 83.8544C35.3605 83.5892 35.6044 83.3411 35.8575 83.1101C36.1101 82.8619 36.3215 82.6839 36.4916 82.5761C36.8482 82.3255 37.2163 82.1701 37.596 82.1097C37.993 82.049 38.3335 82.1281 38.6176 82.3473C38.6712 82.3981 38.7604 82.4828 38.8854 82.6014C39.0104 82.72 39.1532 82.8556 39.3139 83.0081C39.4914 83.1429 39.6692 83.2863 39.8472 83.4384L40.8349 84.2749L40.4064 85.5846C40.2022 86.2826 40.1599 86.8903 40.2796 87.4078C40.4167 87.9249 40.6037 88.3715 40.8405 88.7477C40.9329 88.9364 41.1117 89.1145 41.3769 89.282C41.6594 89.4492 41.9225 89.5474 42.1662 89.5767C42.3053 89.591 42.4369 89.6401 42.5608 89.7241C42.6847 89.808 42.7496 89.9453 42.7554 90.1359C42.7606 90.3091 42.7302 90.4485 42.664 90.554C42.5978 90.6594 42.4786 90.7314 42.3064 90.7699C41.7366 90.8518 41.1952 90.725 40.6822 90.3895C40.1864 90.0537 39.7186 89.4919 39.2785 88.7041C39.206 88.6016 39.1049 88.4131 38.9752 88.1386C38.8623 87.8464 38.7959 87.6571 38.7759 87.5709C38.7093 87.659 38.5843 87.8265 38.401 88.0732C38.2172 88.3026 38.0749 88.4705 37.9741 88.5767C36.7815 89.8512 35.7413 90.7149 34.8533 91.1679C33.9821 91.6032 33.2461 91.6367 32.6454 91.2685ZM33.537 89.7926C33.5407 89.9139 33.7227 89.9099 34.0829 89.7806C34.46 89.6336 34.8598 89.3821 35.2826 89.026C35.8565 88.5106 36.4289 87.9432 36.9997 87.3239C37.5878 86.7042 38.056 86.1304 38.4041 85.6026L38.9476 84.6545C38.7623 84.2598 38.5635 83.9955 38.3514 83.8614C38.156 83.7097 37.989 83.6354 37.8504 83.6384C37.6251 83.6434 37.2935 83.8587 36.8555 84.2844C36.4349 84.7098 35.9838 85.2745 35.5023 85.9786C35.0208 86.6826 34.5673 87.4554 34.142 88.297C33.9792 88.6473 33.8335 88.9886 33.7048 89.3208C33.593 89.6353 33.537 89.7926 33.537 89.7926ZM45.0517 90.7875C44.9824 90.789 44.8771 90.748 44.7358 90.6644C44.6114 90.5631 44.5134 90.4786 44.442 90.4108C44.3165 90.2749 44.2343 90.138 44.1955 90.0002C44.1739 89.8619 44.1558 89.5503 44.1411 89.0652C44.1243 88.5107 44.2188 87.9105 44.4247 87.2645C44.63 86.6012 44.9834 85.6746 45.4849 84.4846L46.2875 82.6466C46.3526 82.5065 46.4101 82.4012 46.46 82.3307C46.5272 82.2599 46.5858 82.1893 46.6357 82.1188C46.705 82.1173 46.7657 82.116 46.8176 82.1148C46.8696 82.1137 46.8956 82.1131 46.8956 82.1131C47.0343 82.1101 47.1755 82.1936 47.3194 82.3639C47.4628 82.5167 47.572 82.6877 47.6471 82.8767C47.6539 83.102 47.6263 83.3366 47.5644 83.5807C47.5197 83.8244 47.3228 84.1928 46.9736 84.6859C46.8581 84.8792 46.7032 85.2033 46.5089 85.6584C46.3319 86.113 46.2138 86.5057 46.1544 86.8364C46.1376 86.8541 46.1053 86.9328 46.0575 87.0726C46.0092 87.195 45.9528 87.3349 45.8882 87.4924C45.8409 87.6495 45.7848 87.7981 45.7196 87.9382L45.607 88.5128L47.2942 86.6813C48.084 85.8491 48.7249 85.2542 49.217 84.8966C49.709 84.5391 50.1031 84.383 50.3993 84.4285C50.6954 84.474 50.9538 84.7024 51.1744 85.1136C51.3014 85.3015 51.3933 85.4729 51.4501 85.6277C51.5236 85.7647 51.5727 85.9544 51.5974 86.1965C51.622 86.4387 51.6157 86.8029 51.5785 87.2892L51.6273 88.9004C51.8851 88.8254 52.0913 88.7602 52.2456 88.7048C52.3995 88.6321 52.562 88.5591 52.7332 88.486C52.8871 88.4133 53.0672 88.3487 53.2736 88.2921C53.4794 88.2182 53.738 88.1692 54.0494 88.145C54.0389 88.3706 53.9683 88.6149 53.8376 88.8778C53.7063 89.1234 53.5401 89.3611 53.339 89.5909C53.1378 89.8207 52.9094 90.0078 52.6537 90.1521C52.4153 90.2961 52.1748 90.3707 51.9321 90.376C51.7069 90.381 51.4522 90.2739 51.1681 90.0548C50.884 89.8357 50.6771 89.5888 50.5474 89.3143C50.4723 89.1252 50.4227 88.9183 50.3985 88.6934C50.3917 88.4682 50.3791 88.0524 50.3607 87.446L50.3315 86.4844C50.3231 86.2072 50.2341 86.1312 50.0645 86.2563C49.9117 86.3637 49.7846 86.4618 49.6833 86.5507C49.4302 86.7817 49.1608 87.0476 48.8751 87.3487C48.6068 87.6493 48.33 87.9588 48.0449 88.2771C47.273 89.1263 46.6244 89.756 46.0993 90.1663C45.5915 90.5762 45.2423 90.7833 45.0517 90.7875ZM62.3662 92.0449C62.1425 92.1018 61.9509 92.0713 61.7912 91.9535C61.6494 91.8526 61.5407 91.6989 61.4651 91.4926C61.3144 91.0971 61.1973 90.6663 61.1138 90.2C61.0471 89.7161 61.0256 89.2918 61.0492 88.9272L61.0846 88.3803L60.0953 89.2082C59.5219 89.7409 58.9613 90.126 58.4136 90.3635C57.8832 90.6005 57.4101 90.7236 56.9942 90.7328C56.8025 90.7023 56.6098 90.6372 56.416 90.5374C56.2222 90.4377 56.045 90.3116 55.8843 90.1591C55.741 90.0062 55.6233 89.8441 55.5314 89.6727C55.4201 89.4324 55.3755 89.104 55.3975 88.6875C55.4369 88.2705 55.5272 87.8178 55.6685 87.3292C55.8265 86.823 56.0198 86.3333 56.2482 85.8602C56.4934 85.3693 56.7752 84.9384 57.0934 84.5673C57.639 83.6884 58.2382 83.1465 58.8909 82.9414C59.5436 82.7363 60.1964 82.8173 60.8491 83.1844C61.3054 83.3651 61.5853 83.4456 61.6888 83.426C61.8095 83.406 61.9075 83.2044 61.9826 82.8214C62.0435 82.5426 62.1044 82.2639 62.1653 81.9852C62.2257 81.6891 62.3265 81.2968 62.4678 80.8083C62.8611 79.482 63.2024 78.443 63.4917 77.6911C63.7984 76.9389 64.0733 76.2827 64.3164 75.7226C64.495 75.3199 64.6436 75.0739 64.7623 74.9846C64.8978 74.8776 65.0351 74.8312 65.1742 74.8455C65.3649 74.8413 65.5402 74.9068 65.7004 75.042C65.8606 75.1772 65.9877 75.3651 66.0817 75.6057C66.1557 75.7601 66.1859 75.8981 66.1722 76.0198C66.1754 76.1238 66.1279 76.2722 66.0297 76.465C65.817 76.8858 65.5652 77.4461 65.2743 78.146C65.0002 78.8282 64.7195 79.5798 64.4323 80.401C64.1624 81.2218 63.9095 82.0335 63.6737 82.8362C63.438 83.6389 63.2426 84.3453 63.0877 84.9555C62.9953 85.339 62.9147 85.8262 62.8459 86.4171C62.7944 87.0077 62.7522 87.6154 62.7191 88.2403C62.6855 88.8478 62.6674 89.3943 62.6647 89.8798C62.6789 90.3476 62.7054 90.6504 62.7443 90.7883C62.8588 91.1325 62.91 91.3914 62.8979 91.5651C62.9032 91.7383 62.8633 91.8519 62.7782 91.9058C62.6936 91.977 62.5563 92.0233 62.3662 92.0449ZM57.8858 89.2568C58.1269 89.1995 58.3579 89.0991 58.579 88.9555C58.8174 88.8116 59.0637 88.6415 59.3179 88.4452C59.8256 88.0352 60.2652 87.6615 60.6364 87.3239C61.0077 86.9864 61.2437 86.4784 61.3446 85.8C61.3692 85.4701 61.3267 85.211 61.2169 85.0227C61.124 84.8167 60.9709 84.6293 60.7577 84.4607C60.5456 84.3266 60.2581 84.281 59.8952 84.3236C59.5491 84.3486 59.1907 84.5385 58.82 84.8934C58.4157 85.2837 58.0239 85.8037 57.6448 86.4536C57.283 87.103 57.0209 87.8976 56.8587 88.8373C56.8293 89.0114 56.8855 89.1488 57.0273 89.2497C57.169 89.3506 57.4552 89.353 57.8858 89.2568ZM78.1478 91.1515C78.0286 91.2235 77.8631 91.2011 77.6515 91.0844C77.4572 90.9673 77.2611 90.7896 77.0631 90.5512C76.9355 90.346 76.842 90.1227 76.7827 89.8813C76.7407 89.6395 76.7131 89.302 76.7 88.8689C76.7068 88.522 76.6826 88.2971 76.6275 88.1943C76.5897 88.0911 76.4949 88.1106 76.3432 88.2526C76.1909 88.3773 75.9299 88.6344 75.5602 89.024C75.1401 89.4666 74.7344 89.8136 74.3432 90.065C73.9693 90.3159 73.6608 90.4354 73.4177 90.4234C73.2964 90.4261 73.1559 90.3685 72.9963 90.2506C72.8534 90.1151 72.7185 89.9534 72.5914 89.7654C72.4638 89.5602 72.3535 89.3546 72.2606 89.1486C72.145 88.7697 72.113 88.285 72.1645 87.6944C72.2327 87.0861 72.3522 86.4507 72.5228 85.7881C72.6935 85.1256 72.8912 84.4971 73.116 83.9027C73.358 83.3079 73.6035 82.8257 73.8524 82.4562C74.1187 82.0863 74.3558 81.899 74.5637 81.8944C74.7024 81.8914 74.8258 81.958 74.9339 82.0943C75.0594 82.2303 75.1873 82.4442 75.3175 82.736C75.3905 82.8558 75.4197 82.9591 75.405 83.0462C75.4076 83.1328 75.3414 83.2383 75.2065 83.3626C75.0568 83.5739 74.8843 83.8898 74.689 84.3102C74.511 84.7302 74.334 85.1848 74.1581 85.6741C73.9995 86.1631 73.8577 86.6343 73.7327 87.0878C73.6078 87.5413 73.5238 87.9159 73.4807 88.2116C73.4371 88.4899 73.45 88.6283 73.5193 88.6268C73.7619 88.6215 74.0449 88.5199 74.3684 88.3221C74.7087 88.1065 75.0303 87.8481 75.3333 87.5467C75.6862 87.1748 75.9947 86.7693 76.2589 86.3301C76.5403 85.8904 76.821 85.4248 77.1009 84.9332C77.3157 84.5818 77.5381 84.1955 77.7681 83.7743C78.0154 83.3528 78.1711 83.0546 78.2351 82.8799C78.4641 82.4241 78.6369 82.1169 78.7534 81.9583C78.8695 81.7823 79.0134 81.6665 79.1851 81.6107C79.2717 81.6088 79.3497 81.6071 79.419 81.6056C79.5057 81.6036 79.549 81.6027 79.549 81.6027C79.6535 81.6177 79.7772 81.693 79.92 81.8286C80.0607 81.8948 80.1408 81.9624 80.1603 82.0313C80.1792 82.0829 80.1899 82.152 80.1925 82.2387C80.1285 82.4135 80.0237 82.6758 79.8783 83.0257C79.7496 83.358 79.653 83.6028 79.5884 83.7603C79.2817 84.5125 78.9748 85.2561 78.6676 85.991C78.3772 86.7082 78.174 87.4408 78.0579 88.1889C78.0306 88.4322 78.0306 88.7182 78.058 89.047C78.1021 89.3581 78.1609 89.5822 78.2344 89.7193C78.2895 89.8221 78.3539 89.9421 78.4274 90.0791C78.5177 90.1985 78.6162 90.3004 78.7228 90.3847C78.8819 90.4852 78.9113 90.5973 78.811 90.7208C78.728 90.844 78.6099 90.9506 78.4565 91.0407C78.3027 91.1134 78.1998 91.1504 78.1478 91.1515ZM84.1238 90.838C83.6917 90.8822 83.275 90.8653 82.8738 90.7875C82.4899 90.7092 82.1562 90.5692 81.8726 90.3674C81.6059 90.1479 81.4158 89.8833 81.3023 89.5738C81.1737 89.3339 81.108 89.1706 81.1054 89.084C81.1023 88.9801 81.1603 88.8921 81.2795 88.8201C81.4181 88.8171 81.5407 88.8577 81.6473 88.9421C81.7707 89.0087 81.9291 89.0832 82.1223 89.1657C82.3891 89.3852 82.7047 89.4996 83.0691 89.5089C83.4509 89.5178 83.7956 89.4496 84.1034 89.3041C84.4111 89.1586 84.5791 88.9816 84.6075 88.7729C84.6054 88.7036 84.5757 88.5829 84.5185 88.4108C84.4612 88.2387 84.3951 88.0581 84.32 87.869C83.8321 87.221 83.4658 86.5789 83.2211 85.9428C82.9932 85.289 82.873 84.7542 82.8604 84.3384C82.8509 84.0266 82.9362 83.6953 83.1163 83.3446C83.2959 82.9766 83.5467 82.6676 83.8686 82.4178C84.1705 82.0818 84.5082 81.7796 84.8815 81.5114C85.2549 81.2431 85.6293 81.0095 86.0048 80.8105C86.3976 80.6112 86.7486 80.4647 87.0579 80.3713C87.2485 80.3671 87.5006 80.3875 87.8141 80.4326C88.1276 80.4777 88.3461 80.5336 88.4695 80.6003C88.6622 80.6654 88.8499 80.8519 89.0327 81.16C89.2149 81.4507 89.3105 81.7433 89.3194 82.0379C89.3231 82.1591 89.2931 82.3158 89.2296 82.5079C89.1661 82.7 89.0602 82.9277 88.9122 83.1911C88.8486 83.3832 88.7762 83.5668 88.6948 83.7419C88.6128 83.8998 88.5729 84.0134 88.575 84.0827C88.4942 84.2751 88.3757 84.3731 88.2198 84.3765C88.0806 84.3623 87.931 84.2875 87.7708 84.1524C87.6274 83.9995 87.5093 83.82 87.4163 83.614C87.3391 83.3557 87.3068 83.1484 87.3194 82.992C87.3315 82.8184 87.3953 82.635 87.5109 82.4417C87.6957 82.247 87.7871 82.1149 87.785 82.0456C87.7829 81.9763 87.6865 81.9438 87.4959 81.948C87.3746 81.9506 87.1517 82.0335 86.8271 82.1967C86.5194 82.3422 86.1873 82.5402 85.8307 82.7908C85.491 83.0236 85.1951 83.2728 84.943 83.5384C84.6232 83.8575 84.4307 84.0872 84.3656 84.2273C84.3178 84.367 84.2984 84.5842 84.3073 84.8787C84.3147 85.1213 84.3759 85.4233 84.4909 85.7849C84.6232 86.146 84.7519 86.3859 84.8768 86.5045C84.8768 86.5045 84.9412 86.6245 85.0698 86.8643C85.198 87.0869 85.3526 87.3262 85.5338 87.5823C86.0699 88.68 86.2241 89.4742 85.9962 89.9646C85.7683 90.4551 85.1442 90.7462 84.1238 90.838ZM92.3214 90.2675C91.6371 90.0052 91.1837 89.6338 90.961 89.1532C90.7552 88.655 90.6971 87.8848 90.7869 86.8426C90.8053 86.3047 90.8119 85.9492 90.8066 85.7759C90.8014 85.6027 90.7008 85.4315 90.5049 85.2624C90.4508 85.1943 90.3526 85.1011 90.2103 84.9829C90.0854 84.8643 90.0302 84.7614 90.0449 84.6744C90.0239 84.5535 90.0286 84.4234 90.0591 84.284C90.089 84.1274 90.1386 84.0482 90.208 84.0467C90.2773 84.0452 90.3461 84.0263 90.4143 83.9902C90.4999 83.9536 90.5779 83.9519 90.6483 83.985C90.7176 83.9835 90.7958 83.9904 90.883 84.0059C90.9702 84.0213 91.0148 84.0636 91.0169 84.1329C91.0899 84.2527 91.2031 84.2675 91.3564 84.1775C91.5092 84.0701 91.667 83.8413 91.8298 83.4909C91.9947 83.2099 92.2116 82.9277 92.4804 82.6444C92.7666 82.3608 93.0449 82.1032 93.3154 81.8719C93.6026 81.6229 93.84 81.4443 94.0274 81.3361C94.113 81.2996 94.2417 81.2534 94.4134 81.1976C94.5851 81.1418 94.7658 81.0945 94.9553 81.0557C95.1622 81.0164 95.3353 81.004 95.4744 81.0182C95.7869 81.0287 96.0494 81.1096 96.2621 81.261C96.4921 81.4119 96.7056 81.5893 96.9025 81.793C97.1325 81.944 97.2775 82.1488 97.3373 82.4076C97.4145 82.6659 97.4402 82.9427 97.4145 83.238C97.3888 83.5333 97.3189 83.8036 97.205 84.0488C97.1583 84.2232 97.0173 84.4343 96.782 84.6822C96.5468 84.9301 96.2766 85.1701 95.9715 85.4022C95.6664 85.6343 95.3854 85.8052 95.1287 85.9149C94.905 85.9718 94.6117 86.0216 94.2488 86.0643C93.9033 86.1065 93.5746 86.1311 93.2626 86.138C92.9675 86.1271 92.7672 86.0969 92.6616 86.0472C92.5382 85.9805 92.4458 86.0779 92.3844 86.3393C92.3229 86.6007 92.2822 86.9744 92.2623 87.4602C92.2392 87.8422 92.2476 88.1194 92.2875 88.2919C92.3274 88.4644 92.3657 88.5849 92.4025 88.6534C92.5275 88.772 92.6968 88.9243 92.9106 89.1103C93.1411 89.2786 93.4538 89.2977 93.8487 89.1677C94.1753 89.0738 94.4891 88.8415 94.79 88.4708C95.1082 88.0998 95.4025 87.7986 95.673 87.5672C95.7386 87.4444 95.8491 87.3727 96.0046 87.3519C96.1768 87.3134 96.359 87.3181 96.5512 87.3659C96.7455 87.483 96.828 87.6285 96.7986 87.8025C96.786 87.9588 96.7067 88.2033 96.5607 88.5359C96.5124 88.6583 96.3958 88.8169 96.211 89.0117C96.0429 89.1888 95.8492 89.3751 95.6297 89.5706C95.427 89.7484 95.2405 89.8912 95.0704 89.999C94.5589 90.2876 94.0782 90.4456 93.6281 90.4728C93.1776 90.4827 92.742 90.4143 92.3214 90.2675ZM93.6951 84.9582C94.0737 84.8632 94.3751 84.7959 94.5993 84.7563C94.8236 84.7167 95.0373 84.6166 95.2405 84.4561C95.4432 84.2783 95.6934 83.952 95.9912 83.4774C96.0547 83.2853 96.0663 83.0943 96.0258 82.9045C96.0027 82.7143 95.9555 82.5853 95.884 82.5175C95.7228 82.3477 95.5306 82.2999 95.3074 82.3742C95.1011 82.4307 94.9047 82.5304 94.7183 82.6732C94.5985 82.7279 94.4205 82.8618 94.1842 83.0751C93.9647 83.2706 93.7463 83.5008 93.5289 83.7656C93.3109 84.0131 93.1358 84.2424 93.0035 84.4533C92.8711 84.6643 92.8402 84.7863 92.9105 84.8194C92.878 84.8895 92.9746 84.9307 93.2004 84.9431C93.4435 84.9551 93.6084 84.9601 93.6951 84.9582ZM100.255 90.119C100.174 90.2941 100.046 90.349 99.8701 90.2835C99.7121 90.2176 99.58 90.1512 99.4739 90.0841C99.3526 90.0868 99.2476 90.0544 99.1589 89.9871C99.0701 89.9197 99.0063 89.817 98.9674 89.6792C98.9296 89.576 98.9173 89.4549 98.9304 89.3159C98.943 89.1596 98.9724 88.9856 99.0186 88.7939C99.0816 88.5845 99.1441 88.3577 99.2061 88.1136C99.3274 87.5388 99.4101 87.1209 99.4542 86.8599C99.4983 86.5989 99.5435 86.3725 99.5897 86.1808C99.6359 85.9891 99.6968 85.7103 99.7724 85.3446C99.9006 84.995 100.003 84.6547 100.08 84.3236C100.156 83.9925 100.276 83.6605 100.44 83.3275C100.547 82.8744 100.682 82.4467 100.843 82.0444C101.021 81.6244 101.192 81.2738 101.357 80.9928C101.39 80.9401 101.449 80.8695 101.533 80.7809C101.634 80.692 101.72 80.6468 101.789 80.6453C101.923 80.5036 102.043 80.449 102.148 80.4813C102.27 80.496 102.42 80.5707 102.597 80.7055C102.812 80.9261 102.898 81.1843 102.855 81.48C102.829 81.7753 102.634 82.213 102.27 82.7931C102.079 83.3348 101.902 83.8068 101.741 84.2091C101.579 84.594 101.469 84.9605 101.41 85.3086C101.592 85.0272 101.793 84.7714 102.011 84.5412C102.246 84.2933 102.44 84.0897 102.591 83.9303C102.96 83.5408 103.264 83.2567 103.501 83.0781C103.756 82.8991 104.053 82.6932 104.393 82.4603C104.597 82.3172 104.792 82.1915 104.98 82.0834C105.167 81.9579 105.372 81.8667 105.596 81.8098C105.837 81.7524 106.097 81.7467 106.376 81.7926C106.548 81.7715 106.689 81.8204 106.796 81.9394C106.921 82.058 107.022 82.2205 107.097 82.4269C107.173 82.6332 107.223 82.8748 107.249 83.1517C106.848 83.0738 106.493 83.0989 106.185 83.2271C105.876 83.3379 105.612 83.4738 105.391 83.6346C105.188 83.7951 105.027 83.92 104.908 84.0093C104.653 84.1883 104.331 84.4294 103.942 84.7327C103.551 85.0187 103.163 85.3653 102.777 85.7726C102.475 86.126 102.216 86.4264 101.998 86.6739C101.797 86.921 101.63 87.1414 101.497 87.3351C101.382 87.5283 101.293 87.7296 101.23 87.9391C101.068 88.3414 100.9 88.7785 100.723 89.2505C100.547 89.7225 100.391 90.012 100.255 90.119ZM117.461 90.0525C116.961 90.1501 116.501 90.1343 116.081 90.0048C115.66 89.858 115.314 89.6142 115.044 89.2735C114.79 88.915 114.655 88.4585 114.638 87.9041C114.571 87.3855 114.613 86.7864 114.766 86.1069C114.918 85.4101 115.148 84.7115 115.457 84.0113C115.782 83.3106 116.137 82.7047 116.52 82.1935C116.854 81.7701 117.189 81.3813 117.525 81.0272C117.861 80.673 118.166 80.4323 118.44 80.3049C118.679 80.1956 118.903 80.13 119.11 80.1081C119.334 80.0685 119.516 80.0472 119.654 80.0441C119.934 80.1073 120.232 80.2308 120.55 80.4145C120.884 80.5805 121.055 80.7675 121.061 80.9754C121.061 80.9754 121.079 81.001 121.115 81.0522C121.168 81.0857 121.195 81.1025 121.195 81.1025C121.299 81.1002 121.389 81.2109 121.465 81.4346C121.559 81.6579 121.619 81.9166 121.645 82.2108C121.671 82.4876 121.634 82.7225 121.536 82.9153C121.477 83.246 121.364 83.5346 121.198 83.7809C121.032 84.0273 120.88 84.152 120.741 84.1551C120.672 84.1566 120.603 84.1668 120.534 84.1856C120.482 84.1868 120.457 84.2307 120.46 84.3173C120.463 84.4039 120.412 84.4397 120.307 84.4247C120.22 84.4093 120.123 84.3594 120.017 84.275C119.91 84.1734 119.828 84.0538 119.772 83.9163C119.769 83.8297 119.799 83.6817 119.862 83.4723C119.925 83.2628 119.986 82.9928 120.046 82.6621C120.135 82.1747 120.117 81.863 119.991 81.7271C119.865 81.5738 119.631 81.5703 119.289 81.7165C118.863 81.9686 118.457 82.3156 118.072 82.7575C117.704 83.199 117.366 83.7699 117.057 84.4702C116.749 85.1531 116.48 86.0085 116.251 87.0364C116.159 87.4372 116.126 87.7847 116.152 88.0788C116.196 88.3726 116.244 88.5276 116.296 88.5438C116.541 88.6077 116.871 88.6178 117.286 88.574C117.7 88.5129 118.001 88.4282 118.188 88.3201C118.461 88.1754 118.768 87.9866 119.108 87.7538C119.447 87.5036 119.744 87.2803 119.998 87.084C120.083 87.0301 120.184 86.9412 120.302 86.8173C120.419 86.6933 120.546 86.5952 120.683 86.5228C120.815 86.3119 120.933 86.1879 121.036 86.151C121.139 86.1141 121.294 86.0933 121.502 86.0887C121.642 86.1203 121.773 86.1694 121.897 86.2361C122.02 86.3027 122.1 86.3703 122.137 86.4388C122.191 86.507 122.167 86.5682 122.065 86.6225C121.995 86.624 121.953 86.6509 121.937 86.7033C121.938 86.7379 121.939 86.7553 121.939 86.7553C121.975 86.8238 121.902 86.9728 121.718 87.2022C121.551 87.4139 121.333 87.6528 121.063 87.9188C120.794 88.1847 120.532 88.4159 120.278 88.6122C120.041 88.7908 119.87 88.8812 119.766 88.8835C119.593 88.8873 119.508 88.9412 119.511 89.0451C119.512 89.0798 119.385 89.1693 119.129 89.3136C118.891 89.4575 118.609 89.6024 118.284 89.7483C117.976 89.8938 117.702 89.9951 117.461 90.0525ZM128.423 89.1871C128.069 89.507 127.65 89.6982 127.166 89.7609C126.7 89.8232 126.238 89.764 125.782 89.5833C125.325 89.3853 124.943 89.0817 124.636 88.6723C124.33 88.2976 124.126 87.8687 124.025 87.3855C123.923 86.885 123.895 86.2355 123.94 85.437C123.971 84.7601 124.167 84.0797 124.528 83.3956C124.888 82.6942 125.329 82.069 125.85 81.5201C126.388 80.9709 126.923 80.5863 127.454 80.3666C127.708 80.1876 127.922 80.1049 128.096 80.1184C128.287 80.1142 128.573 80.1253 128.956 80.1515C129.356 80.1947 129.653 80.2662 129.847 80.366C130.058 80.4654 130.226 80.6003 130.353 80.7709C130.621 81.0251 130.802 81.2812 130.897 81.5391C130.991 81.7798 131.041 82.0214 131.049 82.2639C130.991 82.6466 130.745 83.1201 130.311 83.6844C129.894 84.2311 129.336 84.6854 128.636 85.0476C128.258 85.1773 127.844 85.2384 127.393 85.231C126.942 85.2236 126.566 85.1191 126.265 84.9177C125.931 84.7864 125.716 84.8171 125.617 85.01C125.519 85.1855 125.437 85.6207 125.371 86.3157C125.322 86.9756 125.388 87.4595 125.571 87.7676C125.753 88.0583 125.992 88.2264 126.289 88.2719C126.637 88.3336 126.907 88.3796 127.099 88.4101C127.308 88.4228 127.557 88.3393 127.846 88.1596C128.118 87.9803 128.288 87.8812 128.357 87.8623C128.425 87.8261 128.476 87.7903 128.51 87.7549C128.56 87.7018 128.67 87.5867 128.838 87.4096C128.955 87.2857 129.048 87.197 129.116 87.1435C129.183 87.0726 129.26 87.0363 129.346 87.0344C129.433 87.0325 129.512 87.0741 129.584 87.1592C129.656 87.2269 129.727 87.2774 129.797 87.3105C129.97 87.3067 130.008 87.4099 129.91 87.6201C129.83 87.8299 129.656 88.0851 129.387 88.3857C129.119 88.6691 128.797 88.9362 128.423 89.1871ZM128.23 83.6782C128.418 83.5874 128.614 83.4617 128.817 83.3012C129.02 83.1234 129.188 82.9377 129.32 82.744C129.47 82.5327 129.543 82.3577 129.539 82.2191C129.531 81.9766 129.413 81.7798 129.183 81.6288C128.952 81.4606 128.613 81.442 128.166 81.5732C127.977 81.6294 127.765 81.7641 127.528 81.9773C127.292 82.1732 127.064 82.3949 126.846 82.6425C126.646 82.8896 126.479 83.11 126.346 83.3036C126.231 83.4968 126.191 83.6104 126.226 83.6443C126.281 83.7298 126.43 83.7958 126.675 83.8425C126.918 83.8718 127.187 83.8745 127.481 83.8507C127.793 83.8265 128.042 83.769 128.23 83.6782ZM140.378 89.5222C140.204 89.526 140.019 89.4347 139.823 89.2484C139.644 89.0616 139.481 88.8311 139.334 88.557C139.204 88.2651 139.135 87.9892 139.127 87.7294C139.119 87.4695 139.165 86.983 139.265 86.27C139.382 85.5566 139.524 84.834 139.693 84.1021C139.818 83.6486 139.853 83.3878 139.799 83.3196C139.745 83.2515 139.514 83.3519 139.106 83.621C138.867 83.7476 138.655 83.8823 138.468 84.0251C138.281 84.1506 138.121 84.2928 137.987 84.4518C137.902 84.523 137.776 84.6384 137.607 84.7982C137.439 84.9579 137.261 85.1092 137.075 85.252C136.855 85.4302 136.576 85.679 136.239 85.9985C135.902 86.318 135.565 86.6375 135.228 86.957C134.908 87.2761 134.664 87.5242 134.496 87.7012C134.463 87.7713 134.413 87.8331 134.345 87.8866C134.278 87.9401 134.201 87.9764 134.115 87.9957C134.028 87.9976 133.932 87.9824 133.827 87.95C133.635 87.9022 133.45 87.7936 133.271 87.6242C133.11 87.4543 133.026 87.2568 133.019 87.0316C133.014 86.8583 133.074 86.5623 133.2 86.1434C133.326 85.7072 133.492 85.1835 133.699 84.5721C133.923 83.9604 134.181 83.3132 134.472 82.6307C134.522 82.5429 134.562 82.438 134.593 82.316C134.623 82.1766 134.645 82.0288 134.657 81.8725C134.687 81.7158 134.7 81.5681 134.696 81.4295C134.693 81.3429 134.699 81.2561 134.714 81.1691C134.746 81.0644 134.777 80.9683 134.809 80.8809C134.858 80.7758 134.899 80.7056 134.933 80.6702C134.998 80.53 135.118 80.4927 135.294 80.5582C135.469 80.6064 135.62 80.7244 135.747 80.9123C136.014 81.1491 136.153 81.4495 136.164 81.8133C136.193 82.1768 136.12 82.6291 135.945 83.1704C135.88 83.2932 135.823 83.4158 135.774 83.5382C135.743 83.643 135.711 83.739 135.679 83.8264C135.646 83.8965 135.622 83.9577 135.606 84.01C135.59 84.0451 135.582 84.0626 135.582 84.0626C135.651 84.0611 135.805 83.9797 136.043 83.8184C136.281 83.6571 136.561 83.4776 136.885 83.2798C137.139 83.0835 137.359 82.9052 137.545 82.7451C137.748 82.5673 137.917 82.4335 138.053 82.3439C138.189 82.2369 138.274 82.183 138.308 82.1822C138.378 82.1807 138.463 82.1528 138.566 82.0985C138.668 82.0443 138.753 81.9817 138.82 81.9109C138.887 81.8401 138.938 81.8043 138.973 81.8035C139.025 81.785 139.05 81.7758 139.05 81.7758C139.05 81.7758 139.085 81.775 139.154 81.7735C139.223 81.7547 139.291 81.7098 139.358 81.639C139.494 81.532 139.675 81.502 139.902 81.549C140.128 81.5787 140.339 81.6608 140.533 81.7952C140.728 81.9296 140.828 82.0834 140.834 82.2567C140.836 82.326 140.855 82.3862 140.891 82.4374C140.944 82.471 140.971 82.4877 140.971 82.4877C141.109 82.4847 141.202 82.6993 141.25 83.1317C141.315 83.5637 141.285 83.9804 141.158 84.382C141.166 84.6419 141.123 84.9549 141.031 85.321C140.955 85.6867 140.887 86.0349 140.828 86.3657C140.703 86.8018 140.619 87.1851 140.577 87.5154C140.535 87.8457 140.535 88.1231 140.576 88.3476C140.618 88.5721 140.684 88.7527 140.775 88.8894C140.848 89.0091 140.852 89.1477 140.787 89.3052C140.722 89.4453 140.585 89.5176 140.378 89.5222ZM146.41 91.0018C145.836 90.9278 145.439 90.7198 145.221 90.3779C145.02 90.0529 144.961 89.5427 145.044 88.8474C145.138 88.5159 145.19 88.2201 145.199 87.9598C145.226 87.6819 145.298 87.5069 145.418 87.4349C145.418 87.4349 145.425 87.4087 145.441 87.3564C145.474 87.3036 145.464 87.2519 145.41 87.201C145.404 86.9758 145.472 86.6622 145.616 86.2603C145.648 86.1556 145.687 86.0334 145.735 85.8936C145.8 85.7362 145.832 85.6574 145.832 85.6574C145.741 85.5207 145.738 85.4081 145.822 85.3196C145.906 85.2311 145.99 85.1512 146.074 85.08C146.176 84.9911 146.182 84.8956 146.092 84.7935C146.055 84.725 146.094 84.5681 146.208 84.3229C146.321 84.0603 146.451 83.7887 146.599 83.5081C146.747 83.2275 146.844 83.0086 146.891 82.8515C146.89 82.8169 146.93 82.6947 147.01 82.4848C147.091 82.275 147.187 82.0302 147.3 81.7503C147.413 81.4704 147.518 81.2167 147.615 80.9892C147.73 80.7613 147.803 80.6124 147.836 80.5423C148.006 80.4518 147.935 80.3927 147.622 80.3649C147.309 80.3372 146.98 80.3357 146.634 80.3607C146.096 80.3552 145.662 80.3387 145.332 80.3113C145.019 80.2835 144.756 80.2113 144.545 80.0946C144.329 79.8566 144.246 79.6851 144.295 79.58C144.361 79.4572 144.567 79.3833 144.913 79.3583C145.137 79.3361 145.31 79.3236 145.432 79.3209C145.57 79.3179 145.743 79.3054 145.951 79.2835C146.175 79.2439 146.52 79.1929 146.987 79.1307L148.309 78.9976L148.374 78.554C148.505 78.3258 148.612 78.124 148.693 77.9489C148.792 77.756 148.873 77.5635 148.936 77.3714C149 77.1793 149.046 76.9789 149.074 76.7703C149.074 76.7703 149.148 76.6299 149.295 76.3493C149.442 76.0513 149.528 75.7461 149.554 75.4334C149.751 75.0824 149.924 74.7665 150.071 74.4859C150.218 74.1879 150.308 74.0039 150.34 73.9338C150.526 73.7737 150.654 73.6929 150.723 73.6913C150.81 73.6894 150.986 73.7722 151.251 73.9398C151.41 74.023 151.551 74.1239 151.676 74.2425C151.801 74.3611 151.883 74.4893 151.922 74.6272C151.961 74.7477 151.912 74.8701 151.777 74.9944C151.745 75.0645 151.697 75.1956 151.633 75.3877C151.569 75.5625 151.522 75.7109 151.491 75.8329C151.39 75.9565 151.266 76.1586 151.119 76.4392C150.988 76.7021 150.901 76.9728 150.857 77.2511C150.728 77.5487 150.606 77.8201 150.492 78.0653C150.377 78.2932 150.285 78.408 150.216 78.4095C150.256 78.582 150.363 78.6663 150.536 78.6625C150.709 78.6414 150.994 78.6177 151.392 78.5916C151.72 78.5498 151.945 78.5101 152.065 78.4728C152.202 78.4178 152.358 78.4317 152.534 78.5145C152.625 78.6339 152.698 78.771 152.755 78.9257C152.811 79.0805 152.825 79.2276 152.794 79.367C152.781 79.4886 152.714 79.5768 152.594 79.6314C152.507 79.6333 152.327 79.6893 152.053 79.7994C151.796 79.8917 151.468 79.9509 151.07 79.977L149.696 80.1373L149.281 81.0306C149.167 81.2585 149.069 81.4687 148.988 81.6612C148.907 81.8363 148.849 81.9416 148.816 81.977C148.819 82.081 148.763 82.2382 148.648 82.4488C148.55 82.659 148.444 82.8867 148.33 83.1319C148.235 83.4288 148.122 83.7 147.991 83.9456C147.877 84.1908 147.82 84.3134 147.82 84.3134C147.751 84.3149 147.718 84.3677 147.721 84.4716C147.814 84.6776 147.792 84.8341 147.657 84.9411C147.572 84.995 147.496 85.0747 147.43 85.1802C147.381 85.2679 147.356 85.3118 147.356 85.3118C147.427 85.3796 147.439 85.466 147.39 85.5711C147.358 85.6759 147.31 85.7896 147.244 85.9124C147.248 86.051 147.211 86.2512 147.132 86.513C147.071 86.7744 147 87.0187 146.92 87.2458C146.947 87.5573 146.971 87.7561 146.991 87.8424C147.01 87.9286 147.055 87.9623 147.124 87.9435C147.211 87.9589 147.289 87.9572 147.358 87.9383C147.426 87.9195 147.495 87.9093 147.565 87.9078C147.804 87.7985 147.693 88.4077 147.23 89.7355C146.966 90.1748 146.785 90.4908 146.687 90.6837C146.589 90.8939 146.497 90.9999 146.41 91.0018ZM153.103 88.6441C152.943 88.5263 152.827 88.4075 152.754 88.2877C152.698 88.1676 152.691 87.9337 152.733 87.586C152.77 87.0998 152.826 86.6738 152.902 86.308C152.977 85.925 153.068 85.4895 153.175 85.0018C153.203 84.7931 153.287 84.4358 153.428 83.93C153.586 83.4237 153.778 82.8734 154.002 82.279C154.227 81.6846 154.453 81.1248 154.68 80.5997C154.906 80.0573 155.102 79.6543 155.267 79.3906C155.403 79.2836 155.566 79.2366 155.757 79.2498C155.966 79.2625 156.141 79.3367 156.284 79.4722C156.48 79.6239 156.514 79.9006 156.387 80.3021C156.278 80.6859 156.036 81.298 155.663 82.1384C155.469 82.6108 155.324 82.9694 155.227 83.2142C155.13 83.4418 155.091 83.5813 155.11 83.6329C155.128 83.6672 155.205 83.6395 155.341 83.5498C155.44 83.3569 155.624 83.1362 155.894 82.8875C156.163 82.6215 156.45 82.3638 156.755 82.1144C157.059 81.865 157.347 81.6419 157.619 81.4453C157.89 81.2486 158.077 81.1231 158.179 81.0689C158.315 80.9792 158.469 80.9064 158.641 80.8507C158.83 80.7772 158.958 80.7223 159.026 80.6861C159.419 80.4868 159.824 80.4085 160.242 80.4514C160.659 80.4942 160.924 80.6444 161.036 80.902C161.057 81.0402 161.112 81.143 161.201 81.2104C161.307 81.2774 161.36 81.3109 161.36 81.3109C161.429 81.3094 161.465 81.3346 161.466 81.3866C161.485 81.4382 161.495 81.464 161.495 81.464C161.499 81.5853 161.406 81.6653 161.216 81.7042C161.043 81.7253 160.818 81.7476 160.542 81.771C160.317 81.7933 160.119 81.841 159.948 81.9141C159.777 81.9872 159.571 82.0784 159.332 82.1877C158.685 82.5834 158.064 82.9698 157.468 83.347C156.89 83.7238 156.333 84.2215 155.797 84.84C155.68 84.9813 155.563 85.1486 155.448 85.3418C155.332 85.5351 155.209 85.7458 155.077 85.9741C154.993 86.0627 154.912 86.2551 154.834 86.5516C154.756 86.848 154.687 87.1356 154.626 87.4143C154.582 87.6754 154.561 87.8319 154.562 87.8838C154.562 87.8838 154.539 87.971 154.492 88.1454C154.445 88.3025 154.363 88.4603 154.247 88.6189C154.047 88.9007 153.878 89.0431 153.739 89.0462C153.601 89.0492 153.389 88.9152 153.103 88.6441ZM163.279 88.5242C163.018 88.4953 162.787 88.3183 162.586 87.9933C162.402 87.6507 162.289 87.3411 162.246 87.0646C162.259 86.9257 162.27 86.726 162.28 86.4658C162.307 86.2051 162.333 85.9358 162.359 85.6579C162.419 85.3271 162.502 84.9266 162.609 84.4561C162.716 83.9683 162.822 83.4805 162.929 82.9928C163.053 82.5046 163.162 82.0861 163.255 81.7373C163.348 81.3885 163.411 81.1791 163.444 81.109C163.526 80.9685 163.664 80.9308 163.857 80.9959C164.05 81.0611 164.209 81.1616 164.334 81.2975C164.442 81.4338 164.508 81.5971 164.531 81.7873C164.571 81.9771 164.554 82.2549 164.478 82.6206C164.42 82.986 164.298 83.5261 164.111 84.241C163.942 84.9382 163.811 85.5045 163.721 85.94C163.647 86.3577 163.625 86.8002 163.657 87.2676C163.605 87.8582 163.564 88.2232 163.534 88.3626C163.503 88.4846 163.418 88.5385 163.279 88.5242ZM165.954 78.0892C165.886 78.1427 165.817 78.1702 165.748 78.1718C165.695 78.1556 165.599 78.1057 165.457 78.0221C165.336 78.0075 165.177 77.9329 164.982 77.7985C164.804 77.6464 164.644 77.4939 164.5 77.341C164.374 77.1704 164.31 77.0678 164.309 77.0332C164.286 76.8603 164.288 76.6435 164.315 76.3829C164.359 76.1046 164.447 75.8599 164.579 75.6489C164.711 75.4207 164.906 75.295 165.166 75.272C165.235 75.2704 165.296 75.2778 165.349 75.2939C165.401 75.3101 165.559 75.3673 165.822 75.4656C165.969 75.7224 166.116 76.0139 166.265 76.34C166.413 76.6488 166.483 76.9593 166.475 77.2716C166.467 77.5665 166.293 77.839 165.954 78.0892ZM169.563 88.594C169.182 88.6024 168.895 88.5913 168.704 88.5609C168.512 88.5304 168.363 88.4817 168.257 88.4147C168.151 88.3477 168.027 88.2551 167.884 88.1368C167.811 87.9997 167.72 87.8544 167.611 87.7007C167.502 87.5471 167.412 87.4364 167.341 87.3686C167.264 87.1103 167.219 86.7732 167.206 86.3574C167.211 85.9412 167.249 85.4896 167.321 85.0026C167.411 84.5152 167.536 84.0617 167.696 83.642C167.761 83.5019 167.818 83.362 167.866 83.2222C167.913 83.0825 167.937 83.0126 167.937 83.0126C167.935 82.926 168.032 82.7158 168.23 82.382C168.446 82.0479 168.678 81.696 168.927 81.3265C169.193 80.9566 169.41 80.6917 169.579 80.532C169.696 80.3907 169.873 80.2394 170.111 80.0782C170.366 79.9165 170.588 79.7989 170.777 79.7255C170.965 79.652 171.154 79.5871 171.343 79.531C171.55 79.4744 171.783 79.4433 172.043 79.4375C172.285 79.4322 172.512 79.4792 172.723 79.5786C172.934 79.678 173.139 79.8555 173.338 80.1112C173.659 80.4162 173.842 80.7242 173.886 81.0353C173.947 81.3287 173.947 81.6321 173.887 81.9455C173.811 82.2939 173.707 82.5649 173.574 82.7585C173.441 82.9349 173.287 83.0162 173.113 83.0027C172.939 82.9892 172.736 82.8637 172.503 82.6261C172.43 82.489 172.392 82.3771 172.389 82.2905C172.386 82.1866 172.416 82.0385 172.48 81.8464C172.542 81.6023 172.534 81.3511 172.457 81.0928C172.38 80.8344 172.263 80.707 172.107 80.7104C171.882 80.7153 171.634 80.8248 171.363 81.0388C171.109 81.2351 170.847 81.4836 170.579 81.7842C170.462 81.9255 170.295 82.1459 170.079 82.4454C169.879 82.7271 169.681 83.0436 169.483 83.3947C169.286 83.7284 169.122 84.0528 168.993 84.3677C168.819 84.9436 168.677 85.4061 168.567 85.7553C168.473 86.1041 168.426 86.2785 168.426 86.2785C168.429 86.3478 168.448 86.4167 168.485 86.4853C168.538 86.5361 168.566 86.5962 168.568 86.6655C168.575 86.8734 168.701 87.0353 168.947 87.1512C169.141 87.2683 169.369 87.3327 169.629 87.3443C169.889 87.3386 170.207 87.2449 170.583 87.0632C170.856 86.9185 171.111 86.7309 171.346 86.5003C171.599 86.2694 171.862 86.0642 172.134 85.8849C172.321 85.7594 172.465 85.6522 172.567 85.5633C172.685 85.474 172.746 85.464 172.748 85.5333C172.75 85.6026 172.777 85.6367 172.829 85.6355C172.881 85.6344 172.94 85.5984 173.008 85.5276C173.107 85.3867 173.217 85.2976 173.338 85.2603C173.457 85.2056 173.561 85.186 173.648 85.2014C173.752 85.1991 173.805 85.224 173.806 85.276C173.776 85.4327 173.815 85.5618 173.922 85.6635C173.924 85.7328 173.901 85.8287 173.853 85.9511C173.821 86.0558 173.772 86.1436 173.705 86.2144C173.622 86.3376 173.496 86.479 173.327 86.6388C173.176 86.7981 173.033 86.94 172.898 87.0643C172.763 87.1713 172.695 87.2248 172.695 87.2248C172.625 87.209 172.556 87.2279 172.489 87.2814C172.438 87.3345 172.379 87.3965 172.312 87.4673C172.177 87.5916 172.05 87.6898 171.931 87.7617C171.811 87.8164 171.717 87.8445 171.647 87.846C171.528 87.918 171.434 87.9634 171.365 87.9822C171.314 88.0007 171.289 88.0446 171.291 88.1139C171.123 88.2909 170.91 88.417 170.652 88.492C170.411 88.5493 170.048 88.5833 169.563 88.594ZM34.6143 121.894C34.42 121.776 34.2419 121.624 34.0802 121.437C33.9179 121.233 33.8321 120.975 33.8226 120.663C33.8174 120.489 33.8431 120.194 33.8998 119.777C33.9565 119.359 34.0376 118.89 34.1432 118.367C34.2487 117.845 34.3553 117.357 34.463 116.904C34.6268 116.588 34.7647 116.273 34.8765 115.959C34.9884 115.644 35.0432 115.452 35.0411 115.383C35.0695 115.174 35.1055 114.931 35.149 114.652C35.21 114.374 35.2717 114.121 35.3342 113.894C35.3966 113.667 35.4447 113.536 35.4783 113.501C35.5623 113.412 35.6647 113.358 35.7855 113.338C35.9057 113.301 36.0276 113.315 36.151 113.382C36.2912 113.431 36.3986 113.541 36.4731 113.713C36.6701 113.917 36.773 114.166 36.7819 114.46C36.7903 114.738 36.7076 115.155 36.5338 115.714C36.3884 116.064 36.2447 116.475 36.103 116.946C35.9612 117.417 35.8357 117.853 35.7264 118.254C35.634 118.638 35.5813 118.899 35.5681 119.038L35.053 119.205C35.3392 118.922 35.6078 118.63 35.8588 118.329C36.1093 118.012 36.2925 117.765 36.4086 117.589C36.6911 117.184 36.9324 116.85 37.1325 116.585C37.3493 116.303 37.6253 115.967 37.9603 115.579C38.2948 115.173 38.6254 114.923 38.952 114.829C39.2954 114.717 39.5625 114.659 39.7531 114.655C40.1364 114.716 40.4457 114.908 40.681 115.233C40.933 115.539 41.1032 116.004 41.1914 116.626C41.1988 116.868 41.1814 117.155 41.1394 117.485C41.1148 117.815 41.1024 117.98 41.1024 117.98C41.1024 117.98 41.2355 117.795 41.5018 117.425C41.7853 117.055 42.1632 116.648 42.6352 116.204C42.9571 115.954 43.2735 115.808 43.5844 115.767C43.8948 115.708 44.1752 115.806 44.4257 116.06C44.8836 116.293 45.1895 116.659 45.3433 117.159C45.4967 117.641 45.5502 118.264 45.504 119.027C45.4657 119.479 45.4673 119.817 45.5088 120.041C45.5497 120.249 45.608 120.455 45.6836 120.662C45.8244 120.728 45.8548 120.875 45.775 121.102C45.6947 121.312 45.5938 121.418 45.4725 121.421C45.2992 121.424 45.0989 121.394 44.8715 121.33C44.6615 121.265 44.4674 121.157 44.2894 121.005C44.1282 120.835 44.0431 120.603 44.0342 120.308L43.9854 118.697C43.9738 118.316 43.947 118.004 43.905 117.762C43.8803 117.52 43.8325 117.374 43.7616 117.323C43.5679 117.224 43.294 117.342 42.9401 117.68C42.5862 118.017 42.2096 118.467 41.8106 119.031C41.4115 119.594 41.0389 120.175 40.6928 120.772C40.3799 121.316 40.1814 121.632 40.0974 121.721C40.0301 121.792 39.8994 121.769 39.7051 121.652C39.3202 121.539 39.0726 121.379 38.9623 121.174C38.8688 120.95 38.8525 120.699 38.9134 120.421C38.9912 120.124 39.0831 119.723 39.1891 119.218C39.3125 118.713 39.4278 118.225 39.5349 117.754C39.6415 117.267 39.709 116.918 39.7373 116.71C39.6638 116.573 39.5412 116.532 39.3695 116.588C39.2146 116.626 39.0523 116.708 38.8827 116.833C38.679 116.976 38.4356 117.241 38.1525 117.629C37.8695 118.016 37.5796 118.465 37.2829 118.974C37.085 119.308 36.8783 119.642 36.663 119.976C36.4472 120.293 36.2476 120.575 36.0644 120.821C35.8811 121.068 35.722 121.254 35.587 121.378C35.356 121.765 35.1977 121.976 35.1121 122.013C35.0265 122.049 34.8605 122.009 34.6143 121.894ZM48.4317 121.59C48.3624 121.591 48.2752 121.576 48.1702 121.543C48.082 121.493 48.0379 121.468 48.0379 121.468C48.0358 121.399 48.0072 121.313 47.952 121.21C47.9142 121.107 47.8943 121.021 47.8922 120.951C47.7688 120.885 47.6973 120.817 47.6779 120.748C47.658 120.662 47.6798 120.523 47.7433 120.33C47.842 120.155 47.9722 119.875 48.134 119.49C48.2952 119.087 48.4643 118.659 48.6412 118.204C48.8177 117.732 48.9857 117.269 49.1454 116.815C49.305 116.361 49.4407 115.976 49.5526 115.662C49.6639 115.33 49.7272 115.129 49.7424 115.059C49.7403 114.99 49.7637 114.903 49.8125 114.798C49.8613 114.693 49.9194 114.605 49.9866 114.534C50.1215 114.41 50.2686 114.398 50.4277 114.498C50.5863 114.581 50.721 114.734 50.8318 114.957C50.9594 115.163 51.0271 115.395 51.035 115.655C51.0387 115.776 50.9615 116.09 50.8034 116.596C50.6449 117.085 50.4285 117.671 50.1544 118.353C49.8976 119.035 49.6064 119.726 49.2809 120.427C49.0362 120.935 48.8812 121.259 48.8161 121.399C48.7505 121.522 48.6224 121.585 48.4317 121.59ZM51.9542 111.656C51.7463 111.661 51.5186 111.588 51.2713 111.437C51.0408 111.269 50.8352 111.065 50.6545 110.826C50.4907 110.57 50.4048 110.312 50.3969 110.052C50.3943 109.965 50.4426 109.843 50.5419 109.685C50.6411 109.526 50.7404 109.368 50.8396 109.21C50.9389 109.052 50.988 108.955 50.9869 108.921C51.1256 108.918 51.2298 108.924 51.2996 108.94C51.3863 108.938 51.4913 108.97 51.6147 109.037C51.8185 109.466 52.0632 109.816 52.3488 110.087C52.6518 110.358 52.8062 110.588 52.812 110.779C52.8236 111.16 52.7963 111.403 52.7301 111.509C52.6634 111.597 52.4048 111.646 51.9542 111.656ZM61.9904 121.369C61.6438 121.377 61.3558 121.314 61.1263 121.18C60.8963 121.029 60.6981 120.782 60.5316 120.439C60.455 120.198 60.3862 119.931 60.3252 119.637C60.2811 119.326 60.2551 119.041 60.2473 118.781C60.2389 118.504 60.2593 118.321 60.3087 118.234C60.3759 118.163 60.3982 118.041 60.3756 117.868C60.3699 117.677 60.3638 117.478 60.3575 117.27C60.3297 116.924 60.2373 116.735 60.0803 116.704C59.94 116.655 59.7337 116.712 59.4611 116.874C59.155 117.071 58.7556 117.34 58.2631 117.68C57.77 118.003 57.2519 118.361 56.709 118.755C56.1833 119.148 55.6842 119.558 55.2116 119.984C54.8429 120.408 54.6187 120.734 54.5389 120.961C54.4759 121.17 54.3751 121.277 54.2364 121.28C54.0999 121.352 53.9789 121.363 53.8733 121.314C53.7846 121.246 53.6514 121.145 53.4739 121.01C53.3484 120.875 53.2232 120.747 53.0982 120.629C52.9727 120.493 52.8916 120.39 52.8548 120.322C52.8522 120.235 52.8727 120.053 52.9162 119.774C52.9598 119.496 53.0121 119.218 53.073 118.939C53.1512 118.66 53.2064 118.477 53.2384 118.389C53.3251 118.387 53.3917 118.299 53.4385 118.125C53.5025 117.95 53.6007 117.757 53.7331 117.546C53.7614 117.337 53.8397 117.058 53.9678 116.709C54.1127 116.341 54.2416 116.018 54.3545 115.738C54.5845 115.317 54.7387 114.967 54.8169 114.688C54.9125 114.408 54.9713 114.06 54.9933 113.644C54.9739 113.575 54.9894 113.514 55.0398 113.46C55.0897 113.39 55.1493 113.354 55.2186 113.353C55.3531 113.211 55.5166 113.173 55.7094 113.238C55.9015 113.285 56.0788 113.412 56.241 113.616C56.5656 114.025 56.7 114.455 56.6443 114.907C56.6055 115.342 56.3471 115.972 55.8693 116.797C55.7564 117.077 55.6676 117.295 55.603 117.453C55.5553 117.593 55.5327 117.706 55.5353 117.792C55.5353 117.792 55.6201 117.73 55.7897 117.605C55.9767 117.479 56.1804 117.336 56.401 117.175C56.6383 116.997 56.825 116.863 56.961 116.773C57.045 116.684 57.2396 116.524 57.5447 116.292C57.8498 116.06 58.1725 115.836 58.5127 115.621C58.8698 115.387 59.1345 115.251 59.3067 115.213C59.4433 115.141 59.5887 115.077 59.7431 115.021C59.897 114.949 60.0086 114.911 60.0779 114.91C60.2165 114.907 60.3922 114.981 60.6048 115.132C60.8343 115.266 61.0475 115.435 61.2445 115.638C61.4408 115.825 61.5585 115.987 61.5973 116.125C61.5994 116.194 61.6015 116.263 61.6036 116.333C61.6231 116.402 61.6425 116.471 61.6619 116.539C61.7381 116.763 61.7819 117.066 61.7935 117.447C61.8224 117.827 61.8242 118.174 61.799 118.487C61.7738 118.799 61.7187 118.983 61.6336 119.037C61.6336 119.037 61.6344 119.063 61.636 119.115C61.6543 119.149 61.6982 119.165 61.7675 119.164C61.7696 119.233 61.7709 119.276 61.7714 119.294C61.6848 119.295 61.6525 119.374 61.6746 119.53C61.6961 119.668 61.7528 119.823 61.8447 119.994C61.9539 120.165 62.0621 120.301 62.1692 120.403C62.3835 120.606 62.4762 120.804 62.4473 120.995C62.4179 121.169 62.2656 121.294 61.9904 121.369ZM71.1737 122.103C71.1043 122.105 71.0001 122.098 70.8609 122.084C70.7386 122.052 70.6322 121.977 70.5419 121.857C70.2725 121.551 70.1 121.295 70.0244 121.088C69.9488 120.882 69.9309 120.579 69.9708 120.179C69.9976 119.919 70.0081 119.693 70.0023 119.503C70.0134 119.294 70.0254 119.121 70.0386 118.982C69.9672 118.914 69.8388 118.969 69.6534 119.146C69.4848 119.306 69.2483 119.51 68.9437 119.76C68.375 120.449 67.8622 120.98 67.4053 121.354C66.9653 121.711 66.5651 121.953 66.2049 122.083C65.8442 122.195 65.4986 122.237 65.1683 122.209C64.8727 122.181 64.6351 122.065 64.4555 121.861C64.2753 121.64 64.154 121.356 64.0915 121.011C64.0464 120.665 64.0351 120.293 64.0577 119.893C64.1096 119.32 64.2144 118.772 64.3719 118.248C64.5468 117.724 64.8325 117.137 65.2289 116.487C65.4091 116.136 65.6501 115.793 65.952 115.457C66.2708 115.103 66.6168 114.792 66.9902 114.524C67.3804 114.238 67.7556 114.03 68.1158 113.901C68.5096 113.736 68.9142 113.641 69.3296 113.614C69.7445 113.57 70.1181 113.597 70.4505 113.694C70.6616 113.793 70.8278 113.841 70.9491 113.839C71.0877 113.836 71.1891 113.747 71.2532 113.572C71.3356 113.431 71.4159 113.222 71.4942 112.942C71.5719 112.646 71.6683 112.392 71.7833 112.182L72.3039 110.48C72.4804 110.008 72.6733 109.51 72.8829 108.985C73.0924 108.46 73.3418 107.822 73.6311 107.07C73.9089 106.509 74.1418 106.183 74.3298 106.093C74.5173 105.984 74.736 106.049 74.986 106.286C75.1834 106.507 75.2606 106.766 75.2176 107.061C75.174 107.34 75.0317 107.794 74.7906 108.423C74.6751 108.616 74.5766 108.8 74.4953 108.976C74.4133 109.133 74.2996 109.387 74.1542 109.737C73.9452 110.279 73.7519 110.769 73.5745 111.206C73.3964 111.626 73.2116 112.107 73.0199 112.649C72.959 112.927 72.8734 113.25 72.7632 113.617C72.6702 113.983 72.5935 114.314 72.5332 114.61C72.4896 114.888 72.4368 115.149 72.3748 115.394C72.3297 115.62 72.2724 115.734 72.2031 115.735C72.0692 115.894 71.9477 116.174 71.8384 116.576C71.7287 116.959 71.6368 117.36 71.5627 117.778C71.506 118.195 71.4559 118.543 71.4123 118.821C71.3839 119.03 71.3661 119.299 71.3587 119.629C71.3514 119.958 71.3524 120.279 71.3619 120.591C71.3708 120.885 71.3771 121.093 71.3808 121.215C71.3924 121.596 71.3911 121.839 71.3769 121.943C71.3627 122.047 71.295 122.101 71.1737 122.103ZM65.5874 120.588C65.9513 120.58 66.3278 120.416 66.7169 120.095C67.1233 119.774 67.5287 119.418 67.9331 119.028C68.1857 118.78 68.4532 118.453 68.7357 118.048C69.0356 117.643 69.3181 117.238 69.5833 116.833C69.8658 116.428 70.0892 116.077 70.2536 115.778C70.4174 115.463 70.4983 115.27 70.4962 115.201C70.4936 115.114 70.4138 115.055 70.2567 115.024C70.0997 114.993 69.9172 114.98 69.7093 114.984C69.5182 114.971 69.3625 114.983 69.2422 115.02C68.8636 115.115 68.4876 115.297 68.1142 115.565C67.7582 115.833 67.3714 116.232 66.954 116.761C66.5202 117.325 66.165 117.905 65.8882 118.501C65.6288 119.096 65.4705 119.594 65.4133 119.994C65.356 120.394 65.4141 120.592 65.5874 120.588ZM77.1121 121.869C76.2456 121.888 75.6037 121.59 75.1862 120.975C75.0596 120.804 74.9937 120.632 74.9885 120.459C75 120.268 75.0481 120.137 75.1326 120.066C75.2345 119.994 75.3576 120.052 75.502 120.24C75.7489 120.373 76.0975 120.435 76.5481 120.425C76.7734 120.42 77.0068 120.397 77.2484 120.357C77.4894 120.3 77.7299 120.225 77.9699 120.133C78.2261 120.006 78.3963 119.899 78.4803 119.81C78.5638 119.704 78.5438 119.618 78.4204 119.551L78.4464 119.551C77.9922 119.439 77.5272 119.259 77.0514 119.009C76.5925 118.742 76.1936 118.456 75.8549 118.152C75.5157 117.83 75.3161 117.539 75.2563 117.281C75.1014 116.746 75.1195 116.2 75.3106 115.641C75.5012 115.065 75.7806 114.556 76.1487 114.114C76.2847 114.025 76.4548 113.917 76.6591 113.791C76.8629 113.648 77.0251 113.566 77.1459 113.546L77.1467 113.572C77.4654 113.218 77.8556 112.932 78.3172 112.714C78.7961 112.496 79.3015 112.294 79.8335 112.109L80.2218 112.048C80.4287 112.009 80.6015 111.988 80.7401 111.985C80.7228 111.985 80.758 112.002 80.8457 112.034C80.9328 112.05 81.0114 112.066 81.0812 112.081C81.1867 112.131 81.2742 112.155 81.3435 112.154C81.5698 112.183 81.7809 112.283 81.9768 112.452C82.1727 112.621 82.3263 112.825 82.4376 113.066C82.5657 113.288 82.6156 113.504 82.5873 113.713C82.5626 114.042 82.4675 114.339 82.3021 114.603C82.154 114.866 81.9679 115.018 81.7437 115.057C81.7778 115.039 81.751 115.014 81.6633 114.981C81.5924 114.931 81.5129 114.88 81.4246 114.83L81.3482 114.884C81.3482 114.884 81.339 114.867 81.3207 114.833C81.3191 114.781 81.2999 114.72 81.2632 114.652C81.208 114.549 81.1786 114.437 81.1749 114.316C81.1707 114.177 81.1749 114.03 81.1875 113.873C81.2164 113.682 81.213 113.569 81.1773 113.536C81.1589 113.501 81.0455 113.478 80.837 113.465C80.5928 113.418 80.2389 113.469 79.7752 113.618C79.3289 113.767 78.9534 113.966 78.6488 114.215C78.2749 114.466 77.9614 114.707 77.7083 114.938C77.4547 115.152 77.253 115.364 77.1034 115.576C76.9532 115.77 76.8214 115.998 76.708 116.26C76.625 116.384 76.5507 116.507 76.4851 116.629C76.4362 116.734 76.4131 116.83 76.4157 116.917C76.4215 117.108 76.5662 117.304 76.8498 117.506C77.1501 117.69 77.5902 117.905 78.1699 118.153C78.6263 118.333 79.0138 118.533 79.3326 118.751C79.6513 118.97 79.8758 119.225 80.006 119.517C80.0428 119.585 80.0541 119.671 80.0399 119.776C80.0425 119.862 80.0271 119.923 79.9934 119.959C80.0292 119.993 80.0473 120.018 80.0478 120.036L80.047 120.01C80.1919 120.215 80.1985 120.431 80.0667 120.659C79.9522 120.887 79.7417 121.091 79.435 121.271C79.1451 121.434 78.7849 121.563 78.3543 121.659L78.3803 121.659C78.1571 121.733 77.9334 121.79 77.7092 121.83C77.5017 121.851 77.3027 121.864 77.1121 121.869ZM88.1382 121.08C87.7837 121.4 87.3647 121.591 86.8811 121.654C86.4147 121.716 85.9534 121.657 85.4971 121.476C85.0402 121.278 84.6582 120.974 84.351 120.565C84.0448 120.19 83.8411 119.762 83.7397 119.278C83.6379 118.778 83.6095 118.128 83.6547 117.33C83.6862 116.653 83.8823 115.973 84.243 115.288C84.6033 114.587 85.0439 113.962 85.5648 113.413C86.103 112.864 86.6376 112.479 87.1685 112.259C87.4232 112.08 87.6374 111.998 87.8113 112.011C88.0019 112.007 88.2883 112.018 88.6706 112.044C89.0708 112.088 89.3677 112.159 89.5615 112.259C89.7726 112.358 89.9414 112.493 90.068 112.664C90.3358 112.918 90.517 113.174 90.6115 113.432C90.7055 113.673 90.7562 113.914 90.7635 114.157C90.7058 114.539 90.46 115.013 90.0263 115.577C89.6093 116.124 89.0508 116.578 88.3509 116.94C87.9733 117.07 87.559 117.131 87.1079 117.124C86.6568 117.116 86.2808 117.012 85.9799 116.811C85.6465 116.679 85.4306 116.71 85.3324 116.903C85.2337 117.078 85.1515 117.514 85.0859 118.208C85.0365 118.868 85.1032 119.352 85.286 119.66C85.4682 119.951 85.7074 120.119 86.0036 120.165C86.3522 120.226 86.6224 120.272 86.8141 120.303C87.0226 120.316 87.2715 120.232 87.5608 120.052C87.8328 119.873 88.0032 119.774 88.072 119.755C88.1403 119.719 88.1912 119.683 88.2248 119.648C88.2753 119.595 88.3845 119.48 88.5525 119.302C88.6701 119.179 88.7628 119.09 88.8306 119.036C88.8978 118.965 88.9747 118.929 89.0614 118.927C89.148 118.925 89.2273 118.967 89.2992 119.052C89.3707 119.12 89.4416 119.17 89.5119 119.203C89.6852 119.2 89.723 119.303 89.6253 119.513C89.545 119.723 89.3707 119.978 89.1023 120.279C88.8335 120.562 88.5121 120.829 88.1382 121.08ZM87.9452 115.571C88.1332 115.48 88.3288 115.355 88.532 115.194C88.7347 115.016 88.9025 114.83 89.0353 114.637C89.185 114.426 89.2577 114.251 89.2535 114.112C89.2462 113.869 89.1275 113.673 88.8975 113.522C88.667 113.353 88.3283 113.335 87.8814 113.466C87.6923 113.522 87.4796 113.657 87.2433 113.87C87.0065 114.066 86.7791 114.288 86.5612 114.535C86.3606 114.782 86.1939 115.003 86.061 115.196C85.9455 115.39 85.9056 115.503 85.9413 115.537C85.9959 115.623 86.1453 115.689 86.3895 115.735C86.6332 115.765 86.902 115.767 87.1961 115.744C87.5075 115.719 87.7572 115.662 87.9452 115.571ZM94.0919 121.677C93.9002 121.647 93.6981 121.556 93.4854 121.404C93.2895 121.235 93.1104 121.049 92.9482 120.844C92.8027 120.622 92.7014 120.425 92.6441 120.253C92.6431 120.218 92.6158 120.175 92.5622 120.124C92.526 120.073 92.5079 120.048 92.5079 120.048C92.437 119.997 92.3868 119.773 92.3574 119.375C92.3448 118.959 92.3569 118.499 92.3936 117.996C92.4304 117.492 92.479 117.092 92.5393 116.796C92.6176 116.517 92.7363 116.142 92.8954 115.67C93.054 115.181 93.1881 114.745 93.2979 114.361L93.954 112.838L92.9056 112.575C92.7832 112.543 92.6772 112.476 92.5874 112.374C92.5149 112.272 92.4776 112.186 92.4755 112.117C92.4713 111.978 92.5443 111.812 92.6945 111.618C92.8441 111.406 92.9536 111.3 93.0229 111.298C93.1101 111.314 93.2663 111.319 93.4916 111.314C93.7342 111.309 93.9679 111.295 94.1927 111.273C94.4174 111.25 94.5555 111.23 94.607 111.212C94.6753 111.175 94.7433 111.131 94.811 111.077C94.8782 111.006 94.9273 110.91 94.9583 110.788C95.0392 110.595 95.1119 110.42 95.1765 110.263C95.2405 110.088 95.3301 109.895 95.4451 109.685C95.5596 109.457 95.6491 109.264 95.7137 109.107C95.7956 108.949 95.919 108.73 96.0839 108.449C96.1669 108.325 96.2577 108.176 96.3564 108C96.4551 107.825 96.5807 107.675 96.7329 107.55C96.8847 107.408 97.0388 107.344 97.1953 107.358C97.3686 107.354 97.5886 107.462 97.8554 107.681C97.9993 107.852 98.0812 107.98 98.1012 108.066C98.1211 108.152 98.0568 108.318 97.9082 108.564C97.7785 108.862 97.6228 109.16 97.4411 109.459C97.2767 109.757 97.121 110.055 96.974 110.353C96.7083 110.741 96.6629 110.958 96.8377 111.006C97.0126 111.055 97.4968 111.009 98.2902 110.87C98.7901 110.773 99.1548 110.791 99.3843 110.924C99.6133 111.041 99.7495 111.246 99.7931 111.54C99.8577 111.954 99.822 112.206 99.686 112.296C99.55 112.386 99.1527 112.438 98.4942 112.452C98.0804 112.531 97.7265 112.582 97.4324 112.606C97.1378 112.612 96.9212 112.617 96.7826 112.62C96.5578 112.642 96.4108 112.654 96.3415 112.656C96.2722 112.657 96.1687 112.677 96.0311 112.715C95.8936 112.752 95.7914 112.815 95.7247 112.903C95.6748 112.974 95.6173 113.079 95.5522 113.219C95.485 113.29 95.3866 113.474 95.2568 113.772C95.1271 114.069 94.9636 114.394 94.7661 114.745C94.5456 115.478 94.3597 116.21 94.2085 116.942C94.0567 117.656 93.9391 118.352 93.8556 119.03C93.7994 119.464 93.8173 119.767 93.9091 119.939C94.0005 120.093 94.2287 120.183 94.5937 120.21C94.7848 120.223 95.0881 120.216 95.5034 120.19C95.9356 120.146 96.272 120.086 96.5125 120.011C96.7005 119.921 96.8971 119.83 97.1024 119.738C97.3072 119.63 97.4947 119.522 97.6648 119.414C97.8182 119.324 97.9715 119.234 98.1249 119.144C98.2777 119.036 98.3541 118.983 98.3541 118.983C98.4365 118.842 98.5305 118.797 98.6361 118.847C98.7416 118.896 98.8322 119.024 98.9078 119.231C98.9141 119.439 98.8774 119.656 98.7975 119.883C98.7177 120.11 98.4053 120.386 97.8602 120.71C97.0951 121.212 96.3849 121.523 95.7295 121.641C95.091 121.742 94.5451 121.754 94.0919 121.677Z" fill="#222222"/>
<defs>
<filter id="filter0_dd_230_2993" x="0" y="0" width="200" height="172" filterUnits="userSpaceOnUse" color-interpolation-filters="sRGB">
<feFlood flood-opacity="0" result="BackgroundImageFix"/>
<feColorMatrix in="SourceAlpha" type="matrix" values="0 0 0 0 0 0 0 0 0 0 0 0 0 0 0 0 0 0 127 0" result="hardAlpha"/>
<feOffset dx="-2" dy="12"/>
<feGaussianBlur stdDeviation="5"/>
<feComposite in2="hardAlpha" operator="out"/>
<feColorMatrix type="matrix" values="0 0 0 0 0 0 0 0 0 0 0 0 0 0 0 0 0 0 0.15 0"/>
<feBlend mode="normal" in2="BackgroundImageFix" result="effect1_dropShadow_230_2993"/>
<feColorMatrix in="SourceAlpha" type="matrix" values="0 0 0 0 0 0 0 0 0 0 0 0 0 0 0 0 0 0 127 0" result="hardAlpha"/>
<feMorphology radius="5" operator="erode" in="SourceAlpha" result="effect2_dropShadow_230_2993"/>
<feOffset dy="8"/>
<feGaussianBlur stdDeviation="2"/>
<feComposite in2="hardAlpha" operator="out"/>
<feColorMatrix type="matrix" values="0 0 0 0 0 0 0 0 0 0 0 0 0 0 0 0 0 0 0.25 0"/>
<feBlend mode="normal" in2="effect1_dropShadow_230_2993" result="effect2_dropShadow_230_2993"/>
<feBlend mode="normal" in="SourceGraphic" in2="effect2_dropShadow_230_2993" result="shape"/>
</filter>
</defs>
</svg>
