<svg width="200" height="172" viewBox="0 0 200 172" fill="none" xmlns="http://www.w3.org/2000/svg">
<g filter="url(#filter0_dd_230_3011)">
<rect x="11.9999" width="180" height="150" fill="#FFE6FA"/>
</g>
<rect x="11.9999" width="180" height="26.3415" fill="#FFE2FB"/>
<path d="M34.7576 63.0064C34.4454 62.918 34.1938 62.8386 34.003 62.7682C33.8122 62.7151 33.7168 62.6886 33.7168 62.6886C33.7512 62.6021 33.7336 62.524 33.6641 62.4543C33.6119 62.3847 33.4905 62.3406 33.2998 62.3222C33.0393 62.1475 32.77 61.9033 32.4918 61.5897C32.2136 61.2762 31.9701 60.9542 31.7612 60.6237C31.5523 60.2932 31.413 60.0497 31.3432 59.8934C31.2212 59.6327 31.2294 59.4767 31.368 59.4255C31.5064 59.357 31.6709 59.2799 31.8613 59.1943C32.0516 59.0567 32.2506 58.9538 32.4585 58.8856C32.6836 58.8175 32.8659 58.9312 33.0054 59.2267C33.2318 59.6266 33.5794 59.9665 34.0481 60.2465C34.5342 60.5265 35.0806 60.6942 35.6874 60.7496C36.3116 60.8051 36.9353 60.7046 37.5585 60.4481C37.974 60.2597 38.1986 60.001 38.2324 59.6719C38.2661 59.3254 38.1351 58.926 37.8392 58.4737C37.7868 58.3347 37.7085 58.2216 37.6043 58.1344C37.5174 58.0472 37.3784 57.9338 37.1873 57.7941C37.0136 57.6544 36.7617 57.4277 36.4315 57.1138C36.1712 56.9911 35.9282 56.877 35.7026 56.7718C35.4943 56.6666 35.2687 56.5527 35.0257 56.43C34.748 56.2898 34.4355 56.0974 34.0882 55.8528C33.7408 55.5908 33.4194 55.3117 33.1239 55.0154C32.8284 54.7018 32.6023 54.4058 32.4455 54.1276C32.1675 53.8661 31.9932 53.5098 31.9226 53.0587C31.852 52.5903 31.8593 52.0964 31.9446 51.5769C32.0472 51.0575 32.2106 50.5904 32.4348 50.1756C32.5381 49.9336 32.7279 49.6226 33.0042 49.2428C33.2805 48.8457 33.5914 48.4401 33.9369 48.0261C34.2824 47.612 34.6107 47.2412 34.9218 46.9136C35.2502 46.5688 35.5096 46.3362 35.6999 46.216C35.8382 46.0781 35.9852 45.9402 36.1408 45.8024C36.2963 45.6473 36.3741 45.5697 36.3741 45.5697C36.3912 45.4832 36.4171 45.44 36.4518 45.4402C36.5038 45.4405 36.5298 45.4406 36.5298 45.4406C36.6163 45.3891 36.8067 45.3035 37.1011 45.1838C37.3954 45.0641 37.7154 44.8406 38.0612 44.5132C39.221 43.965 40.208 43.5979 41.0221 43.4118C41.8362 43.2083 42.4772 43.1079 42.9452 43.1105C43.3786 43.1303 43.8036 43.254 44.2202 43.4816C44.6368 43.692 44.9928 43.9626 45.2884 44.2936C45.6013 44.6247 45.7843 44.9983 45.8374 45.4146C45.9599 45.8313 45.9006 46.3336 45.6595 46.9216C45.4357 47.4924 45.1166 48.0366 44.702 48.5542C44.3047 49.0547 43.8897 49.425 43.457 49.6653C42.9723 49.8705 42.5564 49.8942 42.2093 49.7363C41.8795 49.5784 41.7229 49.3349 41.7393 49.0057C41.7389 48.867 41.7818 48.7026 41.868 48.5124C41.9714 48.3223 42.2392 47.9858 42.6712 47.5029C43.2236 46.6913 43.5167 46.1123 43.5504 45.7658C43.5842 45.4194 43.4276 45.2192 43.0808 45.1652C42.9767 45.13 42.7774 45.1375 42.4829 45.1879C42.1884 45.2382 41.8679 45.3058 41.5215 45.3905C41.1923 45.458 40.8979 45.5344 40.6381 45.6196C40.3957 45.7049 40.2745 45.7649 40.2746 45.7995C40.2746 45.7995 40.2747 45.8255 40.2748 45.8775C40.275 45.9295 40.2404 45.9467 40.171 45.929C40.1363 45.9288 40.0152 45.9888 39.8075 46.1089C39.6171 46.2119 39.3835 46.3492 39.1066 46.521C38.8298 46.6928 38.5529 46.8732 38.2761 47.0623C38.0166 47.2342 37.7917 47.389 37.6014 47.5266C37.4111 47.6642 37.3074 47.7503 37.2901 47.7848C37.256 47.9753 37.0571 48.1475 36.6935 48.3015C36.3475 48.5075 36.0449 48.8005 35.786 49.1804C35.527 49.5603 35.225 50.0439 34.8799 50.6313C34.5864 51.0283 34.3795 51.4605 34.2595 51.9278C34.1394 52.3778 34.1404 52.7418 34.2625 53.0198C34.3499 53.2976 34.5846 53.5763 34.9667 53.8557C35.3661 54.118 35.9043 54.4503 36.5814 54.8527C37.1716 55.1854 37.7272 55.5351 38.2482 55.902C38.7691 56.2689 39.2121 56.6267 39.577 56.9754C39.9419 57.3068 40.1767 57.5854 40.2813 57.8114C40.4901 58.1072 40.6123 58.4459 40.648 58.8274C40.7011 59.209 40.7021 59.5817 40.6511 59.9454C40.6174 60.2918 40.5661 60.5776 40.4974 60.8025C40.3768 61.0792 40.187 61.3728 39.9278 61.6833C39.686 61.9939 39.4611 62.14 39.253 62.1215C39.0625 62.1725 38.9154 62.2323 38.8115 62.3011C38.7251 62.3699 38.6212 62.43 38.5 62.4813C38.3789 62.55 38.0931 62.6264 37.6427 62.7105C37.1923 62.812 36.6985 62.8872 36.1614 62.9362C35.6242 63.0026 35.1563 63.0259 34.7576 63.0064ZM45.9483 61.483C45.4459 61.5668 44.9431 61.5207 44.44 61.3445C43.9542 61.1685 43.5461 60.8889 43.2158 60.5057C42.9027 60.1053 42.7454 59.6278 42.7439 59.0731C42.6905 58.5528 42.7321 57.9377 42.8689 57.2278C43.0229 56.5007 43.2462 55.774 43.5389 55.0476C43.8489 54.3214 44.2026 53.708 44.5999 53.2076C44.9454 52.7935 45.291 52.4141 45.6368 52.0694C45.9825 51.7247 46.2938 51.4924 46.5708 51.3726C46.8132 51.27 47.1077 51.1936 47.4542 51.1436C47.818 51.0763 48.0692 51.043 48.2079 51.0438C48.4854 51.1147 48.789 51.229 49.1188 51.3869C49.4659 51.5448 49.6397 51.7278 49.6403 51.9358C49.6403 51.9358 49.6577 51.9619 49.6925 52.0141C49.7446 52.049 49.7706 52.0665 49.7706 52.0665C49.8746 52.0671 49.9876 52.1977 50.1097 52.4584C50.249 52.7018 50.3538 52.9884 50.424 53.3181C50.4942 53.6305 50.4775 53.8817 50.3741 54.0718C50.3056 54.4008 50.1678 54.7207 49.9607 55.0315C49.7709 55.3424 49.6066 55.4975 49.468 55.4967C49.3986 55.4963 49.3293 55.5046 49.26 55.5216C49.208 55.5213 49.1821 55.5645 49.1824 55.6511C49.1826 55.7378 49.0874 55.7806 48.8967 55.7795C48.7234 55.7786 48.5413 55.7429 48.3505 55.6725C48.1596 55.6021 48.038 55.4974 47.9856 55.3585C47.9854 55.2718 48.0024 55.1592 48.0367 55.0207C48.071 54.8823 48.1224 54.6486 48.1908 54.3196C48.2935 53.8349 48.3013 53.5143 48.2142 53.3578C48.127 53.1839 47.9103 53.1654 47.564 53.3021C47.1314 53.5424 46.7768 53.8264 46.5004 54.1542C46.2239 54.4646 45.9738 54.9052 45.75 55.476C45.5436 56.0468 45.3117 56.8428 45.0545 57.864C44.9516 58.2621 44.9351 58.574 45.0051 58.7997C45.0923 59.0255 45.162 59.1473 45.2141 59.1649C45.4569 59.2356 45.717 59.2544 45.9942 59.2212C46.2887 59.1709 46.5312 59.0943 46.7215 58.9913C46.9985 58.8542 47.2408 58.7082 47.4483 58.5534C47.6732 58.3813 47.9154 58.2007 48.1748 58.0115C48.2614 57.9599 48.3391 57.865 48.408 57.7268C48.477 57.5712 48.5806 57.4591 48.7191 57.3905C48.8572 57.1833 49.0303 57.0803 49.2383 57.0814C49.4636 57.0653 49.6802 57.0579 49.8882 57.0591C50.0269 57.0945 50.1745 57.182 50.3309 57.3215C50.4873 57.4611 50.6003 57.6004 50.67 57.7394C50.757 57.8612 50.7486 57.9478 50.6447 57.9993C50.5754 57.9989 50.5321 58.0246 50.5149 58.0765C50.515 58.1112 50.5151 58.1285 50.5151 58.1285C50.5499 58.1981 50.4724 58.3536 50.2824 58.5952C50.1097 58.8369 49.8851 59.0957 49.6085 59.3714C49.3319 59.6472 49.0639 59.8884 48.8045 60.0949C48.5623 60.2842 48.3893 60.3786 48.2853 60.378C48.1119 60.3771 48.0254 60.4286 48.0257 60.5326C48.0258 60.5672 47.896 60.6532 47.6364 60.7904C47.3941 60.9277 47.1085 61.0648 46.7795 61.2016C46.4679 61.3385 46.1909 61.4323 45.9483 61.483ZM54.3511 60.8799C54.2992 60.897 54.1865 60.8877 54.0131 60.852C53.857 60.8165 53.6922 60.7722 53.5187 60.7193C53.3626 60.6664 53.2671 60.6225 53.2324 60.5877C53.1629 60.518 53.0672 60.3961 52.9454 60.2221C52.8235 60.0307 52.7535 59.779 52.7353 59.4669C52.7345 59.1549 52.8808 58.7831 53.1743 58.3514C53.2605 58.1785 53.3638 57.9191 53.4842 57.5731C53.6046 57.2272 53.7249 56.8638 53.8452 56.4832C53.9828 56.0853 54.1031 55.7306 54.2063 55.4192C54.3268 55.1079 54.4129 54.8917 54.4645 54.7707C54.4984 54.4762 54.4805 54.2681 54.4108 54.1464C54.3585 54.0074 54.2109 53.9286 53.9682 53.9099C53.7949 53.9089 53.656 53.8475 53.5517 53.7256C53.4647 53.6038 53.4208 53.3869 53.4199 53.0749C53.454 52.8324 53.5141 52.6247 53.6002 52.4519C53.7037 52.2618 53.842 52.1066 54.015 51.9862C54.1881 51.9005 54.4046 51.8411 54.6645 51.8078C54.9417 51.7747 55.2103 51.7676 55.4704 51.7863C55.7304 51.8051 55.9126 51.8668 56.0169 51.9714C56.1384 52.0414 56.2341 52.1979 56.3041 52.441C56.3914 52.6668 56.4614 52.9012 56.514 53.1442C56.5667 53.3871 56.6019 53.5693 56.6195 53.6907C56.7925 53.553 56.9826 53.3634 57.19 53.1219C57.4146 52.8632 57.6393 52.6218 57.864 52.3977C58.1408 52.2086 58.4696 52.0198 58.8504 51.8312C59.2312 51.6254 59.5082 51.5229 59.6815 51.5239C59.8722 51.525 60.1065 51.6216 60.3843 51.8138C60.6621 51.9887 60.8359 52.1457 60.9056 52.2847C61.0797 52.5803 61.2019 52.893 61.2721 53.2227C61.3596 53.5352 61.3084 53.8123 61.1184 54.0539C60.9457 54.2782 60.7036 54.5022 60.3922 54.7258C60.0808 54.9321 59.691 54.9905 59.2227 54.9013C59.1186 54.866 59.0056 54.7354 58.8837 54.5094C58.7791 54.2835 58.718 54.1185 58.7003 54.0144C58.7002 53.9624 58.6223 54.0139 58.4668 54.169C58.3285 54.3069 58.1556 54.4793 57.9482 54.6861C57.7581 54.8931 57.5766 55.0827 57.4038 55.2551C57.1101 55.6174 56.7994 56.1097 56.4718 56.7318C56.1442 57.354 55.7562 58.1058 55.308 58.9873C55.1011 59.4195 54.9289 59.8345 54.7914 60.2324C54.6537 60.6129 54.507 60.8288 54.3511 60.8799ZM63.4091 61.2945C63.1838 61.2933 63.0017 61.2489 62.8628 61.1615C62.7412 61.0741 62.5849 60.9519 62.3938 60.7949C62.0635 60.4464 61.7939 60.0722 61.5848 59.6724C61.393 59.2726 61.3228 58.9256 61.374 58.6312C61.4256 58.4928 61.4426 58.3629 61.4249 58.2415C61.4245 58.1028 61.4243 58.0335 61.4243 58.0335C61.3374 57.9464 61.3113 57.8942 61.3459 57.8771C61.3805 57.8426 61.415 57.7908 61.4495 57.7216C61.5535 57.7222 61.5879 57.6271 61.5527 57.4362C61.5177 57.2974 61.5689 57.003 61.7063 56.5531C61.861 56.086 62.0678 55.6451 62.3267 55.2306C62.4302 55.0578 62.5856 54.8334 62.7928 54.5572C63 54.2637 63.2246 53.979 63.4665 53.703C63.7257 53.4098 63.959 53.1771 64.1666 53.0049C64.5989 52.6433 64.9968 52.3509 65.3601 52.1276C65.7409 51.9044 66.1218 51.7505 66.5029 51.666C66.8839 51.5815 67.2738 51.5403 67.6725 51.5425C68.0885 51.5449 68.4268 51.6854 68.6876 51.9642C69.0867 52.1398 69.3647 52.3753 69.5215 52.6709C69.6956 52.9665 69.8093 53.3484 69.8626 53.8167C69.916 54.337 69.8658 54.9781 69.7118 55.7399C69.5579 56.4843 69.1356 57.3486 68.4449 58.3327C68.0133 58.9543 67.59 59.4373 67.1749 59.7816C66.7598 60.1259 66.3014 60.444 65.7995 60.7359C65.4362 60.9765 65.0466 61.1217 64.6308 61.1714C64.2149 61.221 63.8077 61.2621 63.4091 61.2945ZM66.0525 58.1374C66.4329 57.8102 66.7006 57.4477 66.8555 57.0499C67.0277 56.6522 67.2085 56.1852 67.3977 55.6489C67.4667 55.5453 67.5096 55.3722 67.5262 55.1297C67.5602 54.8872 67.5683 54.6532 67.5503 54.4278C67.5323 54.185 67.4713 54.046 67.3672 54.0108C67.2109 53.8886 67.0548 53.8617 66.899 53.9302C66.7431 53.9813 66.5441 54.0929 66.3019 54.2648C65.7831 54.6953 65.2992 55.1952 64.85 55.7647C64.4182 56.3169 64.1168 56.9999 63.9456 57.8136C63.8948 58.2466 63.9391 58.5762 64.0783 58.8023C64.2349 59.0112 64.4777 59.0732 64.8068 58.9884C65.1532 58.8863 65.5684 58.6026 66.0525 58.1374ZM71.2455 62.3003C71.02 62.2124 70.8376 62.0727 70.6984 61.8813C70.5593 61.7071 70.4806 61.4467 70.4623 61.1C70.4444 60.8745 70.4521 60.5452 70.4856 60.1121C70.5191 59.6616 70.5785 59.2113 70.6639 58.7611C70.6638 58.7265 70.6638 58.6918 70.6637 58.6571C70.6808 58.6052 70.6894 58.5706 70.6894 58.5533C70.7065 58.484 70.7236 58.3801 70.7405 58.2416C70.7574 58.0857 70.7744 57.9644 70.7915 57.8779C70.8259 57.774 70.8432 57.7655 70.8435 57.8521L70.9976 57.151C71.066 56.8394 71.1432 56.5192 71.2289 56.1903C71.3147 55.8615 71.3919 55.5759 71.4606 55.3336C71.5466 55.0741 71.5982 54.9271 71.6154 54.8925C71.6154 54.8925 71.6411 54.7973 71.6926 54.6069C71.7614 54.3993 71.8301 54.1917 71.8989 53.9841C72.1739 53.119 72.4319 52.4011 72.673 51.8305C72.9315 51.2599 73.1557 50.8452 73.3456 50.5863C73.3628 50.5344 73.3887 50.4738 73.4231 50.4047C73.4576 50.3182 73.4834 50.249 73.5006 50.1971C73.5 50.0065 73.5083 49.8679 73.5254 49.7813C73.5599 49.6948 73.603 49.6171 73.6548 49.548C73.6893 49.4789 73.741 49.3925 73.8101 49.2889C73.8791 49.1679 73.9567 49.021 74.0429 48.8482L74.1461 48.5628C74.2495 48.338 74.3788 48.0788 74.534 47.785C74.6891 47.4738 74.8012 47.2405 74.8701 47.0848C74.9216 46.9291 75.0251 46.7477 75.1806 46.5406C75.336 46.3161 75.5089 46.1698 75.6994 46.1015L75.6733 46.0754C75.7595 45.9198 75.9239 45.7994 76.1663 45.7141C76.4087 45.6115 76.6079 45.5606 76.7639 45.5615C77.0065 45.5628 77.1887 45.6332 77.3104 45.7725C77.4495 45.912 77.5193 46.103 77.52 46.3457C77.5207 46.6057 77.5125 46.7963 77.4955 46.9175C77.4958 47.0215 77.4355 47.1425 77.3145 47.2805L77.3405 47.2807C77.3751 47.2462 77.3666 47.2981 77.3149 47.4365C77.2633 47.5749 77.2202 47.67 77.1857 47.7218C77.1513 47.8082 77.1082 47.9033 77.0565 48.007C77.0221 48.1109 76.979 48.1886 76.9271 48.2403C76.8753 48.3094 76.7373 48.5513 76.5131 48.966C76.2889 49.3634 76.0388 49.8387 75.763 50.3918C75.4872 50.9276 75.2199 51.4547 74.9614 51.9733C74.7201 52.4746 74.5478 52.8636 74.4445 53.1404L74.3156 53.5296C74.2985 53.5989 74.2899 53.6508 74.29 53.6855C74.2384 53.8065 74.1867 53.9276 74.135 54.0486C74.0833 54.1697 74.0316 54.2734 73.9799 54.3597L73.5683 55.9694L73.4657 56.5148L73.2334 57.1115L73.0787 57.6046C73.0443 57.7084 73.0186 57.821 73.0016 57.9422C72.9846 58.0634 72.9502 58.1499 72.8983 58.2016C72.8984 58.219 72.8898 58.2449 72.8726 58.2795C72.8726 58.2968 72.8727 58.3141 72.8727 58.3315C72.8041 58.6084 72.6839 58.9977 72.5119 59.4994C72.3573 60.0012 72.2634 60.5554 72.2304 61.1618C72.2305 61.1792 72.2218 61.1964 72.2046 61.2137C72.2046 61.231 72.2047 61.2484 72.2047 61.2657C72.1537 61.6294 72.0418 61.9061 71.869 62.0958C71.7135 62.3029 71.5057 62.3711 71.2455 62.3003ZM76.7752 61.8372C76.4461 61.922 76.1512 61.8251 75.8904 61.5463C75.6297 61.2848 75.4467 60.8938 75.3413 60.3732C75.2359 59.8527 75.2516 59.2721 75.3885 58.6315C75.4746 58.424 75.5434 58.2251 75.5949 58.0347C75.6463 57.827 75.6719 57.6625 75.6716 57.5411C75.7058 57.368 75.7744 57.117 75.8775 56.7883C75.9806 56.4422 76.0923 56.0875 76.2126 55.7242C76.3329 55.3609 76.4447 55.0408 76.548 54.7641C76.6685 54.4701 76.746 54.2885 76.7805 54.2194C76.8498 54.2198 76.9103 54.1594 76.962 54.0384C77.0137 53.9174 77.0393 53.7962 77.039 53.6748C77.0386 53.5362 77.0642 53.3803 77.1157 53.2073C77.1846 53.0343 77.2536 52.9134 77.3227 52.8444C77.3225 52.7578 77.3396 52.6625 77.374 52.5587C77.4256 52.4377 77.4514 52.3425 77.4512 52.2732C77.451 52.2038 77.4681 52.1346 77.5026 52.0655C77.5544 51.9964 77.5802 51.9272 77.5801 51.8579C77.7008 51.6332 77.8558 51.2788 78.0451 50.7945C78.2518 50.293 78.4669 49.7396 78.6906 49.1342C78.9316 48.5289 79.1553 47.9321 79.3617 47.3439C79.5681 46.7558 79.7314 46.2627 79.8517 45.8647C79.9892 45.4495 80.0579 45.1985 80.0576 45.1119C80.0573 44.9732 80.1089 44.8435 80.2126 44.7227C80.3162 44.602 80.4374 44.542 80.5761 44.5428C80.6279 44.4911 80.7492 44.4571 80.9398 44.4408C81.1303 44.4072 81.2603 44.3906 81.3296 44.391C81.3296 44.391 81.3644 44.4259 81.4339 44.4956C81.5034 44.5653 81.6077 44.6699 81.7468 44.8093C81.8858 44.9314 82.0161 45.0708 82.1379 45.2275C82.277 45.3843 82.3468 45.5667 82.3474 45.7747C82.348 46 82.3139 46.2165 82.2451 46.4241C82.1937 46.6318 82.0905 46.9172 81.9355 47.2803C81.7804 47.6261 81.5392 48.1448 81.2117 48.8363C81.074 49.1821 80.9276 49.5107 80.7724 49.8218C80.6172 50.1156 80.5397 50.2971 80.5399 50.3665C80.5401 50.4358 80.5057 50.5396 80.4368 50.6779C80.3851 50.8163 80.3249 50.9893 80.2562 51.1969C80.1872 51.3351 80.0924 51.5426 79.9719 51.8193C79.8512 52.0786 79.722 52.3639 79.5842 52.6751C79.4637 52.9691 79.3604 53.2285 79.2743 53.4533C79.1882 53.6609 79.1452 53.7819 79.1453 53.8166C79.1455 53.8859 79.137 53.9552 79.1199 54.0245C79.1201 54.0938 79.0856 54.1629 79.0165 54.2319C78.9471 54.2315 78.9039 54.2833 78.8869 54.3872C78.8871 54.4738 78.8872 54.5172 78.8872 54.5172C78.8877 54.6905 78.7503 55.149 78.475 55.8928C78.2003 56.8446 77.9426 57.7185 77.7021 58.5145C77.479 59.3105 77.3681 59.9512 77.3694 60.4366C77.3705 60.8526 77.3021 61.1728 77.164 61.3974C77.0433 61.6221 76.9137 61.7687 76.7752 61.8372ZM94.0621 61.6218C93.8021 61.6377 93.5595 61.645 93.3341 61.6438C93.1261 61.6426 92.9614 61.607 92.8399 61.537C92.5272 61.2753 92.3186 61.0661 92.2142 60.9095C92.1271 60.753 92.0833 60.5795 92.0828 60.3888C92.0994 60.1462 92.1074 59.9036 92.1068 59.6609C92.1061 59.4009 92.1055 59.2016 92.1052 59.0629C92.0356 58.9932 91.8972 59.0704 91.6898 59.2946C91.4824 59.5188 91.2403 59.7341 90.9636 59.9405C90.4279 60.5442 89.9524 60.9835 89.5372 61.2585C89.1219 61.5162 88.741 61.6614 88.3944 61.6942C88.0479 61.7442 87.7013 61.7509 87.3545 61.7143C87.0424 61.6779 86.7647 61.5204 86.5213 61.2417C86.2952 60.9631 86.1209 60.6241 85.9985 60.2248C85.8934 59.8255 85.8577 59.4354 85.8913 59.0542C85.9761 58.344 86.1303 57.7036 86.3541 57.1328C86.5778 56.5448 86.9141 55.9313 87.3631 55.2925C87.5703 55.0163 87.8468 54.7146 88.1926 54.3872C88.5557 54.0599 88.9448 53.7587 89.3601 53.4837C89.7753 53.1914 90.1474 52.9854 90.4764 52.866C90.9784 52.6434 91.3941 52.5418 91.7235 52.5609C92.0702 52.5802 92.4083 52.6341 92.7379 52.7226C92.9809 52.8453 93.1717 52.907 93.3104 52.9078C93.4664 52.9087 93.5788 52.8226 93.6477 52.6497C93.7513 52.5116 93.8288 52.3387 93.8803 52.131C93.9317 51.9233 94.0178 51.7244 94.1386 51.5344L94.706 49.8476C94.8954 49.3807 95.1193 48.8446 95.3776 48.2394C95.636 47.6342 95.9288 46.9599 96.2561 46.2164C96.6529 45.5426 96.99 45.1892 97.2672 45.156C97.5618 45.123 97.8655 45.2807 98.1784 45.6291C98.387 45.8383 98.5004 46.0989 98.5186 46.411C98.554 46.7059 98.477 47.0521 98.2874 47.4497C98.1666 47.6397 98.0372 47.8816 97.8994 48.1755C97.7615 48.4521 97.5977 48.7805 97.4081 49.1608C97.2186 49.6104 97.0205 50.0599 96.8138 50.5094C96.6243 50.959 96.4263 51.4519 96.2198 51.9881C96.1512 52.265 96.0568 52.5851 95.9364 52.9485C95.8334 53.3119 95.7476 53.6407 95.6791 53.935C95.6279 54.212 95.5679 54.4717 95.4992 54.714C95.4478 54.939 95.3875 55.0514 95.3182 55.051C95.1798 55.1715 95.0505 55.4308 94.9303 55.8288C94.81 56.2094 94.7071 56.6162 94.6216 57.049C94.5535 57.482 94.4938 57.837 94.4425 58.114C94.4084 58.3218 94.3832 58.6163 94.3669 58.9976C94.3506 59.3615 94.3429 59.7168 94.3438 60.0634C94.3447 60.3928 94.3453 60.6181 94.3457 60.7394C94.3465 61.0688 94.3212 61.3026 94.2696 61.441C94.2352 61.5621 94.1661 61.6224 94.0621 61.6218ZM88.1806 59.535C88.5792 59.5372 88.9514 59.3746 89.2972 59.0472C89.6603 58.7026 90.0579 58.3408 90.4902 57.9619C90.7495 57.7034 91.0174 57.4189 91.2939 57.1084C91.5703 56.7807 91.8208 56.4614 92.0452 56.1507C92.2871 55.84 92.477 55.5724 92.615 55.3479C92.7531 55.1233 92.822 54.9764 92.8218 54.907C92.8216 54.8204 92.7521 54.742 92.6132 54.6719C92.4917 54.6018 92.3442 54.549 92.1708 54.5134C91.9973 54.4604 91.8413 54.4509 91.7027 54.4848C91.2871 54.6038 90.9496 54.7839 90.6902 55.0251C90.4482 55.2664 90.0939 55.6458 89.6274 56.1631C89.1609 56.7325 88.7897 57.2764 88.5138 57.7949C88.2379 58.3133 88.0657 58.737 87.9973 59.066C87.9461 59.3777 88.0072 59.534 88.1806 59.535ZM99.5304 61.4704C99.1666 61.5377 98.8892 61.5188 98.6983 61.4137C98.5246 61.2914 98.3422 61.1431 98.1511 60.9687C97.8734 60.8285 97.6215 60.6364 97.3955 60.3925C97.1695 60.1312 96.9955 59.8616 96.8734 59.5836C96.7513 59.3056 96.6987 59.0886 96.7156 58.9327C96.766 58.3263 96.9028 57.6684 97.1262 56.959C97.367 56.2497 97.6684 55.5581 98.0306 54.8841C98.41 54.2103 98.8331 53.6146 99.2997 53.0973C99.7835 52.5626 100.302 52.1755 100.856 51.936C101.203 51.7992 101.575 51.7493 101.974 51.7862C102.373 51.8231 102.642 51.9893 102.781 52.2847C103.043 52.7888 102.983 53.1092 102.602 53.2457C102.55 53.2454 102.489 53.2711 102.42 53.3227C102.351 53.357 102.316 53.4088 102.317 53.4781C102.386 53.5132 102.577 53.5229 102.889 53.5073C103.201 53.4744 103.512 53.4241 103.824 53.3565C104.153 53.2717 104.37 53.1863 104.474 53.1002C104.577 53.0488 104.655 53.0232 104.707 53.0235C104.759 53.0238 104.889 53.0418 105.097 53.0777C105.392 53.166 105.54 53.2708 105.54 53.3921C105.54 53.4615 105.567 53.5743 105.619 53.7306C105.672 53.8695 105.732 53.9392 105.802 53.9396C105.923 53.9576 105.949 54.0791 105.881 54.304C105.829 54.5291 105.631 54.7619 105.285 55.0027C104.956 55.2088 104.748 55.3463 104.662 55.4152C104.593 55.4668 104.584 55.5881 104.637 55.779C104.776 56.1091 104.769 56.5078 104.614 56.9749C104.459 57.442 104.201 57.9259 103.838 58.4265C103.475 58.9271 103.043 59.4014 102.542 59.8492C102.058 60.2799 101.547 60.6497 101.011 60.9587C100.492 61.2504 99.9983 61.421 99.5304 61.4704ZM99.6025 59.2868C99.6718 59.2872 99.793 59.2532 99.9662 59.1849C100.139 59.0992 100.278 59.0306 100.382 58.9792C100.451 58.9102 100.537 58.8327 100.641 58.7466C100.762 58.6433 100.857 58.5832 100.926 58.5662C100.996 58.5666 101.039 58.5409 101.056 58.489C101.073 58.4197 101.134 58.2901 101.237 58.1C101.341 57.8926 101.548 57.5904 101.859 57.1935C102.204 56.8141 102.429 56.512 102.532 56.2873C102.636 56.0452 102.644 55.7852 102.556 55.5074C102.539 55.438 102.486 55.3944 102.4 55.3765C102.33 55.3588 102.235 55.315 102.113 55.2449C101.94 55.244 101.819 55.2866 101.75 55.3729C101.698 55.4419 101.577 55.3979 101.385 55.2409L100.968 54.7185L100.527 55.1581C100.251 55.4339 100 55.7791 99.7761 56.1939C99.5692 56.6087 99.4057 57.0324 99.2855 57.4651C99.1654 57.8977 99.0884 58.2786 99.0546 58.6078C99.038 58.8677 99.0818 59.0413 99.1861 59.1285C99.2903 59.2158 99.4291 59.2685 99.6025 59.2868ZM114.176 61.3962C114.037 61.4128 113.786 61.3334 113.421 61.158C113.074 60.9827 112.796 60.7819 112.587 60.5554C112.431 60.3118 112.3 60.0164 112.195 59.6692C112.107 59.322 112.046 58.8537 112.009 58.2642C111.509 59.024 111.077 59.5936 110.714 59.9729C110.351 60.3522 110.022 60.6277 109.728 60.7994C109.451 60.9538 109.174 61.0736 108.897 61.1587C108.741 61.2099 108.533 61.1394 108.273 60.9473C108.012 60.7551 107.847 60.5982 107.777 60.4765C107.708 60.3548 107.629 60.1637 107.542 59.9032C107.472 59.6255 107.445 59.3393 107.461 59.0448C107.426 58.6806 107.39 58.2644 107.354 57.7962C107.335 57.3281 107.317 56.8687 107.298 56.4179C107.297 55.9499 107.305 55.5339 107.321 55.17C107.337 54.8061 107.371 54.5637 107.423 54.4426C107.405 54.3732 107.397 54.3038 107.396 54.2345C107.396 54.1651 107.396 54.1305 107.396 54.1305C107.344 54.0435 107.317 53.8527 107.317 53.558C107.316 53.2461 107.332 52.9428 107.366 52.6483C107.417 52.354 107.451 52.1722 107.469 52.1029C107.503 52.0338 107.642 51.9479 107.884 51.8453C108.144 51.7254 108.317 51.657 108.403 51.6402C108.663 51.6936 108.802 51.7984 108.82 51.9545C108.872 51.9894 108.924 52.0417 108.977 52.1114C109.029 52.1636 109.089 52.1813 109.159 52.1644C109.211 52.1993 109.281 52.399 109.368 52.7635C109.473 53.1108 109.526 53.4664 109.527 53.8304C109.51 54.0036 109.511 54.1683 109.529 54.3244C109.546 54.4805 109.538 54.6191 109.504 54.7402C109.504 54.8269 109.513 55.0176 109.531 55.3124C109.549 55.5898 109.567 55.8759 109.586 56.1707C109.586 56.396 109.578 56.63 109.562 56.8725C109.545 57.1151 109.537 57.3577 109.538 57.6004C109.59 57.9473 109.6 58.1727 109.565 58.2765C109.531 58.363 109.566 58.3719 109.669 58.3031C109.773 58.269 109.92 58.1138 110.11 57.8376C110.3 57.544 110.576 57.0862 110.938 56.4642C111.215 56.0498 111.422 55.6956 111.559 55.4017C111.715 55.0906 111.861 54.8488 111.999 54.6762C112.05 54.2605 112.101 53.8881 112.152 53.5591C112.221 53.2301 112.264 52.9964 112.281 52.8578C112.523 52.6165 112.799 52.4447 113.111 52.3425C113.44 52.2403 113.666 52.3109 113.788 52.5542C113.961 52.6245 114.135 52.7642 114.309 52.9731C114.483 53.1821 114.553 53.3818 114.518 53.5723C114.45 53.8146 114.381 54.0482 114.312 54.2731C114.261 54.4982 114.201 54.7318 114.132 54.9741C114.064 55.2164 114.004 55.554 113.953 55.9871C113.902 56.4201 113.869 56.8533 113.853 57.2865C113.854 57.7025 113.889 58.0407 113.959 58.3011C113.977 58.4572 114.029 58.5615 114.116 58.614C114.203 58.6491 114.376 58.5547 114.635 58.3309C114.895 58.055 115.145 57.7444 115.387 57.3991C115.628 57.0538 115.827 56.7429 115.982 56.4664C116.155 56.1727 116.241 55.9825 116.241 55.8959C116.24 55.7572 116.275 55.6101 116.343 55.4545C116.412 55.2815 116.499 55.152 116.602 55.0659C116.689 54.9624 116.74 54.8587 116.758 54.7548C116.775 54.6336 116.809 54.5124 116.861 54.3914C116.878 54.3568 116.904 54.3049 116.938 54.2358C116.973 54.1667 116.998 54.0975 117.016 54.0282C116.963 53.9066 116.998 53.8028 117.119 53.7168C117.257 53.6136 117.343 53.5101 117.378 53.4063C117.412 53.1811 117.559 53.0086 117.818 52.8888C118.095 52.769 118.364 52.7531 118.624 52.8413C118.902 52.9295 119.05 53.1903 119.068 53.6237C119.069 53.8317 119.035 54.1349 118.967 54.5331C118.899 54.9314 118.787 55.3555 118.632 55.8052C118.478 56.255 118.271 56.6612 118.012 57.0238C117.943 57.162 117.874 57.3003 117.805 57.4386C117.753 57.577 117.658 57.7584 117.52 57.983C117.382 58.2075 117.14 58.5355 116.795 58.9669C116.691 59.105 116.57 59.2517 116.432 59.4069C116.311 59.5449 116.182 59.6741 116.043 59.7947C115.75 60.1744 115.421 60.5365 115.058 60.8812C114.712 61.2086 114.418 61.3803 114.176 61.3962ZM128.828 61.2181C128.447 61.1813 128.126 61.1015 127.866 60.9787C127.623 60.8387 127.423 60.5689 127.266 60.1694C127.195 59.8917 127.16 59.6055 127.159 59.3108C127.176 58.9989 127.201 58.7044 127.235 58.4273C127.269 58.1328 127.285 57.8816 127.285 57.6736C127.285 57.6389 127.285 57.5696 127.284 57.4656C127.284 57.3616 127.284 57.2662 127.283 57.1796C127.248 56.9194 127.178 56.763 127.074 56.7104C126.987 56.6406 126.831 56.6484 126.606 56.7338C126.243 56.9051 125.845 57.1369 125.412 57.4291C124.997 57.7041 124.556 58.031 124.089 58.4097C123.639 58.7712 123.172 59.1586 122.688 59.5718C122.308 59.9857 122.023 60.3221 121.833 60.581C121.66 60.8401 121.479 60.9691 121.288 60.968C121.149 61.0365 121.002 61.0184 120.846 60.9135C120.69 60.8086 120.525 60.6864 120.351 60.5468C120.229 60.4074 120.081 60.2333 119.907 60.0243C119.751 59.7981 119.655 59.6502 119.62 59.5807C119.619 59.3034 119.636 59.0521 119.67 58.827C119.722 58.6019 119.79 58.3683 119.876 58.1262C119.98 57.8841 120.1 57.6074 120.238 57.2962C120.307 57.1752 120.367 57.0542 120.419 56.9332C120.488 56.7949 120.566 56.648 120.652 56.4925C120.72 56.2502 120.815 55.9734 120.936 55.6621C121.073 55.3509 121.203 55.057 121.323 54.7803C121.513 54.3307 121.659 53.9415 121.762 53.6128C121.865 53.284 121.951 52.9292 122.019 52.5482C122.002 52.5135 122.01 52.4615 122.045 52.3924C122.079 52.3232 122.131 52.2802 122.2 52.2632L122.226 52.2634L122.252 52.2635C122.373 52.1776 122.599 52.1701 122.928 52.2413C123.275 52.2953 123.535 52.392 123.709 52.5317C124.074 52.8457 124.248 53.254 124.232 53.7566C124.216 54.2591 123.958 54.9164 123.458 55.7282C123.337 56.0049 123.208 56.2641 123.07 56.506C122.949 56.7307 122.889 56.8863 122.889 56.973C122.889 56.973 122.958 56.9214 123.097 56.8182C123.235 56.7149 123.399 56.5945 123.59 56.4569C123.78 56.302 123.944 56.1816 124.083 56.0957C124.169 56.0095 124.359 55.8546 124.653 55.6309C124.947 55.3899 125.267 55.1403 125.613 54.8823C125.959 54.6242 126.236 54.4264 126.444 54.2889C126.634 54.1513 126.876 54.014 127.17 53.877C127.465 53.7226 127.647 53.6457 127.716 53.646C127.889 53.647 128.097 53.7088 128.34 53.8315C128.601 53.9543 128.835 54.103 129.044 54.2775C129.269 54.4347 129.4 54.5828 129.435 54.7216C129.435 54.791 129.426 54.8862 129.409 55.0075C129.392 55.1114 129.384 55.2067 129.384 55.2933C129.368 55.5706 129.36 55.9085 129.361 56.3072C129.379 56.6886 129.389 57.0787 129.39 57.4773C129.391 57.8587 129.358 58.2051 129.289 58.5167C129.289 58.5167 129.298 58.5341 129.315 58.5689C129.333 58.5863 129.35 58.6211 129.367 58.6732C129.35 58.6904 129.342 58.725 129.342 58.777C129.359 58.8118 129.368 58.8292 129.368 58.8292C129.403 58.9507 129.438 59.0722 129.473 59.1938C129.525 59.3154 129.586 59.4544 129.656 59.6108C129.726 59.7498 129.804 59.9323 129.891 60.1581C129.875 60.3833 129.745 60.6079 129.503 60.8319C129.279 61.0386 129.054 61.1674 128.828 61.2181Z" fill="black"/>
<path d="M32.5748 92.1216C32.3841 92.0859 32.1845 91.9895 31.9761 91.8323C31.7849 91.6579 31.6111 91.4663 31.4545 91.2574C31.3152 91.0313 31.2194 90.8314 31.1669 90.6578C31.1668 90.6231 31.1407 90.5796 31.0885 90.5274C31.0537 90.4752 31.0363 90.4491 31.0363 90.4491C30.9668 90.3967 30.9229 90.1711 30.9045 89.7723C30.9034 89.3563 30.9281 88.8972 30.9787 88.3948C31.0294 87.8924 31.089 87.4941 31.1575 87.1998C31.2434 86.923 31.3724 86.551 31.5444 86.084C31.7164 85.5996 31.8626 85.1671 31.9829 84.7865L32.6808 83.2824L31.64 82.9906C31.5186 82.9552 31.4144 82.8853 31.3275 82.7808C31.2578 82.6765 31.2229 82.5896 31.2228 82.5203C31.2224 82.3816 31.2999 82.2174 31.4554 82.0276C31.6108 81.8204 31.7232 81.7171 31.7926 81.7175C31.8793 81.7353 32.0353 81.7448 32.2606 81.7461C32.5033 81.7474 32.7373 81.7401 32.9625 81.724C33.1878 81.7079 33.3264 81.6914 33.3784 81.6743C33.4476 81.64 33.5168 81.5971 33.586 81.5455C33.6552 81.4765 33.7069 81.3815 33.7413 81.2604C33.8274 81.0702 33.9049 80.8973 33.9738 80.7417C34.0427 80.5687 34.1375 80.3786 34.2583 80.1713C34.379 79.9466 34.4738 79.7565 34.5427 79.6009C34.629 79.4454 34.7584 79.2294 34.9309 78.9531C35.0173 78.8322 35.1122 78.6854 35.2157 78.5126C35.3193 78.3399 35.4489 78.1933 35.6045 78.0728C35.7602 77.935 35.916 77.8752 36.072 77.8934C36.2454 77.8944 36.4623 78.0083 36.7229 78.2351C36.8621 78.4092 36.9404 78.5396 36.958 78.6264C36.9756 78.7131 36.9067 78.8774 36.7513 79.1192C36.6135 79.4131 36.4496 79.7069 36.2598 80.0005C36.0872 80.2942 35.9234 80.5879 35.7682 80.8817C35.4919 81.2615 35.4405 81.4778 35.6139 81.5308C35.7874 81.5838 36.2726 81.5518 37.0696 81.435C37.5721 81.3511 37.9361 81.3791 38.1618 81.5191C38.3875 81.6416 38.518 81.8504 38.5535 82.1452C38.6066 82.5615 38.564 82.8126 38.4256 82.8985C38.2871 82.9844 37.8886 83.0255 37.2299 83.0218C36.8141 83.0888 36.4589 83.1302 36.1643 83.1459C35.8696 83.1442 35.653 83.143 35.5143 83.1422C35.289 83.1583 35.1417 83.1661 35.0724 83.1658C35.0031 83.1654 34.8991 83.1821 34.7605 83.216C34.622 83.2499 34.5181 83.31 34.449 83.3963C34.3972 83.4653 34.3368 83.569 34.2679 83.7073C34.1987 83.7762 34.0952 83.9576 33.9574 84.2515C33.8195 84.5454 33.6471 84.8651 33.44 85.2106C33.1993 85.9372 32.9933 86.6641 32.822 87.3911C32.6506 88.1008 32.5138 88.7934 32.4116 89.4688C32.3435 89.9017 32.353 90.2051 32.4401 90.3789C32.5272 90.5354 32.7528 90.632 33.1169 90.6687C33.3076 90.6871 33.6109 90.6888 34.0268 90.6738C34.4601 90.6415 34.7979 90.5914 35.0404 90.5234C35.2308 90.4378 35.4299 90.3523 35.6377 90.2668C35.8454 90.1639 36.0358 90.061 36.2088 89.958C36.3646 89.8722 36.5204 89.7864 36.6761 89.7006C36.8318 89.5975 36.9097 89.5459 36.9097 89.5459C36.996 89.4077 37.0912 89.3649 37.1953 89.4175C37.2995 89.4701 37.3865 89.6006 37.4564 89.809C37.4569 90.017 37.4142 90.2334 37.3282 90.4582C37.2421 90.6831 36.9222 90.95 36.3684 91.2588C35.5897 91.7398 34.8712 92.0305 34.2128 92.1308C33.5717 92.2139 33.0257 92.2108 32.5748 92.1216ZM40.9215 91.9603C40.6962 91.959 40.5141 91.9147 40.3752 91.8272C40.2536 91.7399 40.0973 91.6177 39.9062 91.4606C39.5759 91.1121 39.3411 90.7815 39.2015 90.4687C39.062 90.1386 39.0178 89.8263 39.069 89.532C39.1206 89.3936 39.1376 89.2637 39.1199 89.1423C39.1196 89.0036 39.1194 88.9343 39.1194 88.9343C39.0325 88.8471 39.0063 88.795 39.041 88.7778C39.0755 88.7434 39.11 88.6916 39.1445 88.6224C39.2485 88.623 39.2829 88.5279 39.2477 88.337C39.2127 88.1981 39.2812 87.8952 39.4533 87.4282C39.6253 86.9611 39.8408 86.5203 40.0997 86.1058C40.2032 85.933 40.3586 85.7086 40.5658 85.4324C40.773 85.1389 40.9976 84.8542 41.2395 84.5782C41.4987 84.285 41.732 84.0523 41.9395 83.8801C42.3719 83.5185 42.7525 83.252 43.0813 83.0805C43.4102 82.909 43.7652 82.781 44.1463 82.6965C44.5274 82.6119 44.7872 82.5701 44.9259 82.5708C45.0819 82.5717 45.2903 82.7115 45.551 82.9903C45.9501 83.1659 46.2367 83.3755 46.4107 83.6191C46.602 83.8628 46.7243 84.2189 46.7776 84.6871C46.831 85.2074 46.7893 85.8052 46.6525 86.4804C46.5329 87.1384 46.1278 87.9595 45.4372 88.9436C45.0056 89.5651 44.6082 90.0309 44.245 90.3409C43.8818 90.6335 43.4493 90.9258 42.9475 91.2176C42.5841 91.4582 42.2553 91.6384 41.961 91.7581C41.6666 91.8604 41.3201 91.9278 40.9215 91.9603ZM43.41 89.2182C43.8247 88.7526 44.1529 88.3124 44.3944 87.8978C44.6533 87.4832 44.8945 86.9559 45.1181 86.3158C45.1869 86.1256 45.2296 85.8918 45.2462 85.6146C45.2627 85.32 45.2533 85.0513 45.218 84.8084C45.1999 84.5483 45.1389 84.4007 45.0348 84.3654C44.8264 84.2429 44.575 84.2068 44.2805 84.2572C43.9859 84.2902 43.6657 84.4531 43.3199 84.7458C42.7838 85.1935 42.3173 85.7542 41.9205 86.428C41.5236 87.0844 41.1357 87.8362 40.7566 88.6834C40.4983 89.306 40.439 89.8083 40.5787 90.1904C40.7357 90.5553 41.0567 90.6871 41.5418 90.5858C42.0441 90.4672 42.6669 90.0114 43.41 89.2182ZM57.0875 92.5186C56.3248 92.5143 55.7 92.2249 55.2132 91.6502C54.7262 91.0581 54.4903 90.3288 54.5052 89.4622C54.5382 88.8384 54.6577 88.1718 54.8638 87.4623C55.0871 86.7355 55.3799 86.0439 55.7421 85.3872C56.1043 84.7133 56.5013 84.1262 56.9333 83.6259C57.3652 83.1257 57.8149 82.7729 58.2824 82.5675C58.4555 82.4818 58.6373 82.4135 58.8278 82.3625C59.0356 82.3117 59.2436 82.2869 59.4516 82.288C59.6422 82.2891 59.8417 82.3249 60.0498 82.3954C60.258 82.4485 60.4315 82.5102 60.5703 82.5803C60.8653 82.7032 61.0911 82.8518 61.2475 83.026C61.404 83.2002 61.5434 83.4697 61.6657 83.8344C61.7186 84.164 61.7452 84.3981 61.7456 84.5368C61.746 84.6755 61.7032 84.8832 61.6173 85.1601C61.411 85.7829 61.1438 86.3187 60.8157 86.7676C60.4876 87.2164 60.0466 87.5952 59.4928 87.9041C59.3544 87.99 59.1899 88.0584 58.9994 88.1094C58.8262 88.1431 58.6442 88.1594 58.4536 88.1583C58.1069 88.1564 57.7687 88.0938 57.4391 87.9707C57.1267 87.8303 56.8748 87.6295 56.6835 87.3685L56.5009 87.1594L56.4235 87.367C56.2514 87.834 56.1139 88.2666 56.011 88.6647C55.9254 89.0628 55.8831 89.4266 55.884 89.7559C55.8845 89.9639 55.9024 90.1634 55.9376 90.3542C55.9901 90.5452 56.0599 90.7102 56.1469 90.8494C56.2166 90.9538 56.3294 91.0324 56.4856 91.0853C56.659 91.1209 56.841 91.1393 57.0317 91.1403C57.153 91.141 57.2744 91.1417 57.3957 91.1424C57.5343 91.1258 57.6642 91.0919 57.7854 91.0405C58.0798 90.9382 58.3135 90.8268 58.4865 90.7065C58.6768 90.5862 58.8671 90.4573 59.0574 90.3197L59.1613 90.2682L59.1353 90.2681C59.343 90.1653 59.5247 90.0623 59.6804 89.9592C59.8535 89.8561 59.94 89.8046 59.94 89.8046C60.0093 89.805 60.0785 89.762 60.1476 89.6758C60.2861 89.6072 60.4595 89.6342 60.6678 89.7567C60.8935 89.8793 61.0066 90.0359 61.0071 90.2266C60.99 90.3131 60.9124 90.4514 60.7742 90.6413C60.636 90.8138 60.4805 90.9776 60.3076 91.1326C60.152 91.2878 60.0223 91.3737 59.9183 91.3905C59.901 91.4077 59.8404 91.442 59.7366 91.4934C59.6327 91.5275 59.5634 91.5618 59.5289 91.5963L59.5549 91.5964C59.3994 91.8035 59.2437 91.9067 59.0877 91.9058L58.8797 91.9046C58.8107 92.0256 58.5858 92.163 58.2049 92.3169C57.8239 92.4534 57.4515 92.5206 57.0875 92.5186ZM58.2419 86.8052C58.5539 86.8069 58.8223 86.7217 59.0472 86.5497C59.2893 86.3604 59.4967 86.1535 59.6695 85.9292C60.0149 85.4631 60.213 85.0136 60.2638 84.5805C60.3319 84.1302 60.279 83.8179 60.1052 83.6436C60.0011 83.5911 59.9057 83.5645 59.819 83.564C59.7496 83.5463 59.6024 83.5715 59.3772 83.6396C59.2213 83.6734 59.005 83.8022 58.7283 84.0259C58.4516 84.2497 58.175 84.4995 57.8984 84.7753C57.6391 85.0512 57.4404 85.2841 57.3023 85.4739L56.9658 86.0181C57.1043 85.9668 57.2342 85.9416 57.3556 85.9422C57.4942 85.9257 57.5722 85.9348 57.5896 85.9695C57.5901 86.1255 57.6165 86.273 57.6688 86.412C57.7385 86.5337 57.8168 86.6295 57.9036 86.6993C58.0078 86.7692 58.1206 86.8045 58.2419 86.8052ZM62.6557 92.2897C62.3785 92.3055 62.1788 92.1744 62.0567 91.8964C61.9519 91.6185 62.081 91.2725 62.4439 90.8586C62.5303 90.7724 62.6772 90.6172 62.8846 90.393C63.1092 90.1516 63.3512 89.8757 63.6103 89.5651C63.8868 89.2547 64.1546 88.9442 64.4137 88.6336L65.7096 87.1069L66.8764 85.9694L68.3799 84.3139C68.8984 83.7621 69.3046 83.3744 69.5987 83.1507C69.8927 82.9097 70.135 82.7897 70.3257 82.7908C70.5163 82.7745 70.6985 82.8535 70.8723 83.0278C70.9591 83.0803 71.0027 83.1586 71.0029 83.2626C71.0206 83.3666 71.0295 83.4534 71.0296 83.5227C71.0646 83.6442 70.918 83.9121 70.5898 84.3262C70.279 84.7405 69.726 85.344 68.9308 86.1369C68.481 86.4464 68.1092 86.7563 67.8154 87.0667C67.5389 87.3771 67.4094 87.5671 67.4269 87.6365C67.1505 87.9469 66.9171 88.197 66.727 88.3866C66.5542 88.5763 66.3727 88.7659 66.1826 88.9555C66.0097 89.1279 65.8023 89.3434 65.5603 89.602C65.3357 89.8434 65.0333 90.1884 64.6532 90.6369C64.2213 91.1545 63.8237 91.5509 63.4605 91.8262C63.1145 92.1016 62.8463 92.2561 62.6557 92.2897ZM69.2099 93.1583C69.0886 93.1577 68.9237 93.0787 68.7153 92.9216C68.5069 92.7818 68.2984 92.5986 68.0898 92.3721C67.8985 92.1457 67.7333 91.9281 67.594 91.7193L67.202 90.9632L67.2021 90.9892C67.0801 90.7458 66.9494 90.4938 66.81 90.233C66.6879 89.955 66.6093 89.7379 66.5743 89.5817C66.5742 89.547 66.5567 89.4949 66.5218 89.4254C66.5043 89.356 66.4432 89.1736 66.3384 88.8784C66.2336 88.5831 66.0329 88.088 65.7363 87.393L65.3425 85.9869C65.2375 85.6223 65.1239 85.275 65.0017 84.945C64.8794 84.5976 64.7748 84.3631 64.6878 84.2412C64.5659 84.0152 64.5048 83.8762 64.5047 83.8242C64.5045 83.7549 64.5475 83.6338 64.6337 83.461L64.6856 83.4352C64.8238 83.2627 64.9621 83.1421 65.1006 83.0736C65.2391 83.005 65.4037 82.9973 65.5945 83.0503C65.7334 83.1378 65.8726 83.3205 66.012 83.5987C66.1687 83.8595 66.3082 84.1463 66.4303 84.459C66.5698 84.7544 66.6832 85.0324 66.7706 85.2929L66.7705 85.2669L67.0851 86.2046L67.4789 87.6368C67.4445 87.7232 67.4623 87.8967 67.5324 88.1571C67.6197 88.4175 67.7246 88.7301 67.8469 89.0948L68.0046 89.7197C68.0743 89.8761 68.1615 90.0499 68.266 90.2411C68.3705 90.415 68.4489 90.5715 68.5013 90.7104L68.5012 90.6844C68.5885 90.9102 68.6757 91.1187 68.7629 91.3099C68.8501 91.501 68.9198 91.6574 68.9722 91.779C69.0418 91.9008 69.0853 91.9617 69.1027 91.9618C69.2068 92.0317 69.259 92.0753 69.259 92.0926C69.2764 92.1101 69.2938 92.1362 69.3112 92.1709C69.3287 92.223 69.3548 92.2752 69.3896 92.3274C69.4418 92.3797 69.4766 92.4318 69.4941 92.4839C69.5464 92.6056 69.5727 92.7097 69.5729 92.7964C69.5905 92.9005 69.5647 92.9783 69.4955 93.0299C69.4437 93.099 69.3485 93.1418 69.2099 93.1583ZM70.83 98.3153C70.7085 98.2626 70.5783 98.1752 70.4393 98.0531C70.3003 97.931 70.1872 97.7917 70.1002 97.6352C70.0131 97.4961 69.9695 97.3745 69.9692 97.2705C69.9689 97.1665 70.0115 96.8894 70.0969 96.4392C70.1824 96.0064 70.2936 95.4697 70.4305 94.8291C70.5848 94.206 70.7477 93.5656 70.9193 92.9079C71.1082 92.2676 71.2973 91.6967 71.4866 91.1951C71.521 91.1086 71.6329 90.8233 71.8223 90.339C72.0289 89.8375 72.2266 89.2319 72.4153 88.5223C72.5527 88.0725 72.7334 87.5621 72.9571 86.9914C73.1809 86.4207 73.4133 85.85 73.6545 85.2793C73.8955 84.6914 74.0934 84.1725 74.2482 83.7227C74.403 83.2729 74.532 82.9096 74.6352 82.6329C74.7558 82.3389 74.8246 82.1573 74.8417 82.088C74.8761 81.9842 74.9279 81.8978 74.997 81.8289C75.0835 81.7427 75.1699 81.6739 75.2565 81.6224C75.3429 81.5535 75.4121 81.5106 75.4641 81.4935C75.7759 81.4086 76.0449 81.5401 76.2711 81.888C76.3582 82.0445 76.3761 82.2266 76.3246 82.4343C76.2732 82.642 76.1786 82.9015 76.0408 83.2127L75.8602 83.7317L76.7956 83.5289C76.9516 83.5298 77.1423 83.5395 77.3677 83.5581C77.6103 83.5595 77.8443 83.5608 78.0696 83.562C78.295 83.5633 78.4597 83.5816 78.5638 83.6168C78.9798 83.6365 79.266 83.7161 79.4224 83.8556C79.5961 83.9952 79.7439 84.178 79.8659 84.4041C79.9528 84.4912 80.0571 84.6131 80.1789 84.7698C80.3006 84.9091 80.3703 85.0482 80.388 85.187C80.4581 85.482 80.459 85.8027 80.3906 86.149C80.3395 86.478 80.2364 86.8068 80.0813 87.1352C79.9435 87.4638 79.7537 87.766 79.5118 88.042C79.2872 88.3008 79.0451 88.5161 78.7856 88.6879C78.6124 88.7563 78.4566 88.8334 78.3182 88.9193C78.1797 88.9879 78.1105 89.0222 78.1105 89.0222C78.0934 89.1087 77.9031 89.2463 77.5396 89.435C77.1761 89.6063 76.7606 89.7686 76.293 89.922C75.8254 90.0754 75.4184 90.1771 75.0719 90.2272C74.9506 90.2438 74.7773 90.2602 74.552 90.2763C74.3267 90.2923 74.1533 90.2654 74.0318 90.1953C73.841 90.1596 73.711 90.1416 73.6417 90.1412C73.5723 90.1408 73.5378 90.1753 73.538 90.2446C73.5207 90.2792 73.4004 90.6425 73.1769 91.3345C72.9535 92.0266 72.7217 92.8313 72.4815 93.7486C72.1549 94.7521 71.8884 95.5479 71.682 96.1361C71.4757 96.7416 71.3122 97.1914 71.1917 97.4853C71.0885 97.7794 71.0111 97.9783 70.9593 98.082C70.9077 98.2031 70.8646 98.2808 70.83 98.3153ZM74.0538 88.7395C74.1061 88.8438 74.2709 88.8794 74.5481 88.8463C74.8426 88.7959 75.189 88.6938 75.5873 88.5401C76.0028 88.3691 76.4096 88.1807 76.8077 87.9749C77.2057 87.7518 77.5344 87.5283 77.7938 87.3044C78.174 86.8732 78.4849 86.4763 78.7266 86.1137C78.9682 85.7337 79.0022 85.4825 78.8285 85.3602C78.6371 85.0818 78.2814 84.9499 77.7615 84.9643C77.2415 84.9787 76.6008 85.1918 75.8393 85.6035C75.5449 85.7059 75.3199 85.8433 75.1644 86.0158C75.0262 86.171 74.9054 86.3696 74.802 86.6117C74.6987 86.8538 74.5695 87.1477 74.4144 87.4935C74.2595 87.874 74.1563 88.1594 74.1048 88.3498C74.0533 88.5402 74.0363 88.6701 74.0538 88.7395ZM82.5642 92.583C82.2351 92.6678 81.9663 92.597 81.7577 92.3705C81.5664 92.1441 81.4528 91.7968 81.4168 91.3286C81.3809 90.8604 81.4314 90.306 81.5683 89.6655C81.6544 89.458 81.7232 89.259 81.7747 89.0686C81.8261 88.8609 81.8517 88.6964 81.8513 88.5751C81.8855 88.4019 81.9542 88.151 82.0573 87.8222C82.1603 87.4762 82.272 87.1215 82.3924 86.7581C82.5127 86.3948 82.6245 86.0748 82.7278 85.798C82.8483 85.504 82.9258 85.3225 82.9603 85.2533C83.0296 85.2537 83.0901 85.1934 83.1418 85.0724C83.1934 84.9513 83.2191 84.8301 83.2188 84.7088C83.2184 84.5701 83.244 84.4143 83.2955 84.2412C83.3644 84.0683 83.4334 83.9473 83.5025 83.8784C83.5023 83.7917 83.5193 83.6965 83.5537 83.5927C83.6054 83.4716 83.6311 83.3765 83.631 83.3071C83.6308 83.2378 83.6479 83.1686 83.6824 83.0994C83.7342 83.0304 83.76 82.9612 83.7598 82.8918C83.8805 82.6672 84.0356 82.3127 84.2249 81.8285C84.4315 81.327 84.6467 80.7735 84.8704 80.1681C85.1114 79.5628 85.3351 78.9661 85.5415 78.3779C85.7479 77.7897 85.9112 77.2966 86.0315 76.8987C86.169 76.4834 86.2376 76.2325 86.2374 76.1458C86.237 76.0072 86.2714 75.9034 86.3405 75.8344C86.4097 75.7655 86.5136 75.7314 86.6523 75.7321C86.7041 75.6804 86.7647 75.6461 86.834 75.6292C86.9206 75.6123 86.9986 75.6041 87.0679 75.6045C87.0679 75.6045 87.1027 75.6393 87.1722 75.7091C87.2417 75.7788 87.346 75.8834 87.485 76.0228C87.624 76.1449 87.7024 76.284 87.7202 76.4401C87.7552 76.5963 87.7731 76.7784 87.7736 76.9864C87.7743 77.2117 87.7488 77.4109 87.6973 77.584C87.6457 77.757 87.5424 78.0077 87.3873 78.3362C87.2322 78.6647 86.9909 79.1746 86.6635 79.8661C86.5258 80.212 86.3793 80.5405 86.2242 80.8517C86.069 81.1455 85.9915 81.327 85.9917 81.3963C85.9919 81.4657 85.9575 81.5695 85.8885 81.7078C85.8369 81.8461 85.7767 82.0191 85.7079 82.2267C85.639 82.365 85.5442 82.5725 85.4237 82.8491C85.303 83.1085 85.1738 83.3937 85.036 83.705C84.9155 83.999 84.8122 84.2584 84.7261 84.4832C84.64 84.6907 84.597 84.8118 84.5971 84.8465C84.5973 84.9158 84.5888 84.9851 84.5717 85.0543C84.5719 85.1237 84.5374 85.1928 84.4682 85.2618C84.3989 85.2614 84.3557 85.3131 84.3387 85.417C84.3389 85.5037 84.339 85.547 84.339 85.547C84.3395 85.7204 84.2021 86.1789 83.9268 86.9227C83.652 87.8745 83.3944 88.7484 83.1539 89.5443C82.9308 90.3404 82.8198 90.9811 82.8212 91.4664C82.8223 91.8824 82.8144 92.1597 82.7974 92.2983C82.7804 92.4195 82.7027 92.5144 82.5642 92.583ZM88.8023 92.4618C88.577 92.4779 88.3949 92.4596 88.2561 92.4068C88.1173 92.3367 87.9437 92.2404 87.7354 92.1179C87.3532 91.8211 87.0664 91.5248 86.875 91.2291C86.7008 90.9161 86.622 90.6124 86.6385 90.3178C86.6727 90.162 86.6724 90.0233 86.6374 89.9018C86.6197 89.7804 86.6109 89.7197 86.6109 89.7197C86.5066 89.6324 86.4718 89.5802 86.5065 89.5631C86.541 89.5286 86.5669 89.4767 86.584 89.4075C86.7226 89.3736 86.7397 89.2784 86.6352 89.1218C86.5829 88.9828 86.608 88.671 86.7107 88.1862C86.8307 87.6843 86.9854 87.2171 87.1749 86.7849C87.261 86.5947 87.3817 86.344 87.5368 86.0329C87.7093 85.7219 87.8991 85.4109 88.1063 85.1001C88.3134 84.7719 88.5033 84.513 88.6761 84.3233C89.0563 83.8921 89.3934 83.5733 89.6875 83.367C89.9989 83.1434 90.3451 82.9633 90.726 82.8268C91.0723 82.6901 91.3234 82.6135 91.4794 82.597C91.6353 82.5805 91.8523 82.6857 92.1302 82.9126C92.5465 83.0363 92.859 83.2114 93.0676 83.4379C93.2935 83.6471 93.4677 83.9774 93.5903 84.4288C93.7303 84.9322 93.7753 85.5304 93.7251 86.2235C93.6923 86.8993 93.4 87.773 92.8483 88.8445C92.5208 89.5187 92.1929 90.0282 91.8645 90.373C91.5534 90.7179 91.1731 91.0798 90.7235 91.4586C90.3949 91.7341 90.0922 91.9491 89.8153 92.1035C89.5384 92.258 89.2007 92.3774 88.8023 92.4618ZM90.8738 89.3795C91.2191 88.8614 91.4864 88.3863 91.6759 87.954C91.8827 87.5045 92.0458 86.9421 92.1653 86.2668C92.1995 86.0763 92.2075 85.8423 92.1894 85.5649C92.1713 85.2701 92.1272 85.0012 92.0572 84.7582C92.0046 84.5152 91.9262 84.3848 91.8222 84.3669C91.5966 84.279 91.3453 84.2775 91.0682 84.3627C90.791 84.4304 90.4883 84.6368 90.1599 84.9816C89.8662 85.3266 89.5986 85.7151 89.3571 86.1471C89.1329 86.5791 88.9262 87.0546 88.737 87.5736C88.5477 88.0925 88.3672 88.6462 88.1955 89.2345C88.024 89.8922 88.034 90.3949 88.2256 90.7427C88.4345 91.0905 88.7728 91.179 89.2403 91.0083C89.7078 90.8203 90.2523 90.2773 90.8738 89.3795ZM96.9264 91.8573C96.8744 91.8743 96.7877 91.8652 96.6663 91.8298C96.5449 91.7945 96.4234 91.7505 96.302 91.6978C96.1805 91.6451 96.1024 91.6013 96.0676 91.5665C95.9981 91.4967 95.9285 91.3924 95.8588 91.2533C95.8064 91.1143 95.8059 90.915 95.8571 90.6553C95.9084 90.3783 96.0808 90.0239 96.3742 89.5922C96.4604 89.4194 96.5637 89.16 96.6841 88.814C96.8045 88.468 96.9248 88.1047 97.0451 87.724C97.1827 87.3261 97.3031 86.9715 97.4062 86.66C97.5267 86.3487 97.6128 86.1325 97.6645 86.0115C97.6983 85.717 97.6804 85.5089 97.6108 85.3872C97.5584 85.2482 97.4109 85.1694 97.1681 85.1507C96.9948 85.1498 96.8561 85.1317 96.752 85.0964C96.6652 85.0613 96.6214 84.8877 96.6206 84.5757C96.6546 84.3332 96.7148 84.1689 96.8012 84.0827C96.905 83.9793 97.0433 83.8674 97.2163 83.747C97.3894 83.6613 97.5626 83.6016 97.7358 83.5679C97.9264 83.5343 98.1084 83.5267 98.2817 83.545C98.4551 83.5633 98.5939 83.6247 98.6982 83.7293C98.8197 83.7993 98.8982 83.9558 98.9335 84.1986C98.9688 84.4241 98.9867 84.6582 98.9874 84.9009C99.0054 85.1437 99.0232 85.3258 99.0409 85.4472C99.2138 85.3095 99.4473 85.1201 99.7413 84.8791C100.053 84.6209 100.321 84.3797 100.545 84.1556C100.822 83.9665 101.151 83.7777 101.532 83.5892C101.913 83.3833 102.19 83.2808 102.363 83.2818C102.554 83.2829 102.744 83.3359 102.935 83.441C103.126 83.5287 103.257 83.6421 103.326 83.7812C103.5 84.0768 103.579 84.3372 103.562 84.5625C103.563 84.7878 103.468 85.0213 103.278 85.2629C103.106 85.4872 102.889 85.642 102.63 85.7272C102.387 85.8126 102.231 85.855 102.162 85.8546C102.058 85.854 101.928 85.7753 101.771 85.6185C101.615 85.4616 101.528 85.3311 101.51 85.227C101.51 85.175 101.398 85.2264 101.173 85.3811C100.965 85.5186 100.732 85.6993 100.472 85.9232C100.213 86.1297 99.9966 86.3192 99.8237 86.4916C99.53 86.8539 99.2194 87.3462 98.8917 87.9683C98.5641 88.5905 98.1762 89.3423 97.7279 90.2238C97.5211 90.6559 97.3748 91.0278 97.289 91.3393C97.2031 91.6335 97.0822 91.8061 96.9264 91.8573ZM109.285 91.8223C108.922 92.1323 108.498 92.3119 108.013 92.3612C107.545 92.4106 107.085 92.3387 106.634 92.1455C106.183 91.935 105.809 91.6209 105.513 91.2033C105.218 90.8203 105.026 90.3859 104.938 89.9001C104.85 89.3969 104.839 88.7469 104.907 87.9499C104.957 87.2742 105.172 86.5994 105.551 85.9256C105.931 85.2344 106.388 84.6216 106.924 84.0873C107.477 83.553 108.022 83.1834 108.559 82.9784C108.819 82.8066 109.035 82.7298 109.208 82.7481C109.399 82.7491 109.685 82.7681 110.067 82.8049C110.465 82.8591 110.76 82.9387 110.951 83.0438C111.159 83.149 111.324 83.2885 111.446 83.4626C111.707 83.724 111.881 83.985 111.968 84.2455C112.056 84.4886 112.1 84.7315 112.1 84.9742C112.032 85.3551 111.773 85.8217 111.324 86.3738C110.892 86.9087 110.322 87.3475 109.612 87.6902C109.231 87.8094 108.815 87.8591 108.364 87.8393C107.914 87.8194 107.541 87.7047 107.245 87.495C106.916 87.3545 106.699 87.3793 106.596 87.5694C106.492 87.7421 106.398 88.1749 106.313 88.8678C106.246 89.526 106.299 90.0117 106.473 90.3246C106.647 90.6203 106.882 90.7949 107.176 90.8486C107.523 90.9198 107.792 90.9733 107.983 91.0091C108.191 91.0276 108.442 90.951 108.736 90.7793C109.013 90.6075 109.186 90.5131 109.255 90.4962C109.325 90.4619 109.377 90.4275 109.411 90.3931C109.463 90.3413 109.575 90.2293 109.748 90.0569C109.869 89.9363 109.964 89.8502 110.034 89.7985C110.103 89.7296 110.181 89.6954 110.267 89.6959C110.354 89.6963 110.432 89.7401 110.502 89.8272C110.571 89.8969 110.641 89.9493 110.71 89.9843C110.883 89.9853 110.918 90.0895 110.815 90.2969C110.729 90.5044 110.547 90.7547 110.271 91.0478C109.994 91.3236 109.666 91.5818 109.285 91.8223ZM109.244 86.3102C109.434 86.2246 109.633 86.1044 109.841 85.9495C110.049 85.7774 110.221 85.5963 110.36 85.4065C110.515 85.1993 110.593 85.0264 110.592 84.8878C110.591 84.6451 110.478 84.4451 110.253 84.2879C110.027 84.1133 109.689 84.0854 109.238 84.2042C109.048 84.2551 108.832 84.3839 108.589 84.5906C108.347 84.7799 108.114 84.9952 107.889 85.2366C107.682 85.4782 107.509 85.6938 107.371 85.8837C107.25 86.0737 107.207 86.1862 107.242 86.221C107.294 86.308 107.442 86.3781 107.684 86.4315C107.927 86.4675 108.196 86.4777 108.49 86.462C108.802 86.4464 109.054 86.3958 109.244 86.3102ZM120.682 91.522C120.491 91.3996 120.317 91.2427 120.161 91.0511C120.004 90.8422 119.925 90.5818 119.924 90.2698C119.924 90.0965 119.958 89.802 120.026 89.3864C120.094 88.9708 120.188 88.5033 120.308 87.984C120.428 87.4647 120.548 86.98 120.668 86.53C120.841 86.219 120.987 85.9078 121.108 85.5965C121.228 85.2852 121.288 85.0949 121.288 85.0255C121.322 84.8177 121.365 84.5753 121.416 84.2983C121.485 84.0213 121.553 83.7704 121.622 83.5454C121.691 83.3205 121.742 83.1908 121.777 83.1563C121.863 83.0701 121.967 83.0187 122.089 83.002C122.21 82.9681 122.331 82.9861 122.453 83.0561C122.592 83.1089 122.696 83.2221 122.766 83.3958C122.957 83.6049 123.053 83.8567 123.054 84.1514C123.054 84.4287 122.96 84.8442 122.771 85.3978C122.616 85.7436 122.461 86.1501 122.306 86.6172C122.152 87.0843 122.014 87.5169 121.894 87.9149C121.791 88.2956 121.731 88.5553 121.714 88.6938L121.195 88.8469C121.488 88.5713 121.765 88.2868 122.024 87.9936C122.283 87.683 122.473 87.4414 122.594 87.2688C122.888 86.8718 123.138 86.5438 123.346 86.285C123.57 86.0089 123.855 85.6812 124.201 85.3018C124.546 84.9051 124.884 84.6643 125.213 84.5795C125.559 84.4774 125.828 84.4269 126.018 84.428C126.4 84.4994 126.704 84.7005 126.93 85.0311C127.174 85.3444 127.331 85.8133 127.402 86.4377C127.402 86.6803 127.377 86.9662 127.326 87.2952C127.292 87.6244 127.275 87.7889 127.275 87.7889C127.275 87.7889 127.414 87.6077 127.69 87.2453C127.984 86.8829 128.373 86.4864 128.857 86.0558C129.185 85.815 129.506 85.6781 129.818 85.6452C130.129 85.5949 130.407 85.7005 130.65 85.9618C131.102 86.207 131.397 86.5813 131.537 87.0848C131.677 87.5709 131.714 88.1951 131.647 88.9573C131.596 89.4077 131.588 89.7457 131.623 89.9712C131.659 90.1794 131.711 90.3877 131.781 90.5961C131.92 90.6662 131.946 90.8136 131.86 91.0385C131.774 91.246 131.67 91.3494 131.549 91.3488C131.376 91.3478 131.176 91.312 130.951 91.2414C130.743 91.1709 130.552 91.0572 130.378 90.9002C130.221 90.726 130.143 90.4916 130.142 90.1969L130.138 88.5849C130.137 88.2036 130.118 87.8915 130.083 87.6486C130.065 87.4059 130.021 87.2583 129.952 87.2059C129.761 87.1008 129.484 87.212 129.121 87.5393C128.758 87.8666 128.369 88.3064 127.954 88.8587C127.54 89.4111 127.151 89.9809 126.789 90.5682C126.461 91.1037 126.254 91.4145 126.168 91.5007C126.098 91.5696 125.968 91.5429 125.777 91.4205C125.396 91.297 125.153 91.131 125.048 90.9224C124.961 90.6966 124.951 90.4452 125.02 90.1683C125.106 89.8741 125.209 89.476 125.329 88.974C125.466 88.4721 125.595 87.9875 125.715 87.5202C125.835 87.0356 125.912 86.6893 125.946 86.4815C125.876 86.3425 125.755 86.2985 125.582 86.3495C125.426 86.3833 125.261 86.4604 125.088 86.5807C124.881 86.7182 124.63 86.9768 124.336 87.3565C124.043 87.7362 123.741 88.1765 123.43 88.6774C123.223 89.0056 123.007 89.3337 122.783 89.6618C122.558 89.9725 122.351 90.2487 122.161 90.4903C121.971 90.7319 121.807 90.913 121.668 91.0335C121.427 91.4135 121.263 91.6206 121.176 91.6548C121.09 91.689 120.925 91.6447 120.682 91.522ZM133.48 98.0414C133.064 98.1604 132.605 98.1752 132.102 98.0857C131.617 98.0137 131.192 97.864 130.827 97.6366C130.445 97.4091 130.228 97.1566 130.175 96.879C130.157 96.7749 130.192 96.6624 130.278 96.5416C130.347 96.4206 130.442 96.3345 130.563 96.2832C130.667 96.2491 130.763 96.2843 130.85 96.3887C130.988 96.4762 131.24 96.5816 131.604 96.705C131.969 96.8457 132.376 96.8739 132.827 96.7898C133.225 96.7054 133.614 96.4735 133.995 96.0943C134.392 95.7152 134.712 95.3617 134.954 95.0337C135.092 94.8265 135.325 94.4551 135.653 93.9196C135.981 93.3841 136.317 92.7967 136.662 92.1573C137.024 91.5007 137.326 90.8957 137.567 90.3424C137.619 90.204 137.679 90.0397 137.748 89.8494C137.816 89.6591 137.903 89.5036 138.006 89.3829C138.11 89.1755 138.196 88.9853 138.265 88.8123C138.351 88.6221 138.403 88.4924 138.42 88.4232C138.437 88.3366 138.514 88.1637 138.652 87.9045C138.79 87.6453 138.92 87.386 139.04 87.1267C139.126 86.8672 139.255 86.4866 139.427 85.9849C139.599 85.4832 139.771 85.0768 139.944 84.7658C140.151 84.3683 140.314 84.0485 140.435 83.8066C140.573 83.5473 140.72 83.3922 140.876 83.341C141.031 83.2206 141.135 83.1605 141.187 83.1608C141.257 83.1612 141.387 83.2139 141.578 83.3189C141.786 83.5281 141.917 83.7368 141.969 83.9451C142.022 84.1361 141.997 84.3786 141.893 84.6727C141.807 84.9495 141.635 85.3299 141.376 85.8138C141.239 86.229 141.084 86.6095 140.912 86.9552C140.757 87.2836 140.636 87.4996 140.549 87.6031C140.463 87.8106 140.36 88.0441 140.239 88.3034C140.136 88.5455 140.041 88.7703 139.955 88.9778C139.645 89.6694 139.378 90.2312 139.154 90.6633C138.93 91.0953 138.731 91.4929 138.559 91.8559C138.387 92.2189 138.206 92.6426 138.016 93.1269C137.62 93.766 137.231 94.3705 136.851 94.9403C136.489 95.5276 136.101 96.0714 135.686 96.5718C135.513 96.7268 135.297 96.9076 135.037 97.1141C134.778 97.3207 134.51 97.5098 134.233 97.6816C133.973 97.8535 133.722 97.9734 133.48 98.0414ZM136.973 91.8211C136.713 91.7849 136.452 91.6275 136.192 91.3487C135.948 91.07 135.757 90.7743 135.617 90.4615C135.478 90.1487 135.425 89.9231 135.459 89.7846C135.459 89.698 135.459 89.6286 135.459 89.5766C135.459 89.5246 135.459 89.4986 135.459 89.4986C135.355 89.4981 135.259 89.3675 135.172 89.107C135.102 88.8467 135.049 88.5084 135.013 88.0922C134.977 87.676 134.95 87.2338 134.931 86.7657C134.93 86.2977 134.946 85.8558 134.98 85.44C135.048 85.1458 135.082 84.8253 135.081 84.4786C135.08 84.1146 135.088 83.8287 135.105 83.6208C135.087 83.3433 135.112 83.1615 135.181 83.0752C135.25 82.9716 135.319 82.894 135.389 82.8424C135.873 82.6371 136.194 82.7689 136.352 83.2377C136.526 83.6894 136.572 84.539 136.489 85.7865C136.456 86.4796 136.458 87.1729 136.494 87.8665C136.531 88.56 136.628 89.1672 136.785 89.688C136.96 90.209 137.195 90.5657 137.49 90.758C137.612 90.828 137.673 90.9236 137.673 91.045C137.673 91.1663 137.639 91.2961 137.57 91.4344C137.501 91.5553 137.406 91.6588 137.285 91.7448C137.181 91.8136 137.077 91.839 136.973 91.8211ZM33.334 122.709C32.9526 122.707 32.6666 122.688 32.4758 122.653C32.2851 122.617 32.1376 122.564 32.0334 122.494C31.9292 122.424 31.8076 122.328 31.6686 122.206C31.5989 122.067 31.5119 121.919 31.4075 121.763C31.303 121.606 31.2161 121.493 31.1465 121.423C31.0765 121.163 31.0409 120.825 31.0398 120.409C31.056 119.993 31.1068 119.542 31.1921 119.057C31.2948 118.573 31.4322 118.123 31.6044 117.708C31.6734 117.569 31.7337 117.431 31.7853 117.293C31.8369 117.154 31.8627 117.085 31.8627 117.085C31.8625 116.999 31.9659 116.791 32.173 116.463C32.3975 116.135 32.6392 115.79 32.8982 115.427C33.1745 115.065 33.3991 114.806 33.572 114.651C33.693 114.513 33.8746 114.366 34.1168 114.212C34.3764 114.057 34.6014 113.946 34.7919 113.878C34.9824 113.809 35.1729 113.75 35.3634 113.699C35.5713 113.648 35.8052 113.623 36.0652 113.625C36.3078 113.626 36.5333 113.679 36.7416 113.785C36.9499 113.89 37.1497 114.073 37.3411 114.334C37.6539 114.648 37.8281 114.961 37.8636 115.273C37.9164 115.568 37.9086 115.871 37.8401 116.183C37.7544 116.529 37.6424 116.797 37.5043 116.987C37.3661 117.159 37.2103 117.236 37.0369 117.218C36.8635 117.2 36.6639 117.069 36.4379 116.825C36.3682 116.686 36.3332 116.573 36.333 116.486C36.3327 116.382 36.3669 116.235 36.4358 116.045C36.5044 115.802 36.5037 115.551 36.4337 115.291C36.3637 115.03 36.2506 114.9 36.0946 114.899C35.8693 114.898 35.6183 115 35.3415 115.207C35.082 115.396 34.814 115.637 34.5375 115.93C34.4165 116.068 34.2438 116.284 34.0193 116.577C33.812 116.853 33.6049 117.164 33.3978 117.51C33.1907 117.838 33.0183 118.158 32.8805 118.469C32.6913 119.04 32.5366 119.498 32.4162 119.844C32.3131 120.19 32.2616 120.363 32.2616 120.363C32.2618 120.433 32.2793 120.502 32.3142 120.572C32.3663 120.624 32.3925 120.685 32.3927 120.754C32.3932 120.962 32.515 121.127 32.758 121.25C32.949 121.373 33.1745 121.443 33.4346 121.462C33.6946 121.463 34.015 121.378 34.3958 121.207C34.6728 121.07 34.9323 120.89 35.1744 120.666C35.4337 120.442 35.7019 120.244 35.9787 120.072C36.169 119.952 36.3161 119.849 36.4199 119.763C36.541 119.677 36.6016 119.668 36.6018 119.738C36.602 119.807 36.6281 119.842 36.6801 119.842C36.7321 119.842 36.7926 119.808 36.8618 119.739C36.9654 119.601 37.0778 119.515 37.1991 119.481C37.3203 119.43 37.4242 119.413 37.5109 119.431C37.6149 119.431 37.667 119.458 37.6671 119.51C37.6329 119.665 37.6679 119.796 37.7722 119.9C37.7724 119.969 37.7466 120.065 37.695 120.186C37.6606 120.29 37.6088 120.376 37.5397 120.445C37.4533 120.566 37.3237 120.704 37.1508 120.859C36.9952 121.014 36.8483 121.152 36.71 121.272C36.5716 121.375 36.5024 121.427 36.5024 121.427C36.433 121.409 36.3637 121.426 36.2945 121.478C36.2427 121.53 36.1822 121.59 36.113 121.659C35.9747 121.779 35.845 121.874 35.7238 121.943C35.6026 121.994 35.5074 122.019 35.438 122.019C35.3169 122.088 35.2217 122.131 35.1524 122.147C35.1004 122.165 35.0745 122.208 35.0747 122.277C34.9019 122.449 34.6855 122.57 34.4257 122.637C34.1832 122.688 33.8193 122.712 33.334 122.709ZM41.9286 122.601C41.7901 122.635 41.6081 122.652 41.3828 122.65C41.1574 122.632 40.958 122.605 40.7846 122.569C40.6285 122.516 40.5503 122.464 40.5502 122.412C40.5499 122.325 40.5065 122.281 40.4198 122.281C40.4198 122.281 40.3764 122.246 40.2895 122.176C40.22 122.106 40.1072 122.036 39.951 121.966C39.7943 121.723 39.7156 121.462 39.7149 121.185C39.7141 120.89 39.7908 120.431 39.9451 119.808C39.9959 119.375 40.1592 118.874 40.435 118.303C40.7281 117.715 41.0818 117.119 41.4961 116.515C41.9105 115.911 42.3423 115.367 42.7916 114.884C43.2583 114.402 43.682 114.049 44.0627 113.825C44.3047 113.584 44.599 113.456 44.9456 113.44C45.2923 113.425 45.6218 113.505 45.9343 113.68C46.1078 113.768 46.2815 113.907 46.4554 114.099C46.6292 114.29 46.7945 114.499 46.9511 114.726C47.1077 114.952 47.2383 115.178 47.3429 115.404C47.3954 115.595 47.4219 115.768 47.4223 115.924C47.44 116.063 47.4405 116.236 47.4237 116.444C47.4243 116.652 47.3991 116.964 47.3483 117.38C47.2625 117.691 47.1855 118.072 47.1174 118.522C47.0666 118.973 47.0417 119.363 47.0426 119.692C47.0088 120.021 47.0441 120.255 47.1485 120.395C47.2702 120.534 47.4435 120.544 47.6685 120.423C47.8763 120.321 48.0755 120.278 48.2662 120.297C48.4568 120.298 48.6043 120.351 48.7086 120.455C48.8302 120.56 48.8913 120.716 48.8919 120.924C48.8924 121.132 48.789 121.348 48.5816 121.573C48.3915 121.779 48.1494 121.96 47.8551 122.114C47.5782 122.252 47.3097 122.319 47.0497 122.318C46.8591 122.317 46.6767 122.203 46.5028 121.977C46.3288 121.733 46.172 121.446 46.0325 121.116C45.9102 120.769 45.7966 120.439 45.6918 120.126L45.5342 119.528L44.4191 120.587C44.1944 120.829 43.9697 121.053 43.7449 121.26C43.5375 121.449 43.4078 121.587 43.3561 121.673C43.2698 121.829 43.1056 121.984 42.8634 122.139C42.6384 122.293 42.3269 122.448 41.9286 122.601ZM42.0025 121.068C42.2967 120.896 42.634 120.647 43.0144 120.319C43.3948 119.975 43.7664 119.604 44.1293 119.208C44.4922 118.794 44.7945 118.414 45.0362 118.069C45.3298 117.672 45.5541 117.3 45.7092 116.955C45.8642 116.609 45.976 116.28 46.0445 115.968C45.9746 115.777 45.8614 115.577 45.7049 115.369C45.5483 115.142 45.4093 115.02 45.2879 115.002C44.9065 115 44.4999 115.241 44.0679 115.723C43.6532 116.189 43.2472 116.698 42.8501 117.251C42.781 117.337 42.686 117.475 42.5652 117.665C42.4444 117.855 42.3236 118.036 42.2027 118.209C42.0991 118.364 42.0301 118.468 41.9955 118.52C41.9437 118.589 41.8403 118.788 41.6852 119.116C41.5474 119.427 41.4096 119.747 41.2718 120.076C41.134 120.387 41.0652 120.595 41.0655 120.699C41.0658 120.803 41.0748 120.915 41.0924 121.037C41.1274 121.158 41.2143 121.237 41.353 121.272C41.4918 121.308 41.7083 121.239 42.0025 121.068ZM52.5471 123.051C51.6804 123.046 51.0469 122.73 50.6466 122.104C50.5248 121.93 50.4636 121.756 50.4632 121.583C50.48 121.392 50.5316 121.263 50.6181 121.194C50.7219 121.125 50.8434 121.187 50.9826 121.378C51.2256 121.518 51.5725 121.589 52.0231 121.592C52.2485 121.593 52.4824 121.577 52.725 121.544C52.9675 121.493 53.21 121.425 53.4524 121.34C53.7121 121.22 53.8851 121.117 53.9715 121.031C54.0579 120.927 54.0404 120.84 53.9188 120.77L53.9448 120.771C53.4939 120.647 53.034 120.453 52.5653 120.191C52.1139 119.911 51.7231 119.614 51.3929 119.3C51.0627 118.969 50.8712 118.673 50.8185 118.413C50.6784 117.875 50.7116 117.329 50.9181 116.776C51.1245 116.205 51.4178 115.704 51.798 115.273C51.9364 115.187 52.1094 115.084 52.3171 114.964C52.5247 114.826 52.6892 114.749 52.8105 114.732L52.8105 114.758C53.1389 114.413 53.5368 114.138 54.0042 113.933C54.489 113.728 54.9998 113.54 55.5367 113.37L55.9265 113.32C56.1344 113.286 56.3077 113.27 56.4464 113.271C56.429 113.271 56.4638 113.288 56.5505 113.323C56.6372 113.341 56.7153 113.359 56.7846 113.377C56.8888 113.429 56.9755 113.456 57.0449 113.456C57.2703 113.492 57.4786 113.597 57.6697 113.771C57.8608 113.946 58.0087 114.155 58.1134 114.398C58.2353 114.624 58.2793 114.841 58.2452 115.049C58.2114 115.378 58.1082 115.672 57.9356 115.931C57.7803 116.19 57.59 116.336 57.3648 116.37C57.3994 116.353 57.3733 116.326 57.2866 116.291C57.2171 116.239 57.1389 116.186 57.0521 116.134L56.9743 116.186C56.9743 116.186 56.9656 116.168 56.9481 116.133C56.948 116.081 56.9305 116.021 56.8956 115.951C56.8434 115.847 56.8171 115.734 56.8167 115.613C56.8164 115.474 56.8246 115.327 56.8415 115.171C56.8757 114.98 56.8754 114.868 56.8406 114.833C56.8232 114.798 56.7104 114.771 56.5024 114.753C56.2596 114.7 55.9044 114.741 55.4368 114.877C54.9865 115.013 54.6057 115.202 54.2943 115.443C53.9137 115.683 53.5936 115.915 53.3343 116.139C53.0748 116.346 52.8674 116.553 52.712 116.76C52.5565 116.949 52.4184 117.174 52.2978 117.433C52.2115 117.554 52.1338 117.675 52.0648 117.796C52.0131 117.9 51.9874 117.995 51.9876 118.082C51.9881 118.272 52.1273 118.472 52.4052 118.682C52.7004 118.874 53.1343 119.102 53.707 119.365C54.1582 119.558 54.5401 119.769 54.8527 119.996C55.1653 120.223 55.3827 120.484 55.5048 120.779C55.5397 120.849 55.5486 120.935 55.5315 121.039C55.5318 121.126 55.5146 121.187 55.48 121.221C55.5148 121.256 55.5322 121.282 55.5322 121.299L55.5322 121.273C55.6714 121.482 55.672 121.699 55.5339 121.923C55.4132 122.148 55.1971 122.346 54.8856 122.518C54.5913 122.672 54.2277 122.791 53.7946 122.876L53.8206 122.876C53.5954 122.944 53.3702 122.995 53.145 123.028C52.9371 123.044 52.7377 123.052 52.5471 123.051ZM60.8356 122.837C60.1588 122.556 59.7158 122.172 59.5065 121.686C59.3145 121.182 59.2777 120.41 59.3962 119.371C59.4294 118.834 59.4458 118.479 59.4453 118.305C59.4448 118.132 59.349 117.958 59.1579 117.784C59.1057 117.714 59.0101 117.618 58.8711 117.496C58.7495 117.374 58.6972 117.27 58.7143 117.183C58.6966 117.062 58.7049 116.932 58.7392 116.793C58.7734 116.638 58.8252 116.56 58.8946 116.56C58.9639 116.561 59.0332 116.544 59.1024 116.509C59.189 116.475 59.267 116.476 59.3364 116.511C59.4058 116.511 59.4838 116.52 59.5705 116.538C59.6572 116.556 59.7006 116.599 59.7008 116.669C59.7705 116.79 59.8832 116.808 60.039 116.723C60.1947 116.62 60.3587 116.395 60.5311 116.049C60.7037 115.773 60.9283 115.497 61.2049 115.221C61.4988 114.946 61.7841 114.696 62.0608 114.472C62.3548 114.231 62.597 114.059 62.7874 113.956C62.8739 113.922 63.0038 113.879 63.177 113.828C63.3502 113.777 63.5321 113.735 63.7226 113.701C63.9305 113.668 64.1039 113.66 64.2426 113.678C64.5546 113.697 64.8148 113.785 65.0233 113.943C65.249 114.1 65.4575 114.283 65.6487 114.492C65.8745 114.649 66.0137 114.858 66.0664 115.118C66.1365 115.379 66.1546 115.656 66.1207 115.951C66.0868 116.245 66.0096 116.513 65.8889 116.755C65.8374 116.928 65.6906 117.136 65.4486 117.377C65.2066 117.618 64.9299 117.851 64.6185 118.074C64.3071 118.298 64.0216 118.461 63.7619 118.563C63.5367 118.614 63.2421 118.656 62.8782 118.688C62.5317 118.721 62.2024 118.737 61.8904 118.735C61.5957 118.716 61.3963 118.68 61.2921 118.628C61.1706 118.558 61.0755 118.652 61.0069 118.912C60.9383 119.172 60.8873 119.544 60.8539 120.029C60.8203 120.41 60.8211 120.688 60.8562 120.861C60.8913 121.035 60.9263 121.156 60.9612 121.226C61.0829 121.348 61.2479 121.505 61.4565 121.696C61.6823 121.871 61.9943 121.899 62.3927 121.78C62.7217 121.695 63.0418 121.471 63.3528 121.109C63.6811 120.747 63.9837 120.454 64.2604 120.23C64.3294 120.109 64.4419 120.041 64.5978 120.024C64.771 119.99 64.9531 120 65.1439 120.053C65.3349 120.176 65.4133 120.323 65.3791 120.496C65.3622 120.652 65.2762 120.895 65.1211 121.223C65.0694 121.344 64.9485 121.499 64.7583 121.689C64.5855 121.861 64.3866 122.042 64.1618 122.232C63.9543 122.404 63.764 122.541 63.591 122.644C63.0717 122.919 62.5868 123.063 62.1362 123.078C61.6855 123.076 61.252 122.995 60.8356 122.837ZM62.3552 117.568C62.7363 117.483 63.0395 117.424 63.2647 117.391C63.4899 117.357 63.7063 117.263 63.9139 117.108C64.1214 116.936 64.3806 116.617 64.6913 116.151C64.7601 115.96 64.7769 115.77 64.7417 115.579C64.7239 115.388 64.6802 115.258 64.6107 115.188C64.4542 115.014 64.2634 114.961 64.0382 115.029C63.8304 115.08 63.6313 115.174 63.441 115.312C63.3198 115.363 63.1382 115.492 62.8961 115.699C62.6713 115.888 62.4466 116.112 62.2219 116.371C61.9973 116.612 61.8159 116.837 61.6778 117.044C61.5397 117.251 61.5054 117.372 61.5748 117.407C61.5403 117.476 61.6358 117.52 61.8611 117.539C62.1038 117.558 62.2685 117.567 62.3552 117.568ZM75.3553 123.646C75.0256 123.506 74.7131 123.322 74.4178 123.095C74.1225 122.851 73.9313 122.65 73.8442 122.494C73.8438 122.338 73.8695 122.234 73.9213 122.182C73.9732 122.113 74.1204 122.088 74.3631 122.107C74.6231 122.108 75.0392 122.145 75.6114 122.218C75.8194 122.219 76.0793 122.203 76.3912 122.17C76.7031 122.137 76.989 122.087 77.2488 122.019C77.5259 121.951 77.6817 121.865 77.7161 121.761C77.8027 121.762 77.82 121.736 77.7679 121.684C77.7157 121.614 77.6548 121.544 77.5853 121.475C77.516 121.474 77.4379 121.448 77.3511 121.395C77.2642 121.325 77.1862 121.29 77.1168 121.29C77.1166 121.203 77.0297 121.108 76.856 121.003C76.6997 120.88 76.5348 120.784 76.3613 120.714C75.9791 120.4 75.649 120.12 75.371 119.876C75.093 119.615 74.9885 119.441 75.0576 119.355C75.0574 119.285 75.0573 119.251 75.0573 119.251C75.0573 119.233 75.0573 119.225 75.0573 119.225C74.9359 119.224 74.7968 119.05 74.6399 118.702C74.5003 118.355 74.4301 118.042 74.4293 117.765C74.4288 117.557 74.4887 117.297 74.6092 116.986C74.7296 116.657 74.8934 116.32 75.1004 115.975C75.3075 115.629 75.5234 115.345 75.7481 115.12C76.0593 114.828 76.4484 114.518 76.9155 114.191C77.3826 113.847 77.8411 113.546 78.291 113.289C78.7583 113.014 79.1478 112.834 79.4595 112.749C79.7712 112.63 80.057 112.571 80.317 112.572C80.5943 112.574 80.8372 112.636 81.0455 112.758C81.2191 112.846 81.3754 112.977 81.5146 113.151C81.671 113.308 81.8014 113.473 81.9059 113.647C82.0276 113.804 82.106 113.943 82.141 114.064C82.1416 114.272 82.1249 114.506 82.0909 114.766C82.0569 115.008 82.0055 115.225 81.9367 115.415C81.8852 115.605 81.7988 115.7 81.6775 115.7C81.6775 115.7 81.6515 115.708 81.5995 115.725C81.5649 115.725 81.5477 115.768 81.5479 115.855C81.5484 116.028 81.4189 116.227 81.1595 116.451C80.8308 116.674 80.5452 116.811 80.3027 116.862C80.0601 116.895 79.9125 116.799 79.8599 116.573C79.8077 116.504 79.7729 116.443 79.7554 116.391C79.7379 116.339 79.6945 116.312 79.6252 116.312C79.6252 116.312 79.5991 116.286 79.547 116.234C79.4949 116.181 79.4686 116.095 79.4683 115.973C79.4681 115.904 79.4939 115.843 79.5458 115.792C79.5976 115.723 79.6235 115.688 79.6235 115.688C79.7102 115.689 79.8226 115.594 79.9607 115.404C80.0988 115.197 80.2196 114.981 80.323 114.756C80.4436 114.514 80.5038 114.35 80.5036 114.263C80.5033 114.159 80.4858 114.098 80.4511 114.081C80.4337 114.063 80.3557 114.054 80.217 114.053C79.9747 114.156 79.6804 114.293 79.3342 114.465C78.988 114.636 78.6591 114.807 78.3476 114.979C78.0534 115.133 77.8371 115.279 77.6988 115.417C77.6298 115.538 77.5867 115.616 77.5695 115.651C77.5522 115.668 77.5089 115.676 77.4395 115.676C77.4394 115.607 77.3788 115.641 77.2578 115.779C77.1542 115.9 77.016 116.072 76.8432 116.297C76.6879 116.521 76.5325 116.745 76.3771 116.97C76.239 117.177 76.1354 117.333 76.0664 117.436C76.0318 117.471 75.9888 117.574 75.9372 117.747C75.903 117.903 75.886 118.051 75.8864 118.189C75.8177 118.397 75.8267 118.544 75.9136 118.631C76.0005 118.701 76.1916 118.858 76.4869 119.103C77.0948 119.557 77.5724 119.932 77.9199 120.229C78.2674 120.525 78.528 120.769 78.7019 120.961C78.8757 121.152 78.9802 121.326 79.0153 121.483C79.3287 122.004 79.4251 122.404 79.3045 122.68C79.184 122.957 78.89 123.198 78.4225 123.403C78.2494 123.489 77.9636 123.557 77.5651 123.606C77.1666 123.656 76.7593 123.68 76.3433 123.678C75.9274 123.693 75.598 123.682 75.3553 123.646ZM85.88 123.549C85.6372 123.478 85.4376 123.399 85.2814 123.312C85.1251 123.207 84.9167 123.041 84.6561 122.814C84.4473 122.536 84.2819 122.275 84.1599 122.031C84.0553 121.788 83.9852 121.51 83.9497 121.198C83.9141 120.869 83.8957 120.453 83.8943 119.95C83.8937 119.742 83.9275 119.43 83.9957 119.014C84.0813 118.599 84.1754 118.166 84.2782 117.716C84.3983 117.249 84.5011 116.833 84.5868 116.47C84.6898 116.106 84.7498 115.873 84.7669 115.769C84.8183 115.544 84.7313 115.413 84.5058 115.377C84.2804 115.341 84.0291 115.331 83.7518 115.347C83.4918 115.346 83.3184 115.319 83.2316 115.266C83.1622 115.249 83.1275 115.222 83.1274 115.188C83.1272 115.136 83.1272 115.11 83.1272 115.11C83.127 115.04 83.1182 114.997 83.1008 114.98C83.1007 114.945 83.0745 114.884 83.0223 114.797C82.9875 114.728 83.0045 114.632 83.0735 114.511C83.1598 114.373 83.2982 114.287 83.4888 114.254C83.6447 114.22 83.8526 114.195 84.1126 114.179C84.3898 114.146 84.667 114.087 84.9441 114.002C85.2211 113.899 85.446 113.745 85.6188 113.538C85.7738 113.157 85.9546 112.734 86.1613 112.267C86.3681 111.8 86.5663 111.385 86.7559 111.022C86.9629 110.642 87.1009 110.409 87.17 110.322C87.4643 110.168 87.6808 110.109 87.8195 110.144C87.9582 110.162 88.1146 110.31 88.2887 110.589C88.3757 110.71 88.4366 110.806 88.4715 110.876C88.5237 110.945 88.5326 111.049 88.4983 111.188C88.464 111.326 88.3693 111.542 88.2141 111.836C88.0762 112.13 87.8607 112.554 87.5676 113.107C87.4814 113.279 87.4038 113.435 87.3348 113.573C87.2658 113.694 87.2313 113.755 87.2313 113.755C87.3007 113.772 87.4047 113.782 87.5434 113.782C87.6821 113.783 87.8554 113.775 88.0633 113.759C88.2539 113.726 88.4965 113.701 88.7911 113.685C89.0857 113.652 89.3197 113.654 89.4931 113.689C89.8918 113.692 90.1866 113.771 90.3777 113.928C90.5688 114.068 90.6734 114.311 90.6917 114.658C90.7269 114.849 90.6839 114.961 90.5626 114.995C90.4587 115.029 90.1728 115.045 89.7048 115.042C89.5488 115.042 89.3061 115.049 88.9769 115.064C88.6476 115.08 88.301 115.095 87.937 115.111C87.5904 115.126 87.2871 115.15 87.0272 115.183C86.7846 115.199 86.6634 115.225 86.6635 115.259C86.6116 115.294 86.5253 115.458 86.4048 115.752C86.3016 116.046 86.1899 116.383 86.0696 116.764C85.9666 117.128 85.8721 117.456 85.7863 117.751C85.6665 118.339 85.5728 118.928 85.5051 119.517C85.4547 120.106 85.4474 120.617 85.4832 121.051C85.5191 121.484 85.6152 121.788 85.7717 121.962C85.9281 122.119 86.2316 122.156 86.682 122.071C87.1324 121.97 87.4959 121.807 87.7726 121.584C88.0839 121.325 88.3349 121.197 88.5255 121.198C88.7335 121.199 88.8465 121.295 88.8643 121.486C88.8995 121.659 88.8048 121.91 88.5804 122.238C88.3732 122.549 88.114 122.825 87.8026 123.066C87.4913 123.289 87.1624 123.452 86.816 123.554C86.4869 123.639 86.1749 123.637 85.88 123.549ZM97.4513 123.614C97.2775 123.439 97.1035 123.204 96.9294 122.909C96.7552 122.596 96.6155 122.24 96.5105 121.84C96.4754 121.702 96.4576 121.511 96.4569 121.268C96.4736 121.026 96.4731 120.852 96.4555 120.748C96.4038 120.869 96.3175 120.999 96.1966 121.137C96.0929 121.257 95.9892 121.361 95.8854 121.447C95.8163 121.516 95.6607 121.654 95.4186 121.86C95.1764 122.05 94.9342 122.204 94.6918 122.324C94.1208 122.685 93.6447 122.882 93.2635 122.914C92.8996 122.947 92.5524 122.754 92.2219 122.336C91.944 122.11 91.744 121.857 91.6219 121.579C91.5172 121.301 91.5161 120.92 91.6188 120.435C91.6518 119.829 91.7369 119.24 91.874 118.669C92.011 118.08 92.2949 117.302 92.7256 116.333C93.0877 115.625 93.3636 115.106 93.5534 114.778C93.7431 114.432 93.8638 114.225 93.9157 114.156C94.1754 114.071 94.3921 114.081 94.5657 114.186C94.7393 114.273 94.8437 114.439 94.8791 114.681C94.9835 114.855 94.967 115.15 94.8295 115.565C94.7093 115.98 94.494 116.491 94.1836 117.095C93.9426 117.683 93.7188 118.272 93.5125 118.86C93.3234 119.448 93.2121 119.95 93.1786 120.366C93.145 120.782 93.2497 121.033 93.4926 121.122C93.6488 121.209 93.9174 121.185 94.2984 121.048C94.6967 120.912 95.1377 120.567 95.6215 120.015C96.1227 119.464 96.6057 118.626 97.0707 117.502C97.2084 117.156 97.3115 116.853 97.3802 116.593C97.4488 116.316 97.4913 116.013 97.5077 115.684C97.4725 115.476 97.4806 115.294 97.5322 115.138C97.6011 114.965 97.7393 114.819 97.947 114.699C98.0161 114.612 98.1112 114.535 98.2324 114.466C98.3535 114.38 98.4315 114.381 98.4664 114.467L98.8823 114.444C98.9516 114.427 98.995 114.47 99.0126 114.574C99.0475 114.661 99.1084 114.74 99.1953 114.81C99.3864 114.967 99.4393 115.305 99.354 115.824C99.2688 116.344 99.0281 117.071 98.632 118.004C98.3046 118.713 98.0807 119.249 97.9604 119.613C97.8574 119.976 97.7977 120.331 97.7813 120.677C97.7821 120.989 97.8436 121.284 97.9657 121.563C98.0878 121.841 98.2791 122.093 98.5397 122.32C98.7307 122.442 98.8351 122.581 98.8528 122.737C98.8879 122.894 98.8971 123.076 98.8803 123.284C98.8461 123.439 98.7424 123.569 98.5694 123.672C98.4136 123.758 98.2317 123.8 98.0237 123.799C97.8157 123.798 97.6249 123.736 97.4513 123.614ZM106.658 123.639C106.468 123.707 106.329 123.733 106.242 123.715C106.173 123.68 105.991 123.549 105.695 123.322C105.573 123.113 105.495 122.931 105.46 122.774C105.442 122.601 105.432 122.298 105.431 121.864C105.465 121.604 105.534 121.232 105.636 120.747C105.756 120.263 105.894 119.752 106.048 119.216C106.203 118.679 106.34 118.195 106.46 117.762C106.598 117.329 106.701 117.035 106.77 116.88C106.89 116.464 106.915 116.213 106.846 116.126C106.776 116.022 106.568 115.951 106.221 115.915C105.528 115.824 104.904 116.046 104.351 116.58C103.798 117.115 103.245 117.813 102.693 118.677C102.278 119.316 102.029 119.869 101.943 120.337C101.875 120.787 101.867 121.099 101.92 121.273C101.972 121.412 102.094 121.49 102.284 121.509C102.475 121.51 102.683 121.468 102.908 121.382C103.15 121.297 103.358 121.211 103.531 121.126C103.652 121.057 103.8 120.988 103.973 120.92C104.163 120.834 104.345 120.758 104.518 120.689C104.622 120.69 104.692 120.725 104.726 120.794C104.779 120.847 104.805 120.959 104.805 121.133C104.806 121.202 104.832 121.263 104.884 121.315C104.936 121.367 104.997 121.411 105.066 121.446C105.136 121.516 105.032 121.671 104.755 121.912C104.496 122.154 104.09 122.429 103.536 122.738C103.016 122.856 102.592 122.914 102.262 122.912C101.95 122.911 101.647 122.796 101.351 122.569C100.865 122.272 100.587 121.794 100.515 121.135C100.462 120.458 100.598 119.636 100.925 118.667C101.252 117.889 101.614 117.258 102.012 116.775C102.409 116.275 102.832 115.792 103.282 115.326C103.351 115.257 103.506 115.154 103.749 115.017C104.008 114.862 104.329 114.726 104.71 114.606C105.143 114.47 105.55 114.386 105.931 114.353C106.312 114.321 106.642 114.4 106.919 114.593C107.232 114.664 107.431 114.656 107.517 114.57C107.604 114.466 107.75 114.155 107.957 113.636C108.301 112.772 108.637 111.898 108.964 111.016C109.291 110.117 109.643 109.209 110.022 108.292C110.195 107.964 110.298 107.713 110.332 107.54C110.384 107.35 110.444 107.22 110.513 107.151L111.007 107.154C111.076 107.154 111.198 107.215 111.372 107.338C111.545 107.46 111.667 107.625 111.737 107.834C111.737 107.99 111.669 108.336 111.532 108.873C111.395 109.392 111.171 110.015 110.861 110.741C110.585 111.381 110.31 112.029 110.034 112.686C109.776 113.326 109.526 114.009 109.286 114.736C109.097 115.272 108.924 115.705 108.769 116.033C108.614 116.361 108.511 116.647 108.46 116.889C108.357 117.339 108.228 117.746 108.073 118.109C107.935 118.455 107.841 118.697 107.789 118.835C107.565 119.493 107.385 120.029 107.247 120.444C107.11 120.842 107.007 121.18 106.938 121.457C106.87 121.716 106.827 121.985 106.81 122.262C106.811 122.522 106.838 122.834 106.891 123.198C106.891 123.268 106.883 123.337 106.865 123.406C106.848 123.475 106.779 123.553 106.658 123.639ZM112.365 122.943C112.105 122.907 111.879 122.724 111.688 122.393C111.513 122.046 111.408 121.733 111.373 121.455C111.39 121.317 111.407 121.118 111.423 120.858C111.457 120.598 111.491 120.329 111.525 120.052C111.594 119.723 111.688 119.325 111.808 118.858C111.928 118.373 112.048 117.889 112.168 117.404C112.305 116.919 112.426 116.504 112.529 116.158C112.632 115.812 112.7 115.604 112.735 115.535C112.821 115.397 112.96 115.363 113.151 115.433C113.341 115.504 113.498 115.609 113.619 115.748C113.724 115.887 113.785 116.052 113.803 116.243C113.838 116.434 113.813 116.711 113.727 117.075C113.659 117.438 113.522 117.975 113.315 118.684C113.127 119.377 112.981 119.939 112.878 120.372C112.793 120.787 112.759 121.229 112.778 121.697C112.71 122.286 112.659 122.65 112.625 122.788C112.59 122.91 112.504 122.961 112.365 122.943ZM115.327 112.586C115.258 112.637 115.188 112.663 115.119 112.663C115.067 112.645 114.971 112.592 114.833 112.505C114.711 112.487 114.555 112.408 114.364 112.268C114.19 112.111 114.034 111.954 113.895 111.798C113.773 111.624 113.712 111.519 113.712 111.485C113.694 111.311 113.702 111.095 113.736 110.835C113.787 110.558 113.882 110.316 114.02 110.108C114.158 109.884 114.357 109.764 114.617 109.748C114.686 109.748 114.747 109.757 114.799 109.775C114.851 109.792 115.007 109.854 115.268 109.959C115.407 110.22 115.546 110.516 115.686 110.846C115.826 111.159 115.887 111.471 115.871 111.783C115.854 112.077 115.673 112.345 115.327 112.586ZM117.735 123.155C117.058 122.874 116.615 122.49 116.406 122.004C116.214 121.5 116.177 120.728 116.296 119.689C116.329 119.152 116.345 118.797 116.345 118.623C116.344 118.45 116.249 118.276 116.057 118.102C116.005 118.032 115.91 117.936 115.771 117.814C115.649 117.692 115.597 117.588 115.614 117.501C115.596 117.38 115.604 117.25 115.639 117.111C115.673 116.956 115.725 116.878 115.794 116.878C115.863 116.879 115.933 116.862 116.002 116.827C116.088 116.793 116.166 116.794 116.236 116.829C116.305 116.829 116.383 116.838 116.47 116.856C116.557 116.874 116.6 116.917 116.6 116.987C116.67 117.108 116.783 117.126 116.938 117.041C117.094 116.937 117.258 116.713 117.431 116.367C117.603 116.091 117.828 115.815 118.104 115.539C118.398 115.263 118.684 115.014 118.96 114.79C119.254 114.549 119.496 114.377 119.687 114.274C119.773 114.24 119.903 114.197 120.077 114.146C120.25 114.095 120.432 114.053 120.622 114.019C120.83 113.986 121.003 113.978 121.142 113.996C121.454 114.015 121.714 114.103 121.923 114.261C122.149 114.418 122.357 114.601 122.548 114.81C122.774 114.967 122.913 115.176 122.966 115.436C123.036 115.697 123.054 115.974 123.02 116.269C122.986 116.563 122.909 116.831 122.788 117.073C122.737 117.246 122.59 117.454 122.348 117.695C122.106 117.936 121.829 118.169 121.518 118.392C121.207 118.616 120.921 118.779 120.661 118.881C120.436 118.932 120.142 118.974 119.778 119.006C119.431 119.039 119.102 119.055 118.79 119.053C118.495 119.034 118.296 118.998 118.192 118.946C118.07 118.876 117.975 118.97 117.906 119.23C117.838 119.49 117.787 119.862 117.753 120.347C117.72 120.728 117.721 121.006 117.756 121.179C117.791 121.353 117.826 121.474 117.861 121.544C117.982 121.666 118.147 121.823 118.356 122.014C118.582 122.189 118.894 122.217 119.292 122.098C119.621 122.013 119.941 121.789 120.252 121.427C120.581 121.065 120.883 120.772 121.16 120.548C121.229 120.427 121.341 120.358 121.497 120.342C121.671 120.308 121.853 120.318 122.043 120.371C122.234 120.493 122.313 120.641 122.279 120.814C122.262 120.97 122.176 121.212 122.021 121.541C121.969 121.662 121.848 121.817 121.658 122.007C121.485 122.179 121.286 122.36 121.061 122.55C120.854 122.722 120.664 122.859 120.49 122.962C119.971 123.237 119.486 123.381 119.036 123.396C118.585 123.394 118.151 123.313 117.735 123.155ZM119.255 117.886C119.636 117.801 119.939 117.742 120.164 117.709C120.389 117.675 120.606 117.581 120.813 117.426C121.021 117.254 121.28 116.935 121.591 116.469C121.66 116.278 121.676 116.088 121.641 115.897C121.623 115.706 121.58 115.576 121.51 115.506C121.354 115.332 121.163 115.279 120.938 115.347C120.73 115.398 120.531 115.492 120.341 115.63C120.219 115.681 120.038 115.81 119.796 116.017C119.571 116.206 119.346 116.43 119.121 116.689C118.897 116.93 118.715 117.155 118.577 117.362C118.439 117.569 118.405 117.69 118.474 117.725C118.44 117.794 118.535 117.838 118.761 117.857C119.003 117.875 119.168 117.885 119.255 117.886ZM125.958 123.929C125.628 123.788 125.316 123.605 125.021 123.378C124.725 123.133 124.534 122.933 124.447 122.776C124.446 122.62 124.472 122.517 124.524 122.465C124.576 122.396 124.723 122.371 124.966 122.389C125.226 122.391 125.642 122.428 126.214 122.5C126.422 122.502 126.682 122.486 126.994 122.453C127.306 122.42 127.592 122.369 127.852 122.302C128.129 122.234 128.284 122.148 128.319 122.044C128.405 122.045 128.423 122.019 128.371 121.966C128.318 121.897 128.258 121.827 128.188 121.757C128.119 121.757 128.041 121.731 127.954 121.678C127.867 121.608 127.789 121.573 127.72 121.573C127.719 121.486 127.632 121.39 127.459 121.285C127.302 121.163 127.138 121.067 126.964 120.997C126.582 120.682 126.252 120.403 125.974 120.159C125.696 119.898 125.591 119.724 125.66 119.637C125.66 119.568 125.66 119.533 125.66 119.533C125.66 119.516 125.66 119.507 125.66 119.507C125.539 119.507 125.4 119.333 125.243 118.985C125.103 118.638 125.033 118.325 125.032 118.048C125.031 117.84 125.091 117.58 125.212 117.269C125.332 116.94 125.496 116.603 125.703 116.258C125.91 115.912 126.126 115.627 126.351 115.403C126.662 115.11 127.051 114.801 127.518 114.474C127.985 114.13 128.444 113.829 128.894 113.571C129.361 113.297 129.75 113.117 130.062 113.032C130.374 112.912 130.66 112.853 130.92 112.855C131.197 112.856 131.44 112.918 131.648 113.041C131.822 113.129 131.978 113.259 132.117 113.434C132.274 113.59 132.404 113.756 132.509 113.93C132.63 114.086 132.709 114.225 132.744 114.347C132.744 114.555 132.728 114.789 132.694 115.049C132.66 115.291 132.608 115.508 132.539 115.698C132.488 115.888 132.402 115.983 132.28 115.982C132.28 115.982 132.254 115.991 132.202 116.008C132.168 116.008 132.15 116.051 132.151 116.138C132.151 116.311 132.022 116.51 131.762 116.733C131.434 116.957 131.148 117.094 130.905 117.145C130.663 117.178 130.515 117.082 130.463 116.856C130.41 116.787 130.376 116.726 130.358 116.674C130.341 116.622 130.297 116.595 130.228 116.595C130.228 116.595 130.202 116.569 130.15 116.516C130.098 116.464 130.071 116.377 130.071 116.256C130.071 116.187 130.097 116.126 130.149 116.074C130.2 116.005 130.226 115.971 130.226 115.971C130.313 115.971 130.425 115.877 130.563 115.687C130.702 115.48 130.822 115.264 130.926 115.039C131.046 114.797 131.107 114.633 131.106 114.546C131.106 114.442 131.089 114.381 131.054 114.364C131.036 114.346 130.958 114.337 130.82 114.336C130.577 114.439 130.283 114.576 129.937 114.747C129.591 114.919 129.262 115.09 128.95 115.262C128.656 115.416 128.44 115.562 128.302 115.7C128.233 115.821 128.189 115.899 128.172 115.933C128.155 115.951 128.112 115.959 128.042 115.959C128.042 115.889 127.982 115.924 127.861 116.062C127.757 116.182 127.619 116.355 127.446 116.579C127.291 116.804 127.135 117.028 126.98 117.253C126.842 117.46 126.738 117.615 126.669 117.719C126.635 117.753 126.591 117.857 126.54 118.03C126.506 118.186 126.489 118.333 126.489 118.472C126.42 118.68 126.429 118.827 126.516 118.914C126.603 118.984 126.794 119.141 127.09 119.385C127.697 119.839 128.175 120.215 128.523 120.511C128.87 120.808 129.131 121.052 129.305 121.244C129.478 121.435 129.583 121.609 129.618 121.765C129.931 122.287 130.028 122.686 129.907 122.963C129.787 123.24 129.493 123.481 129.025 123.686C128.852 123.772 128.566 123.839 128.168 123.889C127.769 123.939 127.362 123.963 126.946 123.96C126.53 123.975 126.201 123.965 125.958 123.929ZM135.743 119.46C135.258 119.544 134.936 119.308 134.779 118.752C134.621 118.197 134.663 117.434 134.903 116.465C135.006 116.258 135.092 116.059 135.161 115.868C135.23 115.661 135.264 115.496 135.264 115.375C135.333 115.15 135.418 114.891 135.522 114.597C135.642 114.285 135.763 114 135.883 113.741C136.004 113.464 136.09 113.282 136.142 113.196C136.211 113.196 136.28 113.136 136.349 113.015C136.436 112.894 136.479 112.773 136.478 112.652C136.478 112.513 136.504 112.357 136.555 112.184C136.624 112.011 136.693 111.89 136.762 111.821C136.762 111.735 136.796 111.64 136.865 111.536C136.934 111.432 136.969 111.346 136.969 111.277C136.968 111.207 136.986 111.147 137.02 111.095C137.072 111.043 137.098 110.983 137.098 110.913C137.253 110.637 137.451 110.231 137.692 109.695C137.951 109.142 138.201 108.562 138.442 107.957C138.7 107.352 138.915 106.816 139.087 106.349C139.259 105.882 139.345 105.596 139.345 105.492C139.379 105.354 139.431 105.25 139.5 105.181C139.569 105.112 139.673 105.095 139.812 105.131C139.881 105.079 139.95 105.053 140.02 105.054C140.089 105.037 140.158 105.029 140.228 105.029C140.228 105.029 140.254 105.064 140.306 105.133C140.375 105.203 140.471 105.308 140.593 105.447C140.732 105.569 140.81 105.708 140.828 105.864C140.846 106.02 140.855 106.202 140.855 106.41C140.839 106.74 140.718 107.112 140.494 107.526C140.27 107.941 140.02 108.399 139.744 108.9C139.572 109.229 139.399 109.54 139.227 109.833C139.071 110.127 138.994 110.309 138.994 110.378C138.994 110.447 138.96 110.551 138.891 110.689C138.822 110.828 138.744 111.001 138.658 111.208C138.555 111.381 138.443 111.588 138.322 111.83C138.201 112.072 138.089 112.297 137.986 112.504C137.9 112.695 137.857 112.816 137.857 112.868C137.84 112.937 137.814 113.006 137.779 113.075C137.762 113.144 137.719 113.213 137.65 113.282C137.581 113.282 137.537 113.334 137.52 113.438C137.521 113.524 137.521 113.568 137.521 113.568C137.521 113.637 137.478 113.801 137.392 114.061C137.323 114.303 137.203 114.597 137.031 114.943C136.704 115.86 136.472 116.595 136.335 117.149C136.197 117.686 136.112 118.144 136.078 118.526C136.045 118.941 136.011 119.184 135.976 119.253C135.959 119.322 135.881 119.391 135.743 119.46ZM134.35 123.612C134.021 123.731 133.744 123.79 133.519 123.789C133.311 123.771 133.076 123.665 132.816 123.473C132.486 123.159 132.372 122.847 132.475 122.535C132.596 122.207 132.881 121.888 133.331 121.578C133.642 121.389 133.867 121.286 134.006 121.27C134.162 121.253 134.396 121.315 134.708 121.456C135.229 121.788 135.456 122.153 135.387 122.552C135.336 122.95 134.991 123.303 134.35 123.612Z" fill="#222222"/>
<defs>
<filter id="filter0_dd_230_3011" x="-0.00012207" y="0" width="200" height="172" filterUnits="userSpaceOnUse" color-interpolation-filters="sRGB">
<feFlood flood-opacity="0" result="BackgroundImageFix"/>
<feColorMatrix in="SourceAlpha" type="matrix" values="0 0 0 0 0 0 0 0 0 0 0 0 0 0 0 0 0 0 127 0" result="hardAlpha"/>
<feOffset dx="-2" dy="12"/>
<feGaussianBlur stdDeviation="5"/>
<feComposite in2="hardAlpha" operator="out"/>
<feColorMatrix type="matrix" values="0 0 0 0 0 0 0 0 0 0 0 0 0 0 0 0 0 0 0.15 0"/>
<feBlend mode="normal" in2="BackgroundImageFix" result="effect1_dropShadow_230_3011"/>
<feColorMatrix in="SourceAlpha" type="matrix" values="0 0 0 0 0 0 0 0 0 0 0 0 0 0 0 0 0 0 127 0" result="hardAlpha"/>
<feMorphology radius="5" operator="erode" in="SourceAlpha" result="effect2_dropShadow_230_3011"/>
<feOffset dy="8"/>
<feGaussianBlur stdDeviation="2"/>
<feComposite in2="hardAlpha" operator="out"/>
<feColorMatrix type="matrix" values="0 0 0 0 0 0 0 0 0 0 0 0 0 0 0 0 0 0 0.25 0"/>
<feBlend mode="normal" in2="effect1_dropShadow_230_3011" result="effect2_dropShadow_230_3011"/>
<feBlend mode="normal" in="SourceGraphic" in2="effect2_dropShadow_230_3011" result="shape"/>
</filter>
</defs>
</svg>
