<svg width="45" height="29" viewBox="0 0 45 29" fill="none" xmlns="http://www.w3.org/2000/svg">
<path d="M22.5225 25.4589C22.6742 26.0553 23.205 26.428 24.115 26.5771C24.3425 26.602 24.4563 26.7262 24.4563 26.9499C24.4563 27.0741 24.3931 27.1859 24.2667 27.2853C24.1403 27.3847 23.976 27.4344 23.7738 27.4344C23.3946 27.4344 22.889 27.4096 22.2571 27.3599C21.6252 27.3102 20.7278 27.2853 19.565 27.2853C18.6297 27.2853 17.8082 27.3102 17.1004 27.3599C16.3926 27.4344 15.9629 27.4841 15.8113 27.509C15.6849 27.509 15.5964 27.4717 15.5458 27.3972C15.4953 27.3226 15.47 27.2356 15.47 27.1362C15.47 27.0369 15.4826 26.9374 15.5079 26.838C15.5585 26.7386 15.6217 26.6889 15.6975 26.6889C15.8745 26.6641 16.0514 26.6144 16.2283 26.5398C16.4053 26.4653 16.5696 26.3659 16.7213 26.2416C16.7971 26.1671 16.8856 25.7695 16.9867 25.0488C17.1131 24.3282 17.2142 23.3839 17.29 22.2159C17.3911 21.0231 17.467 19.6564 17.5175 18.1157C17.5933 16.575 17.6313 14.9473 17.6313 13.2326C17.6313 11.7913 17.6313 10.4494 17.6313 9.20694C17.6313 7.96444 17.5681 6.95801 17.4417 6.18766C17.2142 4.54756 16.6833 3.29263 15.8492 2.42288C15.015 1.52828 14.0418 1.08098 12.9296 1.08098C11.9438 1.08098 10.9706 1.35433 10.01 1.90103C9.04945 2.42288 8.19 3.20566 7.43167 4.24936C6.67334 5.26821 6.05403 6.54799 5.57375 8.08869C5.11875 9.60454 4.89125 11.344 4.89125 13.3072C4.89125 15.4692 5.13139 17.3578 5.61167 18.973C6.11723 20.5634 6.77445 21.9053 7.58334 22.9987C8.39223 24.0673 9.31487 24.8749 10.3513 25.4216C11.4129 25.9434 12.5125 26.2044 13.65 26.2044C13.7006 26.2044 13.7638 26.2044 13.8396 26.2044C13.9407 26.2044 14.0165 26.1919 14.0671 26.1671C14.1682 26.1174 14.2314 26.1174 14.2567 26.1671C14.282 26.2168 14.282 26.2913 14.2567 26.3907C14.2314 26.4653 14.1935 26.5523 14.1429 26.6517C14.1176 26.7262 14.0797 26.7759 14.0292 26.8008C13.7764 26.9747 13.4225 27.1362 12.9675 27.2853C12.5125 27.4096 11.8806 27.4717 11.0717 27.4717C9.73195 27.4717 8.39223 27.1735 7.0525 26.5771C5.73806 25.9559 4.55 25.0985 3.48834 24.0051C2.45195 22.9117 1.60514 21.5947 0.947917 20.054C0.315972 18.4884 0 16.7738 0 14.91C0 12.2511 0.391806 9.97729 1.17542 8.08869C1.95903 6.20009 3.0207 4.65938 4.36042 3.46658C5.72542 2.27378 7.29264 1.40403 9.06209 0.857327C10.8568 0.285775 12.7653 0 14.7875 0C15.5206 0 16.1904 0.0745506 16.7971 0.223652C17.4038 0.372752 17.9346 0.559127 18.3896 0.782777C18.8446 0.981578 19.2111 1.18038 19.4892 1.37918C19.7925 1.57798 19.9947 1.72708 20.0958 1.82648C20.2981 1.67738 20.7025 1.50343 21.3092 1.30463C21.9411 1.08098 22.6489 0.882177 23.4325 0.708226C24.2414 0.509427 25.0756 0.347902 25.935 0.223652C26.7945 0.0745506 27.5781 0 28.2859 0C30.207 0.0497009 31.8879 0.360327 33.3288 0.931878C34.7949 1.50343 36.0082 2.27378 36.9688 3.24293C37.9546 4.18723 38.6877 5.29306 39.1679 6.56041C39.6735 7.80291 39.9263 9.13239 39.9263 10.5488C39.9263 13.2078 39.5597 15.581 38.8267 17.6684C38.1189 19.7309 37.1584 21.4829 35.945 22.9242C34.7317 24.3655 33.3288 25.4713 31.7363 26.2416C30.1438 26.9871 28.4754 27.3599 26.7313 27.3599C26.5796 27.3599 26.4785 27.3102 26.4279 27.2108C26.3774 27.0865 26.3521 26.9623 26.3521 26.838C26.3774 26.7138 26.4279 26.6144 26.5038 26.5398C26.5796 26.4404 26.6554 26.4032 26.7313 26.428C26.8577 26.4777 26.9588 26.5026 27.0346 26.5026C27.1104 26.5026 27.2115 26.5026 27.3379 26.5026C28.3743 26.5026 29.3475 26.1547 30.2575 25.4589C31.1675 24.7631 31.9638 23.8063 32.6463 22.5887C33.3288 21.3462 33.8596 19.8925 34.2388 18.2275C34.6432 16.5377 34.8454 14.6988 34.8454 12.7108C34.8454 9.00814 34.2641 6.12554 33.1013 4.06298C31.9638 2.00043 30.1943 0.969153 27.7929 0.969153C27.0599 0.969153 26.3774 1.11825 25.7454 1.41645C25.1135 1.71465 24.5574 2.11225 24.0771 2.60925C23.6221 3.08141 23.2429 3.62811 22.9396 4.24936C22.6615 4.87061 22.4846 5.50428 22.4088 6.15039C22.2824 7.02014 22.2065 8.41174 22.1813 10.3252C22.156 12.2386 22.1307 14.5497 22.1054 17.2584C22.0802 19.2464 22.0928 20.9859 22.1433 22.4769C22.2192 23.943 22.3456 24.937 22.5225 25.4589Z" fill="#1E1E1E"/>
<path d="M42.3458 23.8933C42.4722 23.9182 42.6744 24.0548 42.9525 24.3033C43.2558 24.5518 43.5592 24.8376 43.8625 25.1607C44.1658 25.4837 44.4312 25.7943 44.6587 26.0925C44.8862 26.3907 45 26.5895 45 26.6889C45 26.8132 44.8483 26.9996 44.545 27.2481C44.2417 27.4966 43.8878 27.7451 43.4833 27.9936C43.1042 28.2669 42.725 28.503 42.3458 28.7018C41.9919 28.9006 41.7392 29 41.5875 29C41.5117 29 41.3221 28.8758 41.0187 28.6273C40.7407 28.4036 40.45 28.1427 40.1467 27.8445C39.8433 27.5463 39.5653 27.2605 39.3125 26.9871C39.085 26.6889 38.9712 26.4901 38.9712 26.3907C38.9712 26.2665 39.1355 26.0801 39.4642 25.8316C39.7928 25.5583 40.1467 25.2849 40.5258 25.0116C40.9303 24.7134 41.3094 24.4649 41.6633 24.2661C42.0425 24.0424 42.27 23.9182 42.3458 23.8933Z" fill="#1E1E1E"/>
</svg>
